<svg width="181" height="180" viewBox="0 0 181 180" fill="none" xmlns="http://www.w3.org/2000/svg">
<g clip-path="url(#clip0_144_1317)">
<path d="M178.077 104.538C178.057 104.538 178.038 104.536 178.018 104.532C169.636 102.697 154.188 101.754 149.626 102.224C149.59 102.228 149.554 102.224 149.519 102.214C149.485 102.204 149.453 102.187 149.425 102.164C149.397 102.141 149.374 102.113 149.357 102.082C149.34 102.05 149.329 102.015 149.326 101.98C149.322 101.944 149.325 101.908 149.336 101.873C149.346 101.839 149.363 101.807 149.386 101.779C149.408 101.751 149.436 101.728 149.468 101.711C149.5 101.694 149.534 101.683 149.57 101.68C154.166 101.206 169.71 102.152 178.135 103.996C178.201 104.01 178.26 104.047 178.3 104.102C178.34 104.157 178.359 104.225 178.351 104.292C178.344 104.359 178.312 104.422 178.261 104.467C178.211 104.512 178.145 104.536 178.077 104.535V104.538Z" fill="#DDE2F8"/>
<path d="M178.362 103.696C178.503 103.554 178.684 103.457 178.881 103.418C179.078 103.379 179.282 103.399 179.467 103.476C179.653 103.552 179.811 103.683 179.923 103.849C180.034 104.016 180.094 104.212 180.094 104.413C180.094 104.614 180.034 104.81 179.923 104.977C179.811 105.144 179.653 105.274 179.467 105.35C179.282 105.427 179.078 105.447 178.881 105.408C178.684 105.369 178.503 105.272 178.362 105.13C178.171 104.94 178.064 104.682 178.064 104.413C178.064 104.144 178.171 103.886 178.362 103.696Z" stroke="#DDE2F8" stroke-width="0.544318" stroke-linecap="round" stroke-linejoin="round"/>
<path d="M170.992 98.3009C171.129 98.1643 171.304 98.0715 171.494 98.0341C171.684 97.9967 171.88 98.0164 172.059 98.0907C172.238 98.165 172.39 98.2906 172.498 98.4516C172.605 98.6126 172.663 98.8018 172.663 98.9954C172.663 99.189 172.605 99.3782 172.498 99.5392C172.39 99.7002 172.238 99.8258 172.059 99.9001C171.88 99.9744 171.684 99.9941 171.494 99.9567C171.304 99.9193 171.129 99.8265 170.992 99.69C170.9 99.5989 170.828 99.4907 170.778 99.3715C170.729 99.2523 170.703 99.1245 170.703 98.9954C170.703 98.8663 170.729 98.7385 170.778 98.6193C170.828 98.5001 170.9 98.3919 170.992 98.3009Z" stroke="#DDE2F8" stroke-width="0.544318" stroke-linecap="round" stroke-linejoin="round"/>
<path d="M163.682 105.288C163.838 105.132 164.036 105.025 164.253 104.982C164.469 104.939 164.693 104.961 164.897 105.046C165.1 105.13 165.275 105.273 165.397 105.456C165.52 105.64 165.585 105.855 165.585 106.076C165.585 106.296 165.52 106.512 165.397 106.695C165.275 106.878 165.1 107.021 164.897 107.106C164.693 107.19 164.469 107.212 164.253 107.169C164.036 107.126 163.838 107.02 163.682 106.864C163.473 106.655 163.355 106.371 163.355 106.076C163.355 105.78 163.473 105.497 163.682 105.288Z" stroke="#DDE2F8" stroke-width="0.544318" stroke-linecap="round" stroke-linejoin="round"/>
<path d="M159.67 97.7918C159.851 97.6114 160.081 97.4886 160.331 97.4388C160.581 97.3891 160.841 97.4146 161.076 97.5123C161.312 97.6099 161.513 97.7753 161.655 97.9874C161.797 98.1996 161.873 98.449 161.873 98.7041C161.873 98.9592 161.797 99.2086 161.655 99.4208C161.513 99.6329 161.312 99.7983 161.076 99.8959C160.841 99.9936 160.581 100.019 160.331 99.9694C160.081 99.9196 159.851 99.7968 159.67 99.6164C159.429 99.3743 159.293 99.0462 159.293 98.7041C159.293 98.362 159.429 98.0339 159.67 97.7918Z" stroke="#DDE2F8" stroke-width="0.544318" stroke-linecap="round" stroke-linejoin="round"/>
<path d="M176.13 106.355C176.247 106.238 176.397 106.158 176.561 106.125C176.724 106.093 176.893 106.11 177.047 106.174C177.2 106.237 177.332 106.345 177.424 106.484C177.517 106.622 177.566 106.785 177.566 106.951C177.566 107.117 177.517 107.28 177.424 107.418C177.332 107.557 177.2 107.665 177.047 107.728C176.893 107.792 176.724 107.809 176.561 107.776C176.397 107.744 176.247 107.664 176.13 107.546C176.051 107.468 175.989 107.375 175.947 107.273C175.905 107.171 175.883 107.062 175.883 106.951C175.883 106.84 175.905 106.731 175.947 106.629C175.989 106.526 176.051 106.434 176.13 106.355Z" stroke="#DDE2F8" stroke-width="0.544318" stroke-linecap="round" stroke-linejoin="round"/>
<path d="M176.219 106.55C176.181 106.55 176.143 106.542 176.108 106.526C176.073 106.511 176.041 106.488 176.016 106.459C175.935 106.368 175.827 106.242 175.701 106.096C175.106 105.402 173.865 103.958 173.241 103.673C173.208 103.658 173.179 103.636 173.155 103.61C173.13 103.584 173.111 103.553 173.099 103.52C173.087 103.486 173.081 103.45 173.082 103.415C173.084 103.379 173.092 103.344 173.107 103.311C173.122 103.279 173.143 103.249 173.169 103.225C173.196 103.201 173.226 103.182 173.26 103.169C173.293 103.157 173.329 103.151 173.365 103.153C173.401 103.154 173.436 103.162 173.468 103.177C174.143 103.487 175.188 104.663 176.114 105.741C176.238 105.886 176.343 106.008 176.423 106.097C176.447 106.124 176.465 106.155 176.477 106.189C176.488 106.222 176.493 106.258 176.491 106.294C176.489 106.33 176.48 106.364 176.464 106.397C176.449 106.429 176.427 106.458 176.4 106.481C176.35 106.526 176.286 106.55 176.219 106.55Z" fill="#DDE2F8"/>
<path d="M166.864 102.906C166.801 102.906 166.74 102.885 166.691 102.846C166.642 102.806 166.608 102.751 166.596 102.689C166.583 102.628 166.592 102.564 166.621 102.508C166.65 102.452 166.697 102.408 166.755 102.383C168.43 101.679 170.373 99.9274 170.802 99.4974C170.827 99.4714 170.857 99.4506 170.89 99.4363C170.923 99.422 170.959 99.4144 170.995 99.4141C171.031 99.4137 171.067 99.4206 171.101 99.4342C171.134 99.4478 171.164 99.468 171.19 99.4935C171.216 99.519 171.236 99.5494 171.25 99.5828C171.263 99.6162 171.27 99.6521 171.27 99.6882C171.27 99.7243 171.262 99.7601 171.248 99.7933C171.234 99.8265 171.213 99.8566 171.187 99.8817C170.643 100.426 168.693 102.159 166.967 102.885C166.934 102.899 166.899 102.906 166.864 102.906Z" fill="#DDE2F8"/>
<path d="M163.681 105.562C163.627 105.562 163.574 105.546 163.529 105.516C163.484 105.486 163.45 105.443 163.429 105.393C163.202 104.842 161.455 102.763 160.649 102.386C160.584 102.355 160.533 102.3 160.508 102.232C160.484 102.164 160.487 102.089 160.518 102.024C160.548 101.959 160.604 101.908 160.672 101.883C160.74 101.859 160.814 101.862 160.88 101.893C161.837 102.341 163.663 104.534 163.928 105.186C163.945 105.227 163.952 105.272 163.947 105.317C163.943 105.361 163.927 105.404 163.902 105.441C163.878 105.478 163.844 105.508 163.805 105.529C163.765 105.55 163.721 105.562 163.677 105.562H163.681Z" fill="#DDE2F8"/>
<path d="M155.237 102.152C155.173 102.152 155.111 102.13 155.062 102.09C155.013 102.05 154.98 101.993 154.968 101.931C154.956 101.868 154.966 101.804 154.997 101.748C155.028 101.692 155.077 101.649 155.136 101.626C155.71 101.4 158.489 99.5753 159.273 99.0364C159.333 98.9954 159.406 98.9797 159.477 98.9928C159.548 99.0058 159.611 99.0466 159.652 99.1061C159.693 99.1656 159.709 99.2389 159.696 99.3099C159.683 99.381 159.642 99.4439 159.582 99.4849C159.097 99.8213 156.039 101.858 155.337 102.132C155.305 102.145 155.271 102.152 155.237 102.152Z" fill="#DDE2F8"/>
<path d="M133.769 100.191C148.185 94.1823 159.763 103.1 164.405 120.909C150.317 123.729 133.055 117.266 133.769 100.191Z" fill="#CED3F8"/>
<path d="M160.776 118.464C160.717 118.465 160.66 118.445 160.612 118.41C156.269 115.123 150.122 111.213 144.7 107.763C140.219 104.912 135.991 102.22 133.609 100.404C133.551 100.361 133.513 100.296 133.503 100.225C133.493 100.153 133.511 100.081 133.554 100.023C133.598 99.9652 133.662 99.927 133.734 99.9168C133.805 99.9066 133.878 99.9252 133.935 99.9685C136.297 101.77 140.518 104.457 144.988 107.302C150.42 110.757 156.576 114.675 160.937 117.97C160.982 118.005 161.016 118.052 161.032 118.107C161.049 118.161 161.048 118.22 161.03 118.274C161.012 118.328 160.977 118.374 160.931 118.408C160.885 118.441 160.829 118.459 160.773 118.459L160.776 118.464Z" fill="#BBC0E6"/>
<path d="M30.2409 67.8822C31.2206 60.5447 25.7208 56.3328 17.002 56.3872C17.4418 63.1869 22.5181 70.3011 30.2409 67.8822Z" fill="#20196F"/>
<path d="M42.1727 77.3871C37.2738 65.4818 25.3304 63.9175 12.2461 71.5727C18.8138 81.4336 32.6417 87.7401 42.1727 77.3871Z" fill="#423EAF"/>
<path d="M42.1748 77.6595C42.1625 77.6606 42.1501 77.6606 42.1378 77.6595C39.6905 77.3329 35.6539 76.426 31.381 75.4713C26.2121 74.313 20.352 73.0044 15.9071 72.3828C15.8349 72.3729 15.7697 72.3347 15.7257 72.2766C15.6817 72.2185 15.6625 72.1453 15.6725 72.0731C15.6825 72.0009 15.7207 71.9357 15.7788 71.8917C15.8369 71.8477 15.91 71.8286 15.9822 71.8385C20.4456 72.4623 26.3243 73.7741 31.4996 74.9313C35.7616 75.8839 39.7863 76.782 42.2107 77.1086C42.2465 77.111 42.2814 77.1203 42.3135 77.1362C42.3456 77.1521 42.3743 77.1741 42.3979 77.201C42.4215 77.228 42.4396 77.2593 42.4511 77.2932C42.4626 77.3271 42.4673 77.363 42.4649 77.3987C42.4626 77.4345 42.4532 77.4694 42.4373 77.5015C42.4215 77.5336 42.3994 77.5623 42.3725 77.5859C42.3456 77.6095 42.3142 77.6276 42.2803 77.6391C42.2464 77.6506 42.2105 77.6553 42.1748 77.6529V77.6595Z" fill="#362E94"/>
<path d="M51.223 23.75C60.5211 23.7783 64.8713 16.2439 63.3885 5.39453C54.9908 7.04381 46.9556 14.5227 51.223 23.75Z" fill="#5652CC"/>
<path d="M50.6887 25.2431C56.8416 15.9124 52.1311 6.57516 40.2454 0.921875C36.3742 10.4507 38.6015 23.4577 50.6887 25.2431Z" fill="#FCBA06"/>
<path d="M50.6873 25.5165C50.6367 25.5164 50.5871 25.5024 50.5441 25.4758C50.501 25.4493 50.4662 25.4114 50.4434 25.3662C49.4854 23.4459 48.1573 20.1059 46.7584 16.57C45.0634 12.2961 43.1419 7.45271 41.4241 3.96146C41.4064 3.92925 41.3955 3.89381 41.3919 3.85727C41.3883 3.82073 41.3922 3.78384 41.4032 3.74882C41.4143 3.71381 41.4323 3.68139 41.4562 3.65353C41.4801 3.62566 41.5094 3.60292 41.5424 3.58667C41.5753 3.57043 41.6112 3.56102 41.6478 3.559C41.6845 3.55699 41.7212 3.56241 41.7557 3.57495C41.7902 3.58749 41.8218 3.60688 41.8487 3.63196C41.8755 3.65703 41.8969 3.68728 41.9118 3.72087C43.6449 7.23172 45.5707 12.0859 47.27 16.3697C48.6679 19.8936 49.9916 23.2227 50.9366 25.1224C50.9532 25.1547 50.9632 25.19 50.9661 25.2262C50.969 25.2625 50.9646 25.2989 50.9533 25.3335C50.9419 25.368 50.9238 25.4 50.9 25.4275C50.8762 25.4549 50.8472 25.4774 50.8146 25.4936C50.7745 25.5109 50.7309 25.5187 50.6873 25.5165Z" fill="#ED9F00"/>
<path d="M135.325 98.7757C132.888 96.224 128.982 87.9482 134.563 82.6095C137.089 80.1938 137.895 79.7083 139.298 79.8128C140.211 79.8803 140.946 80.4017 141.562 79.8661C142.689 78.8864 139.02 74.6668 142.769 70.714C146.519 66.7611 149.944 68.7653 150.944 67.6865C151.945 66.6076 150.812 64.5948 153.149 63.4484C155.485 62.3021 157.444 66.1025 160.65 65.0433C163.985 63.9427 169.918 63.3406 170.963 66.5053C172.008 69.67 169.391 70.3939 168.655 72.557C167.919 74.7202 170.138 80.9145 165.212 82.5409C160.313 84.1575 158.264 84.04 158.007 90.488C157.75 96.9359 152.203 100.268 149.069 99.8502C145.936 99.4322 146.818 101.039 148.474 101.872C150.13 102.705 147.694 104.19 145.39 104.014C143.085 103.839 138.384 101.979 135.325 98.7757Z" fill="#E9EDF7"/>
<path d="M134.468 100.592C134.428 100.592 134.389 100.583 134.353 100.567C134.321 100.552 134.292 100.53 134.267 100.504C134.243 100.478 134.224 100.447 134.212 100.414C134.2 100.38 134.194 100.344 134.196 100.309C134.197 100.273 134.205 100.238 134.221 100.205C137.562 93.004 142.324 86.4025 148.373 80.5837C153.615 75.5433 159.494 71.4316 165.376 68.6936C165.409 68.6785 165.444 68.6699 165.479 68.6682C165.515 68.6666 165.551 68.6721 165.584 68.6843C165.618 68.6964 165.649 68.7151 165.675 68.7392C165.702 68.7634 165.723 68.7924 165.738 68.8248C165.753 68.8572 165.762 68.8922 165.764 68.928C165.765 68.9637 165.76 68.9994 165.748 69.033C165.735 69.0666 165.717 69.0975 165.693 69.1239C165.668 69.1503 165.639 69.1716 165.607 69.1868C155.495 73.8951 142.068 84.5757 134.711 100.431C134.69 100.478 134.656 100.518 134.613 100.547C134.57 100.575 134.519 100.591 134.468 100.592Z" fill="#CED3F8"/>
<path d="M157.044 74.1033C156.974 74.1034 156.906 74.0764 156.855 74.0279C156.805 73.9794 156.775 73.9132 156.772 73.8431C156.737 73.0473 156.137 69.6573 155.064 67.9645C155.044 67.9343 155.031 67.9006 155.025 67.8653C155.019 67.8301 155.02 67.794 155.028 67.7591C155.036 67.7242 155.051 67.6913 155.071 67.6621C155.092 67.6328 155.118 67.608 155.148 67.5889C155.179 67.5698 155.212 67.5569 155.248 67.5508C155.283 67.5448 155.319 67.5457 155.354 67.5536C155.389 67.5615 155.422 67.5761 155.451 67.5968C155.48 67.6174 155.505 67.6436 155.524 67.6738C156.668 69.4842 157.278 72.9646 157.316 73.8235C157.319 73.8955 157.293 73.9658 157.244 74.0189C157.196 74.0719 157.128 74.1035 157.056 74.1066L157.044 74.1033Z" fill="#CED3F8"/>
<path d="M163.904 74.8174C163.847 74.8169 163.791 74.799 163.745 74.7663C163.034 74.2546 160.345 72.908 159.144 72.6728C159.073 72.6584 159.011 72.6164 158.971 72.556C158.931 72.4957 158.917 72.422 158.931 72.3511C158.946 72.2802 158.988 72.218 159.048 72.1781C159.108 72.1382 159.182 72.1239 159.253 72.1383C160.54 72.3898 163.307 73.7712 164.068 74.3243C164.115 74.3579 164.15 74.4056 164.168 74.4605C164.186 74.5153 164.186 74.5744 164.168 74.6293C164.15 74.6842 164.115 74.732 164.069 74.7658C164.022 74.7996 163.966 74.8177 163.908 74.8174H163.904Z" fill="#CED3F8"/>
<path d="M148.615 81.0048H148.604C148.568 81.0036 148.533 80.9953 148.501 80.9804C148.468 80.9655 148.439 80.9444 148.415 80.9182C148.39 80.892 148.372 80.8612 148.359 80.8277C148.347 80.7942 148.341 80.7586 148.343 80.7229C148.398 79.226 148.256 76.8985 146.383 73.9918C146.363 73.9618 146.349 73.928 146.341 73.8924C146.334 73.8568 146.334 73.8202 146.341 73.7846C146.349 73.749 146.363 73.7152 146.383 73.6852C146.404 73.6552 146.43 73.6296 146.461 73.6099C146.491 73.5902 146.525 73.5768 146.561 73.5705C146.597 73.5642 146.633 73.5652 146.669 73.5733C146.704 73.5814 146.738 73.5965 146.767 73.6177C146.797 73.6389 146.822 73.6658 146.84 73.6968C149.024 77.0836 148.922 79.8378 148.888 80.7436C148.886 80.8141 148.856 80.8809 148.805 80.9297C148.754 80.9785 148.686 81.0055 148.615 81.0048Z" fill="#CED3F8"/>
<path d="M158.161 80.3197C158.119 80.3195 158.077 80.3095 158.039 80.2903C156.5 79.5152 152.878 78.113 151.779 78.1587C151.744 78.1602 151.708 78.1546 151.674 78.1422C151.641 78.1298 151.61 78.111 151.584 78.0867C151.557 78.0625 151.536 78.0333 151.521 78.0008C151.506 77.9683 151.498 77.9332 151.496 77.8975C151.495 77.8617 151.501 77.8261 151.513 77.7925C151.525 77.7589 151.544 77.7281 151.568 77.7018C151.593 77.6756 151.622 77.6543 151.654 77.6393C151.687 77.6243 151.722 77.6159 151.758 77.6144C152.993 77.5665 156.736 79.0297 158.283 79.8037C158.338 79.831 158.382 79.8761 158.408 79.9318C158.434 79.9874 158.441 80.0503 158.427 80.1101C158.413 80.17 158.379 80.2232 158.33 80.2613C158.282 80.2994 158.222 80.3199 158.161 80.3197Z" fill="#CED3F8"/>
<path d="M147.68 89.1146C147.637 89.1147 147.595 89.1051 147.558 89.0863C147.34 88.9774 147.117 88.8577 146.876 88.7303C145.688 88.1033 144.21 87.3151 142.832 87.2672C142.796 87.2658 142.761 87.2573 142.728 87.2423C142.696 87.2273 142.667 87.2061 142.643 87.1798C142.618 87.1535 142.599 87.1227 142.587 87.0891C142.575 87.0556 142.569 87.0199 142.571 86.9841C142.572 86.9484 142.58 86.9133 142.595 86.8808C142.61 86.8484 142.632 86.8192 142.658 86.7949C142.684 86.7706 142.715 86.7518 142.749 86.7394C142.782 86.7271 142.818 86.7214 142.854 86.7229C144.355 86.7817 145.894 87.5938 147.131 88.247C147.368 88.3732 147.592 88.4919 147.803 88.5975C147.857 88.6252 147.901 88.6704 147.926 88.7259C147.952 88.7814 147.958 88.844 147.944 88.9035C147.93 88.963 147.896 89.016 147.848 89.0539C147.8 89.0918 147.741 89.1124 147.68 89.1124V89.1146Z" fill="#CED3F8"/>
<path d="M139.953 91.0936C139.937 91.0952 139.922 91.0952 139.907 91.0936C139.837 91.0806 139.774 91.0404 139.733 90.9817C139.693 90.9229 139.677 90.8505 139.689 90.7801C139.955 89.2266 139.368 86.235 138.383 84.11C138.352 84.0445 138.349 83.9695 138.374 83.9016C138.399 83.8337 138.45 83.7785 138.515 83.748C138.581 83.7176 138.656 83.7144 138.723 83.7392C138.791 83.764 138.847 83.8148 138.877 83.8803C139.903 86.0902 140.51 89.2266 140.226 90.8715C140.214 90.9349 140.18 90.992 140.13 91.0327C140.08 91.0734 140.017 91.095 139.953 91.0936Z" fill="#CED3F8"/>
<path d="M31.2434 52.5999C31.1734 52.6 31.1062 52.5727 31.0562 52.5237C30.9364 52.4148 18.8907 41.0516 0.301118 38.0296C0.229803 38.018 0.165997 37.9786 0.123736 37.92C0.0814756 37.8614 0.0642208 37.7884 0.0757698 37.7171C0.0873188 37.6458 0.126724 37.582 0.185318 37.5398C0.243911 37.4975 0.316893 37.4802 0.388208 37.4918C7.70166 38.6806 14.8671 41.2715 21.6885 45.1917C27.8589 48.7385 31.2891 51.9946 31.4318 52.1307C31.4712 52.1682 31.4984 52.2167 31.51 52.2699C31.5215 52.3231 31.5169 52.3786 31.4966 52.4291C31.4763 52.4796 31.4413 52.5229 31.3962 52.5533C31.3511 52.5838 31.2979 52.6 31.2434 52.5999Z" fill="#FFD03E"/>
<path d="M1.06466 41.0027C0.850255 41.0011 0.641279 40.9351 0.464824 40.8133C0.340184 40.7366 0.234503 40.6328 0.155699 40.5095C0.076894 40.3862 0.027007 40.2466 0.00977372 40.1013C-0.0773171 39.3012 0.826251 38.3595 1.31614 37.8576L1.3869 37.7836C1.4367 37.7314 1.50523 37.701 1.5774 37.6993C1.64957 37.6976 1.71947 37.7246 1.77173 37.7744C1.82399 37.8242 1.85432 37.8927 1.85606 37.9649C1.85779 38.037 1.83079 38.1069 1.78098 38.1592L1.70805 38.2354C1.34444 38.6121 0.494217 39.495 0.554092 40.0425C0.562487 40.109 0.58662 40.1725 0.624487 40.2278C0.662354 40.2831 0.712862 40.3286 0.771819 40.3604C0.857886 40.4226 0.960826 40.4572 1.06698 40.4595C1.17314 40.4618 1.2775 40.4318 1.36621 40.3735C1.92795 40.0654 2.42219 39.0247 2.40368 38.1897C2.4021 38.1175 2.42925 38.0476 2.47916 37.9955C2.52908 37.9433 2.59767 37.9131 2.66986 37.9115C2.74204 37.9099 2.81189 37.9371 2.86405 37.987C2.91622 38.0369 2.94641 38.1055 2.948 38.1777C2.97086 39.2206 2.36667 40.4453 1.62857 40.8503C1.45679 40.9486 1.26259 41.0011 1.06466 41.0027Z" fill="#FFD03E"/>
<path d="M6.33201 39.3288C6.28505 39.329 6.23885 39.3169 6.19796 39.2938C6.15706 39.2707 6.12286 39.2374 6.09871 39.1971C6.07457 39.1569 6.0613 39.111 6.06021 39.064C6.05912 39.0171 6.07025 38.9707 6.09251 38.9293C6.33092 38.4819 6.60308 36.8805 6.19484 36.2175C6.14974 36.1344 6.0818 36.066 5.99904 36.0203C5.91628 35.9745 5.82217 35.9535 5.72782 35.9595C5.44586 35.966 5.34026 36.0989 5.28583 36.1979C4.97122 36.7662 5.38381 38.1575 5.70496 38.6898C5.72333 38.7205 5.73548 38.7545 5.74071 38.7898C5.74595 38.8252 5.74418 38.8612 5.73548 38.8959C5.72679 38.9306 5.71135 38.9632 5.69005 38.9919C5.66875 39.0206 5.642 39.0448 5.61134 39.0632C5.58067 39.0816 5.54669 39.0937 5.51133 39.099C5.47596 39.1042 5.43992 39.1024 5.40524 39.0937C5.37057 39.085 5.33795 39.0696 5.30924 39.0483C5.28053 39.027 5.2563 39.0003 5.23793 38.9696C4.91134 38.4307 4.33436 36.7923 4.80901 35.9345C4.89734 35.7725 5.02886 35.6382 5.18896 35.5465C5.34906 35.4549 5.53145 35.4094 5.71584 35.4152C5.90535 35.4063 6.09364 35.4499 6.25998 35.5411C6.42632 35.6323 6.56425 35.7677 6.6586 35.9323C7.20292 36.8108 6.86109 38.6452 6.5726 39.1851C6.5493 39.2287 6.5146 39.265 6.47222 39.2903C6.42984 39.3157 6.38138 39.329 6.33201 39.3288Z" fill="#FFD03E"/>
<path d="M7.62836 43.6489C7.40935 43.6422 7.19436 43.5883 6.99804 43.491C6.494 43.257 6.1783 42.8738 6.08467 42.3806C5.85824 41.1831 6.97409 39.7015 7.4237 39.2323C7.44843 39.2065 7.478 39.1858 7.51073 39.1714C7.54345 39.157 7.57869 39.1493 7.61442 39.1485C7.65016 39.1477 7.68569 39.154 7.719 39.167C7.7523 39.18 7.78273 39.1994 7.80853 39.2241C7.83433 39.2489 7.85501 39.2784 7.86939 39.3111C7.88377 39.3439 7.89156 39.3791 7.89231 39.4148C7.89307 39.4506 7.88678 39.4861 7.87381 39.5194C7.86083 39.5527 7.84143 39.5831 7.81669 39.6089C7.22665 40.2251 6.46461 41.4596 6.61919 42.2794C6.67907 42.606 6.87829 42.8357 7.22556 42.9968C7.48357 43.1165 7.68279 43.1361 7.81778 43.0545C8.23364 42.8052 8.30005 41.6229 8.34795 40.7607C8.36972 40.3797 8.3904 40.0205 8.43286 39.7146C8.44468 39.6447 8.48325 39.5823 8.54036 39.5404C8.59748 39.4986 8.66865 39.4807 8.73877 39.4904C8.8089 39.5002 8.87245 39.5369 8.91595 39.5928C8.95945 39.6487 8.97946 39.7193 8.97174 39.7897C8.93255 40.0738 8.91295 40.4222 8.89227 40.7912C8.82695 41.9375 8.76054 43.1242 8.09756 43.5215C7.95587 43.6063 7.7935 43.6504 7.62836 43.6489Z" fill="#FFD03E"/>
<path d="M13.1578 41.6207C13.0933 41.6205 13.031 41.5974 12.982 41.5556C12.9329 41.5137 12.9003 41.4558 12.89 41.3921C12.6962 40.2022 13.1556 39.1397 13.5247 38.2862C14.0178 37.1475 14.1332 36.7208 13.504 36.4029C13.4084 36.3429 13.296 36.3153 13.1835 36.3241C13.0709 36.3329 12.9642 36.3777 12.8791 36.4519C12.0224 37.1301 11.723 39.905 11.9146 40.703C11.9298 40.7725 11.9171 40.8452 11.8793 40.9055C11.8415 40.9659 11.7816 41.009 11.7124 41.0256C11.6432 41.0423 11.5702 41.0312 11.5091 40.9947C11.448 40.9582 11.4037 40.8992 11.3855 40.8304C11.1678 39.9094 11.4606 36.8808 12.5406 36.0251C12.7067 35.8861 12.9114 35.8011 13.1272 35.7816C13.343 35.7622 13.5595 35.8092 13.7479 35.9163C14.8898 36.4889 14.4544 37.5144 14.0244 38.5029C13.6651 39.3313 13.2623 40.2719 13.4267 41.305C13.4326 41.3403 13.4315 41.3763 13.4234 41.4112C13.4153 41.446 13.4004 41.4789 13.3796 41.5079C13.3587 41.5369 13.3324 41.5616 13.302 41.5804C13.2716 41.5992 13.2377 41.6118 13.2025 41.6175C13.1877 41.6196 13.1728 41.6207 13.1578 41.6207Z" fill="#FFD03E"/>
<path d="M12.6417 48.1678C12.5136 48.1703 12.3884 48.1292 12.2868 48.0513C12.0135 47.8401 11.7065 47.4068 11.7947 46.5425C11.9591 44.916 13.5115 42.3904 14.7079 41.8014C14.74 41.7856 14.7749 41.7763 14.8106 41.774C14.8463 41.7717 14.8821 41.7764 14.916 41.788C14.9498 41.7995 14.9811 41.8176 15.008 41.8412C15.0348 41.8648 15.0568 41.8934 15.0726 41.9255C15.0884 41.9576 15.0977 41.9925 15.1 42.0282C15.1023 42.0639 15.0976 42.0997 15.0861 42.1336C15.0745 42.1675 15.0565 42.1987 15.0329 42.2256C15.0093 42.2525 14.9806 42.2744 14.9485 42.2902C14.0025 42.7551 12.4914 45.0619 12.3358 46.5969C12.2857 47.0922 12.3815 47.4362 12.6199 47.6213C12.6558 47.6343 12.9019 47.6213 13.3972 47.2294C14.4934 46.3748 15.9979 44.3173 15.7475 42.6147C15.737 42.5432 15.7553 42.4705 15.7984 42.4125C15.8414 42.3545 15.9058 42.316 15.9773 42.3055C16.0487 42.2949 16.1214 42.3132 16.1794 42.3563C16.2374 42.3994 16.2759 42.4637 16.2864 42.5352C16.613 44.7223 14.4989 47.2512 13.3253 47.937C13.1212 48.0717 12.8857 48.1512 12.6417 48.1678Z" fill="#FFD03E"/>
<path d="M19.9195 44.7867C19.8613 44.787 19.8046 44.7687 19.7576 44.7343C19.7106 44.7 19.6758 44.6515 19.6584 44.596C19.641 44.5404 19.6418 44.4808 19.6608 44.4258C19.6798 44.3707 19.7159 44.3232 19.7639 44.2903C22.3624 42.4929 22.6085 38.6152 22.4169 37.8847C21.8726 38.0546 19.9783 39.644 19.4514 40.4017C18.8647 41.2432 18.4412 41.8506 18.4804 43.6186C18.482 43.6908 18.4548 43.7606 18.4049 43.8128C18.355 43.8649 18.2864 43.8951 18.2142 43.8967C18.1785 43.8975 18.1429 43.8913 18.1096 43.8783C18.0763 43.8654 18.0458 43.846 18.02 43.8213C17.9678 43.7713 17.9376 43.7027 17.936 43.6306C17.8936 41.6852 18.4085 40.946 19.0051 40.0903C19.5298 39.3359 21.682 37.4036 22.4376 37.3284C22.4999 37.3196 22.5634 37.3247 22.6235 37.3436C22.6836 37.3624 22.7387 37.3944 22.7848 37.4373C23.0624 37.704 23.0178 38.6784 22.9862 39.0855C22.9144 39.9891 22.4931 43.0677 20.0741 44.741C20.0284 44.7714 19.9745 44.7873 19.9195 44.7867Z" fill="#FFD03E"/>
<path d="M18.1879 52.8797C18.0566 52.8813 17.93 52.8313 17.8352 52.7404C17.452 52.3735 17.2909 51.8444 17.3497 51.1684C17.5489 48.9759 20.2269 45.526 21.0423 44.9893C21.0721 44.9677 21.1059 44.9524 21.1417 44.9443C21.1776 44.9361 21.2147 44.9353 21.2508 44.9419C21.287 44.9485 21.3214 44.9624 21.3521 44.9826C21.3828 45.0029 21.409 45.0291 21.4292 45.0598C21.4495 45.0905 21.4633 45.125 21.4698 45.1611C21.4764 45.1973 21.4755 45.2344 21.4674 45.2702C21.4592 45.3061 21.4438 45.3399 21.4222 45.3696C21.4006 45.3993 21.3732 45.4244 21.3417 45.4432C20.7125 45.858 18.0823 49.1217 17.8918 51.213C17.8461 51.7073 17.9506 52.0839 18.1999 52.331C18.5123 52.3104 19.5868 51.0737 20.3369 49.7412C20.9596 48.6351 22.2964 45.9124 22.3106 45.8852C22.3423 45.8204 22.3986 45.7709 22.4668 45.7475C22.5351 45.7241 22.6099 45.7288 22.6747 45.7606C22.7396 45.7923 22.7891 45.8485 22.8125 45.9168C22.8359 45.9851 22.8311 46.0599 22.7994 46.1247C22.7852 46.1519 21.4408 48.8888 20.8115 50.0079C20.4153 50.7112 19.1002 52.7458 18.275 52.8688C18.2463 52.8746 18.2172 52.8782 18.1879 52.8797Z" fill="#FFD03E"/>
<path d="M24.6613 47.5933C24.5913 47.5934 24.524 47.566 24.474 47.5171C24.4482 47.4924 24.4274 47.463 24.4129 47.4303C24.3985 47.3976 24.3906 47.3624 24.3898 47.3267C24.389 47.291 24.3952 47.2555 24.4082 47.2222C24.4212 47.1889 24.4406 47.1585 24.4653 47.1328C24.4817 47.1153 26.1636 45.3528 26.7939 44.225C27.3382 43.2452 27.826 41.1442 27.8368 40.4856C27.3622 40.7261 26.132 41.7244 25.1915 42.7075C24.2052 43.7384 24.0136 45.5869 23.8992 46.6908C23.8919 46.763 23.8561 46.8293 23.7999 46.8751C23.7437 46.9209 23.6715 46.9425 23.5993 46.9352C23.5271 46.9278 23.4608 46.8921 23.415 46.8358C23.3692 46.7796 23.3476 46.7074 23.3549 46.6353C23.4758 45.4617 23.6815 43.4967 24.7941 42.3319C25.3747 41.7329 25.9928 41.1714 26.6448 40.651C27.6921 39.8226 28.023 39.7801 28.2396 39.988C28.33 40.074 28.5423 40.2776 28.1427 41.9813C27.9032 43.0014 27.5767 43.9409 27.2718 44.4852C26.6078 45.6729 24.9324 47.4245 24.8616 47.5029C24.8364 47.5312 24.8056 47.5538 24.7711 47.5694C24.7365 47.5849 24.6991 47.5931 24.6613 47.5933Z" fill="#FFD03E"/>
<path d="M23.9864 54.2664C23.8438 54.2672 23.7066 54.2121 23.6043 54.1129C23.3474 53.868 23.2341 53.5185 23.2646 53.0743C23.3811 51.4261 25.5584 48.7046 26.1996 48.2473C26.2583 48.209 26.3295 48.1949 26.3985 48.2078C26.4674 48.2207 26.5286 48.2598 26.5695 48.3167C26.6103 48.3737 26.6276 48.4443 26.6177 48.5137C26.6078 48.5831 26.5715 48.646 26.5164 48.6893C26.0221 49.0431 23.9102 51.6722 23.8078 53.1135C23.7883 53.3922 23.8449 53.5914 23.9809 53.721C23.9809 53.721 24.2096 53.7656 24.927 52.935C25.3864 52.4037 25.861 51.731 26.2083 51.24L26.3465 51.0451C26.954 50.1905 27.0324 49.4851 27.0248 49.1411C27.0239 49.1054 27.0301 49.0699 27.043 49.0366C27.0559 49.0033 27.0752 48.9729 27.0999 48.9471C27.1246 48.9213 27.1541 48.9006 27.1868 48.8863C27.2195 48.872 27.2547 48.8642 27.2904 48.8635C27.3263 48.862 27.3621 48.8678 27.3957 48.8805C27.4293 48.8931 27.4601 48.9124 27.4861 48.9372C27.5121 48.962 27.5328 48.9918 27.5471 49.0247C27.5613 49.0577 27.5688 49.0932 27.5691 49.1291C27.58 49.6321 27.4537 50.4268 26.7907 51.3608L26.6524 51.5546C25.6727 52.9448 24.731 54.1989 24.0473 54.2642C24.0271 54.266 24.0067 54.2667 23.9864 54.2664Z" fill="#FFD03E"/>
<path d="M30.1152 51.5954H30.0891C30.0174 51.5885 29.9513 51.5535 29.9054 51.498C29.8595 51.4425 29.8375 51.371 29.8441 51.2993C29.9008 50.6907 30.3808 49.8841 30.7673 49.2439C30.8696 49.073 30.9687 48.9076 31.0482 48.7649C30.7953 48.7528 30.5443 48.8129 30.3242 48.938C29.7266 49.2472 29.2465 49.8558 29.1812 50.3837C29.1722 50.4559 29.135 50.5216 29.0776 50.5663C29.0202 50.611 28.9474 50.6311 28.8753 50.6222C28.8031 50.6132 28.7374 50.576 28.6927 50.5186C28.648 50.4612 28.6279 50.3884 28.6369 50.3163C28.7239 49.613 29.3129 48.8477 30.0684 48.4547C30.6127 48.1716 31.144 48.1379 31.5587 48.36C31.6183 48.3918 31.6638 48.4447 31.6866 48.5083C31.7093 48.5718 31.7076 48.6416 31.6818 48.704C31.549 48.9867 31.398 49.2605 31.23 49.5237C30.8718 50.1214 30.4266 50.8649 30.3819 51.3494C30.3753 51.4159 30.3445 51.4777 30.2953 51.523C30.2462 51.5684 30.1821 51.5941 30.1152 51.5954Z" fill="#FFD03E"/>
<path d="M41.1611 79.301C42.5579 80.0054 45.4362 94.4483 42.7092 95.1799C40.5863 95.7492 39.9342 93.5088 39.7622 92.676C39.4901 91.3697 39.0416 88.1723 38.1032 88.5261C36.406 89.1684 38.5724 97.1013 38.9806 99.0663C39.3888 101.031 39.6479 104.958 38.0596 106.51C36.4713 108.063 35.6494 108.509 35.1203 105.031C34.5912 101.553 34.4203 94.5735 32.758 96.5341C31.0956 98.4948 32.4934 103.881 32.1614 107.262C31.8293 110.642 30.0494 116.963 28.1051 115.317C26.3633 113.846 28.7583 104.105 27.0426 104.462C25.6698 104.747 26.0302 107.628 25.1919 112.02C24.3537 116.412 23.5176 120.549 20.8613 120.294C18.7298 120.086 19.8598 117.387 20.2822 115.014C20.7046 112.641 21.1662 109.311 19.9404 109.921C18.7146 110.531 17.7718 122.332 14.2533 122.767C11.9247 123.053 12.9263 120.598 13.2627 117.809C13.5991 115.02 13.5087 114.013 12.9361 114.132C12.3634 114.251 11.3031 117.942 10.7686 119.982C10.2341 122.022 8.77966 124.772 6.85931 124.337C4.93896 123.901 6.12883 120.725 6.8408 119.656C7.55277 118.587 7.77485 117.254 7.45261 117.043C7.13038 116.832 4.52963 120.213 3.00009 118.6C1.47056 116.986 4.27271 113.999 6.4478 113.547C8.6229 113.096 11.5437 112.409 11.3793 111.616C11.2149 110.824 8.69584 111.345 6.71234 111.758C4.72885 112.17 3.84596 111.881 3.73601 111.352C3.37023 109.588 5.64221 107.565 7.09228 107.264C8.54234 106.962 16.89 106.332 16.644 105.161C16.3979 103.989 13.2942 104.556 11.6929 104.889C10.0915 105.223 6.352 105.999 5.94268 104.034C5.53335 102.069 10.3506 99.9644 13.4423 99.5192C16.534 99.0739 21.5962 98.7321 21.4078 97.8253C21.2195 96.9184 17.1143 96.5091 15.1689 96.9141C13.2235 97.3191 9.95648 99.0217 9.45353 96.6038C8.95058 94.186 11.8191 93.0766 15.6392 92.283C17.2351 91.9564 21.1912 91.1704 23.6167 92.0653C26.3742 93.0864 27.9146 93.143 28.1835 92.5127C28.7191 91.2586 26.1717 90.6849 24.2644 90.6871C22.3571 90.6893 16.4262 91.055 16.9248 88.1125C17.4234 85.1699 22.2755 86.0941 24.2622 86.2727C26.249 86.4512 33.1891 87.6879 33.4743 86.1714C33.7595 84.655 29.9231 84.9739 28.7235 84.9522C27.5238 84.9304 25.0602 84.0812 25.6807 83.1396C26.3013 82.1979 38.6693 78.0448 41.1611 79.301Z" fill="#FCBA06"/>
<path d="M86.3055 25.3005C86.266 25.3007 86.2269 25.2921 86.1912 25.2755C86.1587 25.2606 86.1296 25.2394 86.1053 25.2133C86.0811 25.1871 86.0623 25.1564 86.0499 25.1229C86.0376 25.0894 86.032 25.0538 86.0334 25.0182C86.0349 24.9825 86.0433 24.9475 86.0583 24.9151C88.1681 20.3429 93.1073 9.64593 105.303 1.98846C105.333 1.96792 105.368 1.95367 105.403 1.94658C105.439 1.93949 105.476 1.93969 105.512 1.94718C105.548 1.95466 105.582 1.96928 105.612 1.99016C105.642 2.01104 105.667 2.03774 105.687 2.06869C105.706 2.09963 105.719 2.13417 105.725 2.17026C105.731 2.20635 105.729 2.24324 105.72 2.27873C105.712 2.31422 105.696 2.34758 105.674 2.37683C105.652 2.40608 105.624 2.43061 105.593 2.44895C93.5329 10.0204 88.6417 20.6172 86.5526 25.1427C86.531 25.19 86.4962 25.2301 86.4523 25.2581C86.4085 25.2861 86.3575 25.3008 86.3055 25.3005Z" fill="#DDE2F8"/>
<path d="M103.671 8.61911C103.619 8.61901 103.569 8.60389 103.525 8.57556C101.557 7.3171 99.677 7.16034 99.1708 7.20932C99.1351 7.21254 99.099 7.20869 99.0648 7.19798C99.0305 7.18728 98.9987 7.16993 98.9712 7.14693C98.9436 7.12393 98.9209 7.09573 98.9042 7.06395C98.8876 7.03216 98.8774 6.9974 98.8741 6.96166C98.8709 6.92592 98.8748 6.8899 98.8855 6.85565C98.8962 6.8214 98.9135 6.78959 98.9365 6.76204C98.9595 6.7345 98.9877 6.71175 99.0195 6.6951C99.0513 6.67845 99.0861 6.66822 99.1218 6.66501C99.714 6.61166 101.712 6.76734 103.818 8.11507C103.868 8.14672 103.906 8.19369 103.927 8.24892C103.948 8.30415 103.95 8.36463 103.933 8.42126C103.917 8.47789 103.882 8.5276 103.835 8.56289C103.788 8.59818 103.73 8.61715 103.671 8.61693V8.61911Z" fill="#DDE2F8"/>
<path d="M100.379 6.15449C100.366 6.15557 100.352 6.15557 100.338 6.15449C100.267 6.14349 100.203 6.10463 100.16 6.04646C100.117 5.98828 100.1 5.91554 100.111 5.84423C100.336 4.37566 100.501 2.32358 100.328 1.28611C100.32 1.21633 100.338 1.1459 100.38 1.08959C100.423 1.03329 100.485 0.995471 100.554 0.98407C100.624 0.97267 100.695 0.988569 100.753 1.02844C100.811 1.06831 100.851 1.12905 100.865 1.19793C101.072 2.4564 100.825 4.76213 100.647 5.92588C100.637 5.98944 100.604 6.04724 100.555 6.08907C100.506 6.1309 100.444 6.15407 100.379 6.15449Z" fill="#DDE2F8"/>
<path d="M95.3724 10.9784H95.3288C95.2577 10.9669 95.194 10.9277 95.1518 10.8693C95.1096 10.8109 95.0922 10.7382 95.1035 10.667C95.282 9.54248 95.2722 7.01793 94.9456 6.3125C94.9179 6.24752 94.9166 6.17433 94.9418 6.10837C94.9671 6.04241 95.017 5.98887 95.0811 5.95904C95.1451 5.92922 95.2182 5.92546 95.285 5.94855C95.3517 5.97164 95.4069 6.01978 95.4388 6.0828C95.8459 6.9537 95.8122 9.67529 95.6413 10.7498C95.6307 10.8135 95.5979 10.8715 95.5487 10.9133C95.4995 10.9552 95.437 10.9782 95.3724 10.9784Z" fill="#DDE2F8"/>
<path d="M98.8587 13.1897C98.8118 13.1899 98.7656 13.1779 98.7248 13.1548C96.6346 11.9791 94.9951 12.5583 94.0153 12.9044C93.913 12.9404 93.8183 12.9741 93.7334 13.0013C93.699 13.014 93.6625 13.0196 93.6259 13.0178C93.5894 13.016 93.5536 13.0068 93.5206 12.9909C93.4877 12.9749 93.4583 12.9525 93.4343 12.9249C93.4102 12.8973 93.392 12.8652 93.3806 12.8304C93.3693 12.7956 93.365 12.7588 93.3682 12.7224C93.3714 12.6859 93.3819 12.6505 93.399 12.6182C93.4162 12.5859 93.4397 12.5573 93.4682 12.5343C93.4967 12.5113 93.5295 12.4943 93.5646 12.4842C93.6452 12.4581 93.7356 12.4265 93.8336 12.3917C94.8307 12.039 96.6869 11.3836 98.9926 12.6802C99.0451 12.7097 99.0864 12.7558 99.1099 12.8112C99.1335 12.8667 99.1379 12.9284 99.1226 12.9867C99.1073 13.045 99.0731 13.0965 99.0253 13.1332C98.9775 13.17 98.9189 13.1898 98.8587 13.1897Z" fill="#DDE2F8"/>
<path d="M91.0371 16.6048H91.0045C90.9328 16.5958 90.8676 16.5588 90.8232 16.5019C90.7787 16.445 90.7585 16.3728 90.7672 16.3011C90.7791 16.1998 90.7922 16.0953 90.8064 15.9865C90.9686 14.716 91.1906 12.9764 90.1401 12.1969C90.1115 12.1755 90.0874 12.1486 90.0692 12.1179C90.051 12.0871 90.039 12.0531 90.034 12.0177C90.0289 11.9823 90.0309 11.9463 90.0398 11.9116C90.0486 11.877 90.0642 11.8445 90.0857 11.8159C90.1071 11.7873 90.134 11.7632 90.1647 11.745C90.1955 11.7268 90.2295 11.7148 90.2649 11.7098C90.3003 11.7047 90.3363 11.7067 90.371 11.7155C90.4056 11.7244 90.4381 11.74 90.4667 11.7615C91.7731 12.7303 91.5281 14.6529 91.3485 16.0572C91.3354 16.1661 91.3213 16.2673 91.3093 16.3675C91.3008 16.4335 91.2684 16.4941 91.2183 16.5378C91.1681 16.5815 91.1037 16.6054 91.0371 16.6048Z" fill="#DDE2F8"/>
<path d="M89.9529 18.315C89.8914 18.3153 89.8317 18.2947 89.7834 18.2566C89.7351 18.2186 89.7011 18.1653 89.687 18.1054C89.6728 18.0456 89.6794 17.9827 89.7055 17.9271C89.7317 17.8715 89.7759 17.8263 89.831 17.799C90.9447 17.2471 92.3349 16.5601 94.6754 17.3363C94.711 17.3461 94.7443 17.363 94.7732 17.3861C94.802 17.4091 94.8259 17.4378 94.8433 17.4703C94.8608 17.5029 94.8714 17.5387 94.8745 17.5755C94.8777 17.6122 94.8734 17.6493 94.8618 17.6844C94.8501 17.7194 94.8315 17.7517 94.807 17.7794C94.7825 17.807 94.7526 17.8294 94.7192 17.8451C94.6858 17.8608 94.6495 17.8695 94.6126 17.8708C94.5757 17.872 94.5389 17.8658 94.5045 17.8523C92.3719 17.1469 91.1515 17.7533 90.0738 18.2878C90.0361 18.3062 89.9948 18.3155 89.9529 18.315Z" fill="#DDE2F8"/>
<path d="M88.5849 20.6961C88.5155 20.6956 88.449 20.6688 88.3986 20.6211C88.3483 20.5734 88.318 20.5084 88.3138 20.4391C88.218 18.7452 87.6737 17.2505 86.9585 16.7204C86.9007 16.677 86.8626 16.6126 86.8523 16.5411C86.8421 16.4697 86.8607 16.3971 86.904 16.3393C86.9473 16.2816 87.0118 16.2434 87.0833 16.2332C87.1547 16.223 87.2273 16.2416 87.2851 16.2849C88.3171 17.0469 88.7754 18.9183 88.8592 20.4108C88.8634 20.4829 88.8388 20.5536 88.7908 20.6075C88.7428 20.6614 88.6754 20.694 88.6034 20.6982L88.5849 20.6961Z" fill="#DDE2F8"/>
<path d="M86.7013 24.4359C86.6436 24.4357 86.5874 24.4173 86.5409 24.3832C86.4944 24.349 86.4599 24.301 86.4424 24.246C86.425 24.191 86.4255 24.1319 86.4438 24.0772C86.4622 24.0224 86.4974 23.975 86.5445 23.9416C87.4154 23.3298 89.6689 22.0039 91.7994 22.89C91.8661 22.9177 91.919 22.9708 91.9466 23.0376C91.9741 23.1043 91.9741 23.1793 91.9463 23.246C91.9186 23.3127 91.8655 23.3656 91.7988 23.3932C91.732 23.4208 91.6571 23.4207 91.5904 23.393C89.7103 22.6113 87.6538 23.8284 86.857 24.3869C86.8116 24.4193 86.7571 24.4364 86.7013 24.4359Z" fill="#DDE2F8"/>
<path d="M107.643 2.0197C107.742 1.76958 107.765 1.49559 107.709 1.23239C107.653 0.969188 107.52 0.728595 107.327 0.541039C107.134 0.353482 106.889 0.227386 106.625 0.178699C106.36 0.130012 106.087 0.160921 105.839 0.267516C105.592 0.374111 105.382 0.551604 105.236 0.777548C105.09 1.00349 105.014 1.26774 105.018 1.53686C105.022 1.80599 105.105 2.06791 105.258 2.2895C105.411 2.51109 105.626 2.68239 105.876 2.78174C106.211 2.91494 106.586 2.90948 106.917 2.76658C107.249 2.62367 107.51 2.35502 107.643 2.0197Z" fill="#FCBA06"/>
<path d="M101.616 1.43329C101.692 1.24176 101.709 1.03203 101.666 0.830621C101.623 0.629213 101.52 0.445166 101.373 0.301745C101.225 0.158324 101.038 0.061968 100.835 0.0248568C100.632 -0.0122545 100.423 0.0115445 100.234 0.093247C100.045 0.17495 99.8843 0.310888 99.7725 0.483876C99.6606 0.656864 99.6025 0.859137 99.6056 1.06513C99.6086 1.27111 99.6727 1.47157 99.7897 1.64116C99.9066 1.81074 100.071 1.94184 100.263 2.01789C100.52 2.11964 100.807 2.11523 101.06 2.00561C101.314 1.896 101.514 1.69015 101.616 1.43329Z" fill="#FCBA06"/>
<path d="M105.174 9.04657C105.25 8.85504 105.268 8.64531 105.224 8.4439C105.181 8.2425 105.079 8.05845 104.931 7.91503C104.783 7.77161 104.596 7.67525 104.394 7.63814C104.191 7.60103 103.982 7.62483 103.793 7.70653C103.604 7.78823 103.443 7.92417 103.331 8.09716C103.219 8.27015 103.161 8.47242 103.164 8.67841C103.167 8.8844 103.231 9.08485 103.348 9.25444C103.465 9.42403 103.63 9.55513 103.821 9.63117C103.949 9.6817 104.085 9.70666 104.221 9.70463C104.358 9.70259 104.493 9.6736 104.619 9.61931C104.745 9.56502 104.858 9.48649 104.954 9.38822C105.049 9.28994 105.124 9.17385 105.174 9.04657Z" fill="#FCBA06"/>
<path d="M95.8288 6.04657C95.9047 5.85504 95.922 5.64531 95.8787 5.4439C95.8354 5.2425 95.7334 5.05845 95.5855 4.91503C95.4376 4.77161 95.2505 4.67525 95.0479 4.63814C94.8452 4.60103 94.6361 4.62483 94.447 4.70653C94.2579 4.78823 94.0972 4.92417 93.9854 5.09716C93.8735 5.27015 93.8154 5.47242 93.8185 5.67841C93.8215 5.8844 93.8856 6.08485 94.0026 6.25444C94.1195 6.42402 94.2842 6.55513 94.4756 6.63117C94.6029 6.6817 94.7388 6.70666 94.8757 6.70463C95.0126 6.70259 95.1477 6.6736 95.2734 6.61931C95.399 6.56502 95.5128 6.48649 95.6081 6.38821C95.7034 6.28994 95.7784 6.17385 95.8288 6.04657Z" fill="#FCBA06"/>
<path d="M95.9362 17.8708C96.0121 17.6793 96.0295 17.4695 95.9862 17.2681C95.9429 17.0667 95.8408 16.8827 95.6929 16.7392C95.545 16.5958 95.3579 16.4995 95.1553 16.4624C94.9526 16.4252 94.7435 16.449 94.5544 16.5307C94.3653 16.6125 94.2047 16.7484 94.0928 16.9214C93.9809 17.0944 93.9228 17.2966 93.9259 17.5026C93.929 17.7086 93.993 17.9091 94.11 18.0787C94.227 18.2482 94.3916 18.3793 94.5831 18.4554C94.7103 18.5059 94.8462 18.5309 94.9831 18.5288C95.12 18.5268 95.2551 18.4978 95.3808 18.4435C95.5065 18.3892 95.6202 18.3107 95.7155 18.2124C95.8108 18.1142 95.8858 17.9981 95.9362 17.8708Z" fill="#FCBA06"/>
<path d="M87.7077 16.4763C87.7836 16.2847 87.8009 16.075 87.7576 15.8736C87.7143 15.6722 87.6123 15.4881 87.4644 15.3447C87.3165 15.2013 87.1294 15.1049 86.9268 15.0678C86.7241 15.0307 86.515 15.0545 86.3259 15.1362C86.1368 15.2179 85.9761 15.3539 85.8643 15.5268C85.7524 15.6998 85.6943 15.9021 85.6974 16.1081C85.7004 16.3141 85.7645 16.5145 85.8815 16.6841C85.9984 16.8537 86.1631 16.9848 86.3545 17.0609C86.6115 17.1623 86.8983 17.1577 87.1519 17.0482C87.4056 16.9386 87.6054 16.7329 87.7077 16.4763Z" fill="#FCBA06"/>
<path d="M100.021 13.5206C100.106 13.3057 100.127 13.0703 100.078 12.844C100.03 12.6177 99.9162 12.4108 99.7505 12.2495C99.5847 12.0881 99.3748 11.9795 99.1474 11.9374C98.9199 11.8954 98.6851 11.9218 98.4726 12.0132C98.2601 12.1047 98.0795 12.2571 97.9537 12.4512C97.8279 12.6453 97.7625 12.8724 97.7657 13.1037C97.769 13.335 97.8408 13.5601 97.9721 13.7506C98.1034 13.9411 98.2882 14.0884 98.5032 14.1738C98.7911 14.2878 99.1124 14.2831 99.3969 14.1607C99.6813 14.0383 99.9057 13.8081 100.021 13.5206Z" fill="#FCBA06"/>
<path d="M91.2043 12.0557C91.2901 11.8409 91.3102 11.6054 91.262 11.3792C91.2139 11.1529 91.0998 10.946 90.9341 10.7846C90.7683 10.6232 90.5584 10.5147 90.331 10.4726C90.1035 10.4306 89.8686 10.4569 89.6562 10.5484C89.4437 10.6398 89.2631 10.7923 89.1373 10.9864C89.0115 11.1805 88.9461 11.4076 88.9493 11.6389C88.9526 11.8702 89.0244 12.0953 89.1557 12.2858C89.287 12.4763 89.4718 12.6235 89.6868 12.7089C89.9746 12.8233 90.2961 12.8187 90.5807 12.6963C90.8652 12.5738 91.0895 12.3434 91.2043 12.0557Z" fill="#FCBA06"/>
<path d="M93.2942 23.8604C93.3799 23.6456 93.4 23.4101 93.3519 23.1839C93.3038 22.9576 93.1896 22.7507 93.0239 22.5893C92.8582 22.4279 92.6483 22.3193 92.4208 22.2773C92.1933 22.2352 91.9585 22.2616 91.746 22.3531C91.5335 22.4445 91.353 22.5969 91.2271 22.7911C91.1013 22.9852 91.0359 23.2123 91.0392 23.4436C91.0425 23.6749 91.1143 23.9 91.2455 24.0905C91.3768 24.2809 91.5616 24.4282 91.7766 24.5136C91.9191 24.5704 92.0714 24.5985 92.2249 24.5964C92.3783 24.5943 92.5298 24.562 92.6707 24.5014C92.8116 24.4407 92.9392 24.3529 93.0462 24.2429C93.1532 24.1329 93.2374 24.003 93.2942 23.8604Z" fill="#FCBA06"/>
<g style="mix-blend-mode:multiply">
<path d="M100.656 143.684C100.656 141.902 112.849 140.457 127.891 140.457C142.932 140.457 155.125 141.902 155.125 143.684C155.125 145.466 142.932 146.912 127.891 146.912C112.849 146.912 100.656 145.467 100.656 143.684Z" fill="#E7EEFF"/>
</g>
<g style="mix-blend-mode:multiply">
<path d="M22.5 133.435C22.5 131.653 46.192 130.207 75.4164 130.207C104.641 130.207 128.333 131.653 128.333 133.435C128.333 135.217 104.642 136.663 75.4164 136.663C46.1909 136.663 22.5 135.217 22.5 133.435Z" fill="#DFE4F4"/>
</g>
<path d="M31.9379 21.5195C27.8904 21.5195 24.2326 26.2007 29.1216 45.8048C32.1132 57.7962 26.4817 68.6814 21.2051 73.9613H39.6803V32.2546C39.6803 23.5433 37.2167 21.5195 31.9379 21.5195Z" fill="#CED3F8"/>
<path d="M109.093 120.775C108.722 118.131 108.597 115.283 108.597 111.979V32.2546C108.597 23.5455 106.133 21.5195 100.855 21.5195H31.9375C37.2163 21.5195 39.6799 23.5433 39.6799 32.2546V111.979C39.6799 115.283 39.8051 118.131 40.1763 120.775C40.7936 125.172 42.0934 129.005 44.6397 133.433H113.558C111.011 129.005 109.711 125.172 109.093 120.775Z" fill="#F6F6FB"/>
<path d="M63.7715 37.5058C63.7715 37.3408 63.8204 37.1796 63.912 37.0425C64.0037 36.9053 64.1339 36.7985 64.2863 36.7354C64.4386 36.6722 64.6063 36.6557 64.7681 36.6879C64.9298 36.7201 65.0784 36.7995 65.195 36.9161C65.3117 37.0327 65.3911 37.1813 65.4232 37.3431C65.4554 37.5048 65.4389 37.6725 65.3758 37.8249C65.3127 37.9773 65.2058 38.1075 65.0687 38.1991C64.9315 38.2908 64.7703 38.3397 64.6054 38.3397C64.4958 38.3398 64.3873 38.3183 64.2861 38.2765C64.1849 38.2346 64.0929 38.1732 64.0154 38.0957C63.9379 38.0183 63.8765 37.9263 63.8347 37.8251C63.7928 37.7238 63.7713 37.6153 63.7715 37.5058Z" fill="#807DFB"/>
<path d="M68.7617 37.5047C68.7619 37.3398 68.811 37.1787 68.9028 37.0417C68.9945 36.9047 69.1249 36.798 69.2772 36.735C69.4296 36.6721 69.5973 36.6557 69.759 36.688C69.9206 36.7203 70.0691 36.7998 70.1857 36.9165C70.3022 37.0332 70.3815 37.1818 70.4136 37.3435C70.4457 37.5052 70.4291 37.6728 70.3659 37.8251C70.3028 37.9775 70.1959 38.1076 70.0588 38.1992C69.9217 38.2908 69.7605 38.3397 69.5956 38.3397C69.486 38.3397 69.3775 38.3181 69.2762 38.2761C69.175 38.2341 69.083 38.1726 69.0056 38.095C68.9281 38.0175 68.8667 37.9254 68.8249 37.8241C68.783 37.7228 68.7616 37.6143 68.7617 37.5047Z" fill="#807DFB"/>
<path d="M73.75 37.5058C73.75 37.3408 73.7989 37.1796 73.8905 37.0425C73.9822 36.9053 74.1124 36.7985 74.2648 36.7354C74.4172 36.6722 74.5848 36.6557 74.7466 36.6879C74.9083 36.7201 75.0569 36.7995 75.1736 36.9161C75.2902 37.0327 75.3696 37.1813 75.4018 37.3431C75.4339 37.5048 75.4174 37.6725 75.3543 37.8249C75.2912 37.9773 75.1843 38.1075 75.0472 38.1991C74.9101 38.2908 74.7488 38.3397 74.5839 38.3397C74.3627 38.3397 74.1506 38.2518 73.9942 38.0954C73.8379 37.939 73.75 37.7269 73.75 37.5058Z" fill="#807DFB"/>
<path d="M78.7402 37.5058C78.7402 37.3408 78.7891 37.1796 78.8808 37.0425C78.9724 36.9053 79.1026 36.7985 79.255 36.7354C79.4074 36.6722 79.5751 36.6557 79.7368 36.6879C79.8986 36.7201 80.0472 36.7995 80.1638 36.9161C80.2804 37.0327 80.3598 37.1813 80.392 37.3431C80.4242 37.5048 80.4077 37.6725 80.3445 37.8249C80.2814 37.9773 80.1745 38.1075 80.0374 38.1991C79.9003 38.2908 79.7391 38.3397 79.5741 38.3397C79.4646 38.3398 79.3561 38.3183 79.2548 38.2765C79.1536 38.2346 79.0616 38.1732 78.9842 38.0957C78.9067 38.0183 78.8453 37.9263 78.8034 37.8251C78.7616 37.7238 78.7401 37.6153 78.7402 37.5058Z" fill="#807DFB"/>
<path d="M83.7305 37.5047C83.7307 37.3398 83.7798 37.1787 83.8715 37.0417C83.9633 36.9047 84.0936 36.798 84.246 36.735C84.3984 36.6721 84.566 36.6557 84.7277 36.688C84.8894 36.7203 85.0379 36.7998 85.1544 36.9165C85.2709 37.0332 85.3502 37.1818 85.3823 37.3435C85.4144 37.5052 85.3978 37.6728 85.3347 37.8251C85.2715 37.9775 85.1646 38.1076 85.0275 38.1992C84.8904 38.2908 84.7292 38.3397 84.5644 38.3397C84.4548 38.3397 84.3462 38.3181 84.245 38.2761C84.1437 38.2341 84.0518 38.1726 83.9743 38.095C83.8969 38.0175 83.8355 37.9254 83.7936 37.8241C83.7518 37.7228 83.7303 37.6143 83.7305 37.5047Z" fill="#807DFB"/>
<path d="M55.5068 44.8438H48.8574V51.4931H55.5068V44.8438Z" stroke="#CED3F8" stroke-width="0.544318" stroke-linecap="round" stroke-linejoin="round"/>
<path d="M98.6446 47.0599H60.6784C60.6062 47.0599 60.537 47.0313 60.486 46.9802C60.4349 46.9292 60.4062 46.86 60.4062 46.7878C60.4062 46.7156 60.4349 46.6464 60.486 46.5953C60.537 46.5443 60.6062 46.5156 60.6784 46.5156H98.6446C98.7168 46.5156 98.786 46.5443 98.837 46.5953C98.8881 46.6464 98.9167 46.7156 98.9167 46.7878C98.9167 46.86 98.8881 46.9292 98.837 46.9802C98.786 47.0313 98.7168 47.0599 98.6446 47.0599Z" fill="#807DFB"/>
<path d="M88.4386 49.8178H60.6784C60.6062 49.8178 60.537 49.7891 60.486 49.738C60.4349 49.687 60.4062 49.6178 60.4062 49.5456C60.4062 49.4734 60.4349 49.4042 60.486 49.3532C60.537 49.3021 60.6062 49.2734 60.6784 49.2734H88.4386C88.5108 49.2734 88.58 49.3021 88.6311 49.3532C88.6821 49.4042 88.7108 49.4734 88.7108 49.5456C88.7108 49.6178 88.6821 49.687 88.6311 49.738C88.58 49.7891 88.5108 49.8178 88.4386 49.8178Z" fill="#807DFB"/>
<path d="M55.5068 56.8906H48.8574V63.54H55.5068V56.8906Z" stroke="#CED3F8" stroke-width="0.544318" stroke-linecap="round" stroke-linejoin="round"/>
<path d="M98.6449 59.1146H86.2683C86.1961 59.1146 86.1268 59.086 86.0758 59.0349C86.0248 58.9839 85.9961 58.9147 85.9961 58.8425C85.9961 58.7703 86.0248 58.7011 86.0758 58.65C86.1268 58.599 86.1961 58.5703 86.2683 58.5703H98.6449C98.7171 58.5703 98.7864 58.599 98.8374 58.65C98.8884 58.7011 98.9171 58.7703 98.9171 58.8425C98.9171 58.9147 98.8884 58.9839 98.8374 59.0349C98.7864 59.086 98.7171 59.1146 98.6449 59.1146Z" fill="#CED3F8"/>
<path d="M82.695 59.1146H60.6784C60.6062 59.1146 60.537 59.086 60.486 59.0349C60.4349 58.9839 60.4062 58.9147 60.4062 58.8425C60.4062 58.7703 60.4349 58.7011 60.486 58.65C60.537 58.599 60.6062 58.5703 60.6784 58.5703H82.695C82.7672 58.5703 82.8364 58.599 82.8874 58.65C82.9385 58.7011 82.9671 58.7703 82.9671 58.8425C82.9671 58.9147 82.9385 58.9839 82.8874 59.0349C82.8364 59.086 82.7672 59.1146 82.695 59.1146Z" fill="#CED3F8"/>
<path d="M78.74 61.8685H60.6784C60.6062 61.8685 60.537 61.8399 60.486 61.7888C60.4349 61.7378 60.4062 61.6686 60.4062 61.5964C60.4062 61.5242 60.4349 61.455 60.486 61.4039C60.537 61.3529 60.6062 61.3242 60.6784 61.3242H78.74C78.8121 61.3242 78.8814 61.3529 78.9324 61.4039C78.9834 61.455 79.0121 61.5242 79.0121 61.5964C79.0121 61.6686 78.9834 61.7378 78.9324 61.7888C78.8814 61.8399 78.8121 61.8685 78.74 61.8685Z" fill="#CED3F8"/>
<path d="M55.5068 68.9453H48.8574V75.5947H55.5068V68.9453Z" stroke="#CED3F8" stroke-width="0.544318" stroke-linecap="round" stroke-linejoin="round"/>
<path d="M98.6435 71.1654H72.7448C72.6726 71.1654 72.6034 71.1367 72.5524 71.0857C72.5013 71.0347 72.4727 70.9654 72.4727 70.8933C72.4727 70.8211 72.5013 70.7518 72.5524 70.7008C72.6034 70.6498 72.6726 70.6211 72.7448 70.6211H98.6435C98.7156 70.6211 98.7849 70.6498 98.8359 70.7008C98.887 70.7518 98.9156 70.8211 98.9156 70.8933C98.9156 70.9654 98.887 71.0347 98.8359 71.0857C98.7849 71.1367 98.7156 71.1654 98.6435 71.1654Z" fill="#807DFB"/>
<path d="M67.4541 71.1654H60.6784C60.6062 71.1654 60.537 71.1367 60.486 71.0857C60.4349 71.0347 60.4062 70.9654 60.4062 70.8933C60.4062 70.8211 60.4349 70.7518 60.486 70.7008C60.537 70.6498 60.6062 70.6211 60.6784 70.6211H67.4541C67.5263 70.6211 67.5955 70.6498 67.6465 70.7008C67.6976 70.7518 67.7262 70.8211 67.7262 70.8933C67.7262 70.9654 67.6976 71.0347 67.6465 71.0857C67.5955 71.1367 67.5263 71.1654 67.4541 71.1654Z" fill="#807DFB"/>
<path d="M88.4386 73.9193H60.6784C60.6062 73.9193 60.537 73.8906 60.486 73.8396C60.4349 73.7886 60.4062 73.7193 60.4062 73.6472C60.4062 73.575 60.4349 73.5058 60.486 73.4547C60.537 73.4037 60.6062 73.375 60.6784 73.375H88.4386C88.5108 73.375 88.58 73.4037 88.6311 73.4547C88.6821 73.5058 88.7108 73.575 88.7108 73.6472C88.7108 73.7193 88.6821 73.7886 88.6311 73.8396C88.58 73.8906 88.5108 73.9193 88.4386 73.9193Z" fill="#807DFB"/>
<path d="M55.5068 81H48.8574V87.6494H55.5068V81Z" stroke="#CED3F8" stroke-width="0.544318" stroke-linecap="round" stroke-linejoin="round"/>
<path d="M98.6446 83.2162H60.6784C60.6062 83.2162 60.537 83.1875 60.486 83.1365C60.4349 83.0854 60.4062 83.0162 60.4062 82.944C60.4062 82.8719 60.4349 82.8026 60.486 82.7516C60.537 82.7005 60.6062 82.6719 60.6784 82.6719H98.6446C98.7168 82.6719 98.786 82.7005 98.837 82.7516C98.8881 82.8026 98.9167 82.8719 98.9167 82.944C98.9167 83.0162 98.8881 83.0854 98.837 83.1365C98.786 83.1875 98.7168 83.2162 98.6446 83.2162Z" fill="#807DFB"/>
<path d="M88.4387 85.9701H80.4089C80.3367 85.9701 80.2675 85.9414 80.2164 85.8904C80.1654 85.8393 80.1367 85.7701 80.1367 85.6979C80.1367 85.6258 80.1654 85.5565 80.2164 85.5055C80.2675 85.4544 80.3367 85.4258 80.4089 85.4258H88.4387C88.5108 85.4258 88.5801 85.4544 88.6311 85.5055C88.6821 85.5565 88.7108 85.6258 88.7108 85.6979C88.7108 85.7701 88.6821 85.8393 88.6311 85.8904C88.5801 85.9414 88.5108 85.9701 88.4387 85.9701Z" fill="#807DFB"/>
<path d="M76.8893 85.9701H60.6784C60.6062 85.9701 60.537 85.9414 60.486 85.8904C60.4349 85.8393 60.4062 85.7701 60.4062 85.6979C60.4062 85.6258 60.4349 85.5565 60.486 85.5055C60.537 85.4544 60.6062 85.4258 60.6784 85.4258H76.8893C76.9615 85.4258 77.0307 85.4544 77.0817 85.5055C77.1328 85.5565 77.1614 85.6258 77.1614 85.6979C77.1614 85.7701 77.1328 85.8393 77.0817 85.8904C77.0307 85.9414 76.9615 85.9701 76.8893 85.9701Z" fill="#807DFB"/>
<path d="M55.5068 93.0508H48.8574V99.7002H55.5068V93.0508Z" stroke="#CED3F8" stroke-width="0.544318" stroke-linecap="round" stroke-linejoin="round"/>
<path d="M98.6446 95.2709H60.6784C60.6062 95.2709 60.537 95.2422 60.486 95.1912C60.4349 95.1401 60.4062 95.0709 60.4062 94.9987C60.4062 94.9265 60.4349 94.8573 60.486 94.8063C60.537 94.7552 60.6062 94.7266 60.6784 94.7266H98.6446C98.7168 94.7266 98.786 94.7552 98.837 94.8063C98.8881 94.8573 98.9167 94.9265 98.9167 94.9987C98.9167 95.0709 98.8881 95.1401 98.837 95.1912C98.786 95.2422 98.7168 95.2709 98.6446 95.2709Z" fill="#CED3F8"/>
<path d="M88.4386 98.0248H60.6784C60.6062 98.0248 60.537 97.9961 60.486 97.9451C60.4349 97.894 60.4062 97.8248 60.4062 97.7526C60.4062 97.6804 60.4349 97.6112 60.486 97.5602C60.537 97.5091 60.6062 97.4805 60.6784 97.4805H88.4386C88.5108 97.4805 88.58 97.5091 88.6311 97.5602C88.6821 97.6112 88.7108 97.6804 88.7108 97.7526C88.7108 97.8248 88.6821 97.894 88.6311 97.9451C88.58 97.9961 88.5108 98.0248 88.4386 98.0248Z" fill="#CED3F8"/>
<path d="M55.5068 105.102H48.8574V111.751H55.5068V105.102Z" stroke="#CED3F8" stroke-width="0.544318" stroke-linecap="round" stroke-linejoin="round"/>
<path d="M94.1257 108.701H60.6784C60.6062 108.701 60.537 108.672 60.486 108.621C60.4349 108.57 60.4062 108.501 60.4062 108.428C60.4062 108.356 60.4349 108.287 60.486 108.236C60.537 108.185 60.6062 108.156 60.6784 108.156H94.1257C94.1978 108.156 94.2671 108.185 94.3181 108.236C94.3691 108.287 94.3978 108.356 94.3978 108.428C94.3978 108.501 94.3691 108.57 94.3181 108.621C94.2671 108.672 94.1978 108.701 94.1257 108.701Z" fill="#CED3F8"/>
<path d="M52.1816 49.5712C52.1458 49.5713 52.1104 49.5644 52.0773 49.5507C52.0442 49.5371 52.0142 49.517 51.9889 49.4917L50.1121 47.6149C50.0861 47.5898 50.0655 47.5597 50.0512 47.5265C50.037 47.4933 50.0296 47.4576 50.0293 47.4214C50.029 47.3853 50.036 47.3495 50.0497 47.316C50.0634 47.2826 50.0837 47.2523 50.1093 47.2267C50.1349 47.2012 50.1653 47.1811 50.1988 47.1674C50.2322 47.1538 50.2681 47.1469 50.3042 47.1473C50.3403 47.1477 50.376 47.1552 50.4092 47.1695C50.4424 47.1839 50.4724 47.2046 50.4975 47.2307L52.1816 48.9137L57.0957 44.0028C57.1475 43.9565 57.2152 43.9318 57.2847 43.9337C57.3542 43.9356 57.4203 43.9641 57.4695 44.0133C57.5187 44.0625 57.5472 44.1286 57.5491 44.1981C57.5511 44.2677 57.5263 44.3353 57.48 44.3871L52.3732 49.4939C52.348 49.5189 52.3181 49.5386 52.2852 49.5519C52.2523 49.5651 52.2171 49.5717 52.1816 49.5712Z" fill="#807DFB"/>
<path d="M52.1816 73.675C52.1458 73.6751 52.1104 73.6681 52.0773 73.6545C52.0442 73.6408 52.0142 73.6208 51.9889 73.5955L50.1121 71.7187C50.0861 71.6935 50.0655 71.6635 50.0512 71.6303C50.037 71.597 50.0296 71.5613 50.0293 71.5252C50.029 71.489 50.036 71.4532 50.0497 71.4198C50.0634 71.3864 50.0837 71.356 50.1093 71.3305C50.1349 71.305 50.1653 71.2848 50.1988 71.2712C50.2322 71.2575 50.2681 71.2507 50.3042 71.2511C50.3403 71.2514 50.376 71.259 50.4092 71.2733C50.4424 71.2876 50.4724 71.3084 50.4975 71.3344L52.1816 73.0185L57.0957 68.1044C57.1475 68.0581 57.2152 68.0333 57.2847 68.0353C57.3542 68.0372 57.4203 68.0657 57.4695 68.1149C57.5187 68.164 57.5472 68.2302 57.5491 68.2997C57.5511 68.3692 57.5263 68.4368 57.48 68.4887L52.3732 73.5955C52.3482 73.6209 52.3183 73.641 52.2854 73.6546C52.2525 73.6683 52.2172 73.6752 52.1816 73.675Z" fill="#807DFB"/>
<path d="M52.1816 85.7296C52.1458 85.7298 52.1104 85.7228 52.0773 85.7092C52.0442 85.6955 52.0142 85.6755 51.9889 85.6502L50.1121 83.7734C50.0861 83.7482 50.0655 83.7182 50.0512 83.6849C50.037 83.6517 50.0296 83.616 50.0293 83.5799C50.029 83.5437 50.036 83.5079 50.0497 83.4745C50.0634 83.441 50.0837 83.4107 50.1093 83.3852C50.1349 83.3597 50.1653 83.3395 50.1988 83.3258C50.2322 83.3122 50.2681 83.3054 50.3042 83.3057C50.3403 83.3061 50.376 83.3137 50.4092 83.328C50.4424 83.3423 50.4724 83.3631 50.4975 83.3891L52.1816 85.0732L57.0957 80.1591C57.1475 80.1127 57.2152 80.088 57.2847 80.09C57.3542 80.0919 57.4203 80.1204 57.4695 80.1696C57.5187 80.2187 57.5472 80.2849 57.5491 80.3544C57.5511 80.4239 57.5263 80.4915 57.48 80.5434L52.3732 85.6502C52.3481 85.6755 52.3183 85.6955 52.2854 85.7091C52.2525 85.7228 52.2172 85.7297 52.1816 85.7296Z" fill="#807DFB"/>
<path d="M53.7957 62.1064C53.7599 62.1065 53.7245 62.0995 53.6914 62.0859C53.6583 62.0722 53.6283 62.0522 53.603 62.0269L50.373 58.7969C50.3235 58.7455 50.2962 58.6767 50.2969 58.6054C50.2976 58.534 50.3263 58.4658 50.3769 58.4154C50.4274 58.365 50.4957 58.3365 50.5671 58.3359C50.6384 58.3354 50.7071 58.363 50.7584 58.4126L53.9884 61.6393C54.0262 61.6775 54.0518 61.7259 54.0622 61.7786C54.0725 61.8312 54.067 61.8858 54.0464 61.9354C54.0258 61.9849 53.991 62.0273 53.9464 62.0571C53.9018 62.087 53.8494 62.103 53.7957 62.1031V62.1064Z" fill="#FCBA06"/>
<path d="M50.5665 62.1064C50.5128 62.1062 50.4604 62.0903 50.4158 62.0604C50.3711 62.0306 50.3363 61.9882 50.3158 61.9386C50.2952 61.8891 50.2897 61.8345 50.3 61.7818C50.3103 61.7292 50.336 61.6807 50.3738 61.6426L53.6038 58.4126C53.655 58.363 53.7237 58.3354 53.7951 58.3359C53.8665 58.3365 53.9348 58.365 53.9853 58.4154C54.0358 58.4658 54.0646 58.534 54.0653 58.6054C54.066 58.6767 54.0387 58.7455 53.9892 58.7969L50.7592 62.0269C50.7339 62.0522 50.7038 62.0722 50.6708 62.0859C50.6377 62.0995 50.6023 62.1065 50.5665 62.1064Z" fill="#FCBA06"/>
<path d="M127.736 75.4877C128.943 74.7475 127.982 71.8952 127.803 70.9525C127.562 69.6908 127.778 63.332 127.778 63.332C124.804 65.2165 121.809 70.7478 123.656 73.7829C123.157 74.0326 122.739 74.4203 122.454 74.9C122.168 75.3798 122.026 75.9314 122.045 76.4895C122.063 77.0475 122.241 77.5885 122.558 78.0482C122.875 78.508 123.317 78.8672 123.832 79.0831C124.347 79.2991 124.913 79.3627 125.463 79.2666C126.013 79.1704 126.524 78.9184 126.935 78.5406C127.346 78.1627 127.64 77.6749 127.782 77.1349C127.924 76.5949 127.908 76.0255 127.736 75.4943V75.4877Z" fill="#362E93"/>
<path d="M109.611 79.4297C110.211 82.222 115.372 88.8845 117.724 87.0991C119.964 85.3987 113.452 81.2205 110.815 79.5342C110.1 79.0791 109.611 79.4297 109.611 79.4297Z" fill="#F8D8D0"/>
<path d="M118.529 82.3224L120.261 85.6972L124.725 81.3274L123.033 77.8438C121.616 79.4193 120.113 80.9145 118.529 82.3224Z" fill="#F8D8D0"/>
<path d="M124.733 81.3328L123.041 77.8492C123.855 77.0338 126.533 73.7798 127.21 73.6797C127.986 74.4319 130.471 77.1797 124.733 81.3328Z" fill="#E19100"/>
<path d="M123.617 143.029C123.904 143.029 124.261 143.346 124.306 143.682H124.83C125.146 143.071 125.232 142.368 125.072 141.699C124.902 140.996 124.721 141.165 124.538 141.348C124.122 141.685 122.424 141.797 122.291 141.227C121.856 141.292 117.34 142.591 117.34 143.008C117.34 143.684 117.87 143.682 118.231 143.682C122.5 143.684 121.935 143.423 123.617 143.029Z" fill="#20196F"/>
<path d="M122.752 140.515C122.898 139.872 124.759 139.389 124.663 140.515C124.637 140.759 124.67 141.005 124.76 141.233C124.387 141.767 120.458 142.772 119.816 141.938C120.263 141.698 122.752 141.198 122.752 140.515Z" fill="#F7D3C9"/>
<path d="M138.038 143.029C138.325 143.029 138.682 143.346 138.728 143.682H139.25C139.567 143.072 139.653 142.368 139.493 141.699C139.323 140.996 139.143 141.165 138.96 141.348C138.544 141.685 136.846 141.797 136.712 141.227C136.276 141.292 131.762 142.591 131.762 143.008C131.762 143.684 132.292 143.682 132.652 143.682C136.921 143.684 136.356 143.423 138.038 143.029Z" fill="#20196F"/>
<path d="M137.172 140.515C137.319 139.872 139.179 139.389 139.083 140.515C139.057 140.759 139.091 141.005 139.181 141.233C138.807 141.767 134.878 142.772 134.238 141.938C134.684 141.698 137.172 141.198 137.172 140.515Z" fill="#F7D3C9"/>
<path d="M124.196 93.1992C119.916 100.654 122.687 128.964 122.687 140.474H124.734C126.702 131.003 129.889 102.784 132.992 93.1992H124.196Z" fill="#362E94"/>
<path d="M134.63 93.1992C139.931 100.994 139.138 128.92 139.138 140.43H137.096C135.949 137.575 127.396 98.6261 126.621 93.1992H134.63Z" fill="#423EAF"/>
<path d="M134.63 93.2012H124.195C126.1 83.7867 121.047 82.3061 122.714 79.2928C124.449 76.1553 125.826 75.4826 127.64 73.1409C129.283 73.425 130.514 74.7836 133.664 73.2138C134.826 72.6347 136.591 74.2491 136.591 77.4247C136.765 82.1581 133.341 85.5035 134.63 93.2012Z" fill="#FCBA06"/>
<path d="M150.925 50.8875C152.922 46.3011 149.118 40.2188 142.427 37.3057C135.736 34.3925 128.693 35.7445 126.693 40.331C124.831 44.6017 127.999 50.1668 133.854 53.2672L133.745 57.2244L136.575 54.4517C142.828 56.6268 149.063 55.1582 150.925 50.8875Z" fill="#807DFB"/>
<path d="M137.712 47.9059C137.928 48.0173 138.106 48.1903 138.224 48.403C138.342 48.6157 138.394 48.8586 138.374 49.1009C138.354 49.3432 138.262 49.5741 138.11 49.7643C137.959 49.9545 137.754 50.0954 137.523 50.1693C137.291 50.2433 137.043 50.2468 136.809 50.1795C136.575 50.1122 136.367 49.9771 136.21 49.7914C136.053 49.6056 135.955 49.3774 135.928 49.1358C135.9 48.8941 135.946 48.6499 136.057 48.4339C136.13 48.2896 136.23 48.1614 136.353 48.057C136.476 47.9526 136.619 47.8742 136.774 47.8264C136.927 47.7736 137.09 47.7534 137.251 47.7671C137.413 47.7808 137.57 47.828 137.712 47.9059ZM138.351 47.0197L138.056 46.8662C138.331 46.2158 138.549 45.5431 138.709 44.8555L139.121 43.2117C139.367 42.2268 139.588 41.5443 139.786 41.164C139.858 41.0083 139.961 40.8688 140.088 40.7536C140.215 40.6384 140.364 40.5499 140.526 40.4934C140.85 40.4037 141.196 40.4404 141.494 40.596C141.792 40.7516 142.019 41.0145 142.131 41.3316C142.181 41.4922 142.198 41.6613 142.18 41.8286C142.163 41.996 142.112 42.158 142.03 42.3049C141.852 42.646 141.41 43.2229 140.704 44.0358L139.588 45.3128C139.132 45.8491 138.719 46.4198 138.351 47.0197Z" fill="white"/>
<path d="M103.266 58.8919L97.9835 62.8306L95.8008 56.2204L97.5524 54.9141L103.266 58.8919Z" fill="white"/>
<path d="M97.5526 54.9164L95.801 56.2228L94.9889 53.7635C94.9702 53.7065 94.9699 53.645 94.9879 53.5877C95.006 53.5304 95.0415 53.4802 95.0896 53.4442C95.1376 53.4082 95.1957 53.3881 95.2558 53.3868C95.3158 53.3855 95.3748 53.403 95.4243 53.4369L97.5526 54.9164Z" fill="#362E94"/>
<path d="M134.641 111.69L137.058 114.933C137.189 115.107 137.382 115.222 137.597 115.253C137.812 115.285 138.031 115.229 138.205 115.1L141.899 112.345C141.985 112.281 142.058 112.2 142.113 112.108C142.168 112.016 142.204 111.913 142.219 111.807C142.235 111.7 142.229 111.592 142.203 111.487C142.176 111.383 142.13 111.285 142.065 111.199L139.647 107.957L134.641 111.69Z" fill="#6B67E9"/>
<path d="M133.649 110.634L134.514 111.793L139.796 107.854L138.932 106.695L133.649 110.634Z" fill="#DDE2F8"/>
<path d="M132.765 109.474L133.629 110.633L138.911 106.693L138.046 105.534L132.765 109.474Z" fill="#CED3F8"/>
<path d="M131.919 108.318L132.783 109.477L138.066 105.538L137.202 104.379L131.919 108.318Z" fill="#DDE2F8"/>
<path d="M131.052 107.157L131.916 108.316L137.199 104.377L136.334 103.218L131.052 107.157Z" fill="#CED3F8"/>
<path d="M130.161 105.997L131.025 107.156L136.307 103.216L135.443 102.058L130.161 105.997Z" fill="#DDE2F8"/>
<path d="M100.625 60.8609L132.816 104.025L135.457 102.056L103.266 58.8915L101.669 58.3994C101.546 58.3616 101.415 58.3533 101.288 58.3753C101.162 58.3972 101.042 58.4488 100.938 58.5258C100.835 58.6028 100.752 58.7031 100.695 58.8184C100.637 58.9338 100.608 59.061 100.609 59.1898L100.625 60.8609Z" fill="#807DFB"/>
<path d="M97.984 62.8324L130.175 105.997L132.816 104.027L100.625 60.8631L99.028 60.3721C98.905 60.3343 98.7747 60.326 98.6478 60.3479C98.5209 60.3699 98.401 60.4215 98.2978 60.4985C98.1946 60.5755 98.1111 60.6757 98.0539 60.7911C97.9967 60.9065 97.9676 61.0337 97.9688 61.1624L97.984 62.8324Z" fill="#5652CC"/>
<path d="M108.622 79.0819C108.165 78.0531 108.295 76.4093 108.758 76.3908C109.221 76.3723 109.201 77.9573 109.201 77.9573C109.31 77.7189 109.463 76.5715 109.942 77.1082C110.322 77.5338 109.668 78.6475 109.668 78.6475C109.836 78.4592 110.082 77.695 110.453 78.1293C110.824 78.5637 110.881 80.1292 110.881 80.1292C110.419 80.2718 109.326 80.6571 108.622 79.0819Z" fill="#F6D6CE"/>
<path d="M129.052 86.4168C130.227 85.5459 131.023 83.0867 131.465 80.4805C133.158 80.8484 133.909 80.929 135.507 81.1837C134.977 84.1056 133.369 87.5446 131.983 88.6953C127.674 92.2693 121.014 93.715 121.014 93.715C120.218 93.1065 119.854 92.1583 119.854 92.1583C121.25 91.6259 126.703 88.1488 129.052 86.4168Z" fill="#F8D8D0"/>
<path d="M135.029 74.2487C136.068 74.5753 136.692 77.3676 135.935 81.5425C134.313 81.4271 132.507 81.2268 130.996 80.6019C131.863 76.4771 132.992 73.5955 135.029 74.2487Z" fill="#FFD03E"/>
<path d="M121.014 93.7163C120.184 94.364 118.919 94.4914 118.237 92.7147C117.827 91.6511 118.86 90.8281 118.86 90.8281C119.123 91.1808 119.913 92.2434 119.913 92.2434L121.014 93.7163Z" fill="#F8D8D0"/>
<path d="M130.875 73.5377C130.681 72.0746 131.185 70.839 131.67 70.041C131.67 70.041 133.034 68.1228 132.999 66.1687C132.956 63.6736 129.006 63.0498 127.873 63.6235C126.415 64.4813 126.189 65.7812 125.871 67.5034C125.871 67.5034 125.171 69.1059 125.157 69.2136C125.137 69.3704 125.628 69.3573 125.65 69.4314C125.672 69.5054 125.506 70.4797 125.797 70.8967C126.088 71.3136 127.055 71.2178 127.344 71.4072C127.791 71.7012 128.304 72.1824 127.562 73.3167C126.552 75.4014 128.786 75.2207 130.875 73.5377Z" fill="#F7D3C9"/>
<path d="M139.603 77.7705C139.859 77.4356 140.031 77.045 140.106 76.6306C140.182 76.2163 140.158 75.79 140.037 75.3866C139.917 74.9831 139.702 74.614 139.411 74.3094C139.12 74.0047 138.762 73.7732 138.364 73.6337C138.345 73.6261 138.281 73.6021 138.269 73.5989C136.825 73.1503 134.225 71.2191 134.031 68.4746C133.806 65.3078 133.077 63.6084 131.106 63.0489C129.136 62.4893 127.502 63.1164 127.101 64.1789C126.574 67.1639 127.492 67.9946 128.69 68.2068C129.767 68.3984 130.202 69.2585 129.868 70.0804C129.574 70.8022 129.874 72.2174 130.194 73.0676C129.187 73.895 128.211 76.4424 129.518 78.0318C129.929 78.5488 130.496 78.9201 131.134 79.091C131.772 79.2618 132.448 79.2233 133.063 78.9811C133.01 79.1781 132.974 79.3791 132.954 79.582C132.895 80.1775 132.981 80.7785 133.205 81.3332C133.43 81.8879 133.786 82.3798 134.242 82.7664C134.699 83.1531 135.243 83.4229 135.827 83.5527C136.411 83.6825 137.018 83.6684 137.596 83.5116C138.173 83.3548 138.704 83.06 139.143 82.6525C139.581 82.2451 139.914 81.7372 140.112 81.1726C140.31 80.6081 140.369 80.0037 140.282 79.4116C140.195 78.8196 139.965 78.2575 139.613 77.7738L139.603 77.7705Z" fill="#5652CC"/>
<path d="M130.587 9.34678L127.693 8.19719C127.582 8.15267 127.461 8.13829 127.343 8.15549C127.224 8.1727 127.112 8.22088 127.018 8.29516L124.575 10.2264C124.481 10.3005 124.408 10.3981 124.364 10.5094C124.32 10.6206 124.306 10.7416 124.324 10.86L124.775 13.9419C124.792 14.0602 124.84 14.1717 124.914 14.2655C124.989 14.3593 125.086 14.432 125.197 14.4764L128.092 15.6271C128.203 15.6712 128.324 15.6852 128.442 15.6678C128.56 15.6504 128.672 15.6022 128.765 15.5281L131.209 13.5968C131.303 13.5224 131.375 13.4247 131.42 13.3135C131.464 13.2024 131.478 13.0816 131.461 12.9632L131.01 9.8813C130.993 9.7629 130.944 9.65119 130.87 9.55737C130.796 9.46355 130.698 9.39093 130.587 9.34678Z" fill="#DDE2F8"/>
<path d="M151.647 164.098L153.125 161.194C153.166 161.114 153.221 161.043 153.289 160.984C153.357 160.926 153.436 160.882 153.521 160.854C153.606 160.826 153.696 160.815 153.786 160.822C153.875 160.829 153.962 160.854 154.042 160.894L156.946 162.374C157.026 162.414 157.097 162.47 157.155 162.538C157.213 162.606 157.258 162.685 157.285 162.77C157.313 162.855 157.324 162.945 157.317 163.034C157.31 163.124 157.285 163.211 157.244 163.29L155.766 166.195C155.726 166.275 155.67 166.346 155.602 166.404C155.534 166.463 155.455 166.507 155.37 166.535C155.285 166.563 155.195 166.573 155.106 166.567C155.016 166.56 154.929 166.535 154.849 166.494L151.944 165.015C151.783 164.933 151.661 164.79 151.605 164.618C151.55 164.446 151.565 164.259 151.647 164.098Z" fill="#FCBA06"/>
<path d="M31.9937 142.69L28.6842 146.228C28.6023 146.315 28.5449 146.423 28.5177 146.539C28.4906 146.656 28.4947 146.778 28.5295 146.892C28.5644 147.007 28.6289 147.11 28.7164 147.192C28.804 147.274 28.9115 147.331 29.0282 147.358L33.7464 148.455C33.8629 148.482 33.9846 148.478 34.0991 148.443C34.2136 148.409 34.317 148.344 34.3988 148.257C34.4806 148.17 34.5381 148.062 34.5653 147.946C34.5926 147.829 34.5887 147.708 34.5541 147.593L33.1443 142.955C33.1094 142.841 33.045 142.738 32.9574 142.656C32.8699 142.574 32.7624 142.517 32.6458 142.49C32.5291 142.463 32.4074 142.467 32.2929 142.503C32.1785 142.538 32.0752 142.602 31.9937 142.69Z" fill="#6B67E9"/>
</g>
<defs>
<clipPath id="clip0_144_1317">
<rect width="180.366" height="179.91" fill="white"/>
</clipPath>
</defs>
</svg>
