<svg width="185" height="179" viewBox="0 0 185 179" fill="none" xmlns="http://www.w3.org/2000/svg">
<g clip-path="url(#clip0_144_1623)">
<path d="M129.983 153.746C143.551 153.746 154.55 152.26 154.55 150.428C154.55 148.595 143.551 147.109 129.983 147.109C116.415 147.109 105.416 148.595 105.416 150.428C105.416 152.26 116.415 153.746 129.983 153.746Z" fill="#E9EDF7"/>
<path d="M44.772 153.746C58.34 153.746 69.339 152.26 69.339 150.428C69.339 148.595 58.34 147.109 44.772 147.109C31.2041 147.109 20.2051 148.595 20.2051 150.428C20.2051 152.26 31.2041 153.746 44.772 153.746Z" fill="#E9EDF7"/>
<path d="M106.299 39.07C107.719 46.5216 114.429 48.8355 122.889 45.9628C120.263 39.4941 113.025 34.2198 106.299 39.07Z" fill="#423EAF"/>
<path d="M143.665 144.105C142.563 143.907 143.009 140.327 144.825 136.51C146.642 132.694 147.95 119.957 153.217 112.296C159.177 103.617 180.471 92.1731 179.528 95.2557C178.293 99.2908 179.852 106.438 177.994 113.441C177.704 114.533 175.583 114.459 175.091 115.556C174.522 116.82 177.131 116.726 174.866 120.079C166.952 131.791 158.082 130.524 151.807 136.628C146.096 142.191 145.69 144.47 143.665 144.105Z" fill="#DDE2F8"/>
<path d="M151.334 122.535C151.304 122.535 151.274 122.53 151.245 122.519C151.178 122.495 151.124 122.445 151.094 122.381C151.064 122.317 151.06 122.243 151.084 122.176C151.778 120.261 152.472 115.808 152.293 113.338C152.288 113.267 152.311 113.197 152.358 113.143C152.405 113.09 152.471 113.057 152.542 113.051C152.613 113.046 152.683 113.07 152.737 113.116C152.79 113.163 152.824 113.229 152.829 113.3C153.017 115.901 152.306 120.38 151.59 122.356C151.572 122.409 151.537 122.455 151.491 122.487C151.445 122.519 151.39 122.536 151.334 122.535Z" fill="white"/>
<path d="M157.676 116.18C157.608 116.181 157.543 116.155 157.493 116.109C157.443 116.063 157.413 115.999 157.408 115.931C157.319 114.637 157.994 108.879 158.527 106.452C158.542 106.383 158.584 106.323 158.644 106.284C158.704 106.246 158.777 106.233 158.846 106.248C158.916 106.264 158.976 106.306 159.014 106.366C159.052 106.426 159.065 106.498 159.05 106.568C158.537 108.907 157.853 114.658 157.942 115.893C157.947 115.964 157.924 116.034 157.878 116.087C157.832 116.141 157.766 116.174 157.695 116.18L157.676 116.18Z" fill="white"/>
<path d="M165.173 106.229C165.121 106.23 165.07 106.215 165.026 106.188C164.983 106.16 164.948 106.12 164.926 106.072C164.905 106.025 164.898 105.972 164.905 105.921C164.913 105.87 164.936 105.822 164.971 105.783C165.937 104.666 166.198 101.855 166.131 100.976C166.126 100.905 166.149 100.834 166.196 100.781C166.242 100.727 166.308 100.693 166.379 100.688C166.45 100.683 166.52 100.706 166.574 100.753C166.628 100.799 166.662 100.865 166.667 100.936C166.737 101.909 166.456 104.882 165.374 106.134C165.349 106.163 165.319 106.187 165.284 106.203C165.249 106.22 165.212 106.229 165.173 106.229Z" fill="white"/>
<path d="M164.975 129.564C164.927 129.564 164.879 129.551 164.837 129.525C163.177 128.518 160.863 128.08 159.528 128.176C159.457 128.181 159.387 128.157 159.333 128.111C159.279 128.064 159.246 127.998 159.241 127.927C159.236 127.856 159.259 127.786 159.306 127.732C159.352 127.678 159.419 127.645 159.49 127.64C160.943 127.534 163.34 127.991 165.114 129.068C165.164 129.099 165.202 129.145 165.223 129.199C165.245 129.253 165.248 129.313 165.232 129.369C165.216 129.425 165.183 129.475 165.136 129.51C165.09 129.545 165.033 129.565 164.974 129.565L164.975 129.564Z" fill="white"/>
<path d="M172.008 123.674C170.678 123.674 169.289 123.119 167.942 122.581C166.307 121.929 164.618 121.254 163.051 121.57C162.982 121.581 162.912 121.566 162.854 121.526C162.797 121.487 162.757 121.427 162.744 121.358C162.73 121.29 162.743 121.219 162.781 121.161C162.819 121.102 162.878 121.06 162.945 121.045C164.668 120.697 166.434 121.402 168.141 122.084C169.607 122.669 170.99 123.221 172.299 123.128C172.334 123.126 172.369 123.13 172.403 123.141C172.436 123.153 172.467 123.17 172.494 123.193C172.52 123.216 172.542 123.244 172.558 123.276C172.574 123.307 172.583 123.342 172.586 123.377C172.588 123.412 172.584 123.447 172.573 123.481C172.561 123.514 172.544 123.545 172.521 123.572C172.498 123.599 172.47 123.62 172.438 123.636C172.406 123.652 172.372 123.661 172.337 123.664C172.228 123.669 172.118 123.674 172.008 123.674Z" fill="white"/>
<path d="M168.416 115.004C168.353 115.003 168.293 114.98 168.246 114.94C168.199 114.899 168.167 114.843 168.156 114.782C168.146 114.72 168.157 114.657 168.188 114.603C168.219 114.549 168.268 114.507 168.326 114.485L168.886 114.274C171.359 113.339 175.498 111.774 178.349 111.567C178.384 111.565 178.42 111.569 178.453 111.58C178.487 111.591 178.518 111.609 178.544 111.632C178.571 111.655 178.593 111.683 178.609 111.714C178.624 111.746 178.634 111.78 178.637 111.815C178.639 111.85 178.635 111.886 178.624 111.919C178.613 111.953 178.595 111.984 178.572 112.01C178.549 112.037 178.521 112.059 178.489 112.075C178.458 112.091 178.424 112.1 178.388 112.103C175.616 112.304 171.522 113.852 169.076 114.781L168.516 114.993C168.483 115.003 168.45 115.007 168.416 115.004Z" fill="white"/>
<path d="M168.476 112.219C168.411 112.219 168.349 112.195 168.301 112.152C168.253 112.109 168.222 112.05 168.213 111.986C168.205 111.922 168.22 111.857 168.255 111.804C168.291 111.75 168.345 111.711 168.407 111.693L168.984 111.537C171.535 110.845 175.814 109.695 178.663 109.756C178.699 109.757 178.733 109.765 178.766 109.779C178.798 109.793 178.827 109.814 178.851 109.839C178.875 109.865 178.894 109.895 178.907 109.927C178.92 109.96 178.926 109.995 178.925 110.03C178.925 110.066 178.918 110.101 178.904 110.133C178.89 110.166 178.869 110.195 178.844 110.22C178.818 110.244 178.788 110.263 178.755 110.275C178.722 110.288 178.686 110.293 178.651 110.292C175.876 110.222 171.647 111.37 169.124 112.054L168.545 112.21C168.523 112.216 168.499 112.219 168.476 112.219Z" fill="white"/>
<path d="M69.6919 85.4069C70.8525 84.7267 72.5254 72.1856 70.1472 71.7089C68.2957 71.3367 67.86 73.2926 67.7583 74.0149C67.5967 75.1531 67.3869 77.9161 66.5638 77.6634C65.0738 77.2064 66.4951 70.2859 66.737 68.579C66.9789 66.8721 66.9861 63.4905 65.539 62.2478C64.0918 61.0051 63.3634 60.6668 63.1054 63.6762C62.8474 66.6856 63.0786 72.6802 61.5458 71.0858C60.013 69.4914 60.9164 64.801 60.4459 61.922C59.9755 59.0429 58.1016 53.7196 56.526 55.2372C55.1164 56.5942 57.7026 64.8144 56.2108 64.6028C55.0182 64.4332 55.1681 61.9434 54.2085 58.2234C53.2488 54.5034 52.3052 51.0039 50.0421 51.3708C48.2254 51.6654 49.3422 53.9169 49.835 55.9291C50.3278 57.9413 50.9063 60.7686 49.8216 60.3133C48.7369 59.858 47.2809 49.788 44.2403 49.6095C42.2281 49.4916 43.2217 51.5413 43.6627 53.9151C44.1037 56.2889 44.0823 57.1557 43.585 57.0852C43.0878 57.0147 41.9781 53.9097 41.4059 52.1877C40.8336 50.4656 39.4419 48.1918 37.8153 48.665C36.1888 49.1381 37.3868 51.802 38.0563 52.6822C38.7259 53.5625 38.9884 54.69 38.7241 54.8864C38.4599 55.0828 36.0459 52.3296 34.8211 53.7973C33.5963 55.2649 36.1602 57.6708 38.0537 57.9395C39.9471 58.2082 42.4861 58.6349 42.3879 59.3241C42.2897 60.0133 40.1025 59.7035 38.3795 59.4589C36.6566 59.2143 35.9156 59.5107 35.8504 59.9705C35.6326 61.5024 37.6921 63.112 38.9518 63.2905C40.2114 63.4691 47.4005 63.5512 47.2541 64.5689C47.1077 65.5866 44.4161 65.2715 43.0244 65.0742C41.6326 64.8769 38.3822 64.4163 38.1421 66.1231C37.9019 67.83 42.1441 69.37 44.8188 69.5816C47.4934 69.7931 51.8526 69.8092 51.741 70.5975C51.6294 71.3858 48.1326 71.9607 46.4426 71.7205C44.7527 71.4804 41.8576 70.2029 41.5594 72.3008C41.2612 74.3987 43.7814 75.1941 47.1006 75.6646C48.487 75.8619 51.9213 76.3136 53.9514 75.412C56.2591 74.3862 57.5776 74.2514 57.8419 74.7781C58.3704 75.8244 56.218 76.4565 54.5807 76.5591C52.9435 76.6618 47.8362 76.6734 48.4289 79.1686C49.0217 81.6637 53.1274 80.6059 54.8209 80.3434C56.5144 80.0809 62.3992 78.6392 62.7242 79.9247C63.0491 81.2102 59.7452 81.1424 58.7185 81.2317C57.6919 81.3209 55.6252 82.1824 56.2091 82.9519C56.7929 83.7215 67.6244 86.6211 69.6919 85.4069Z" fill="#DDE2F8"/>
<path d="M143.114 147.311C142.05 147.101 152.297 134.748 160.076 129.495C167.067 124.773 177.496 119.288 184.118 117.777C179.258 121.407 165.378 132.019 162.567 133.903C159.756 135.786 144.177 147.521 143.114 147.311Z" fill="#CED3F8"/>
<path d="M143.095 147.316C142.216 147.446 146.721 135.085 151.277 128.891C155.373 123.318 161.909 116.214 166.601 113.219C163.849 117.36 156.066 129.377 154.411 131.604C152.756 133.83 143.974 147.184 143.095 147.316Z" fill="#CED3F8"/>
<path d="M143.097 147.304C142.32 146.873 153.416 139.811 160.804 137.663C167.445 135.734 176.957 134.075 182.497 134.557C177.794 136.164 164.301 140.96 161.635 141.723C158.968 142.485 143.874 147.735 143.097 147.304Z" fill="#CED3F8"/>
<path d="M143.085 147.322C142.42 147.692 142.309 136.443 144.093 130.11C145.695 124.417 148.79 116.761 151.647 112.953C150.69 117.096 148.07 129.059 147.418 131.343C146.767 133.628 143.749 146.954 143.085 147.322Z" fill="#CED3F8"/>
<path d="M143.084 147.319C142.591 146.74 153.597 144.412 160.157 144.909C166.054 145.355 174.173 146.879 178.468 148.926C174.217 148.807 161.973 148.6 159.608 148.411C157.243 148.223 143.577 147.897 143.084 147.319Z" fill="#CED3F8"/>
<path d="M155.017 102.586C154.069 102.586 153.196 102.357 152.464 101.902C151.499 101.3 150.867 100.338 150.742 99.2951C150.252 99.1936 149.792 98.9794 149.4 98.6695C149.007 98.3596 148.692 97.9624 148.479 97.5096C147.962 96.4107 147.765 94.4404 149.757 91.2962C149.795 91.2362 149.856 91.1938 149.925 91.1783C149.994 91.1628 150.067 91.1755 150.127 91.2137C150.187 91.2518 150.229 91.3122 150.245 91.3816C150.26 91.451 150.248 91.5237 150.21 91.5837C148.346 94.5217 148.504 96.3035 148.964 97.2811C149.154 97.6857 149.441 98.0364 149.801 98.3015C150.16 98.5666 150.58 98.7375 151.023 98.7987C151.085 98.8064 151.143 98.8358 151.186 98.8819C151.229 98.9279 151.254 98.9876 151.258 99.0505C151.308 100.015 151.85 100.888 152.747 101.446C154.033 102.249 155.834 102.249 157.687 101.457C157.719 101.443 157.754 101.436 157.789 101.436C157.825 101.435 157.859 101.442 157.892 101.455C157.925 101.468 157.955 101.487 157.98 101.512C158.005 101.537 158.025 101.566 158.039 101.598C158.053 101.631 158.06 101.665 158.06 101.701C158.061 101.736 158.054 101.771 158.041 101.803C158.028 101.836 158.009 101.866 157.984 101.891C157.959 101.916 157.93 101.936 157.898 101.95C156.99 102.354 156.01 102.57 155.017 102.586Z" fill="#807DFB"/>
<path d="M154.944 101.353C154.387 101.356 153.833 101.267 153.304 101.091C152.209 100.72 151.32 99.9543 150.96 99.0794C150.067 98.467 149.526 97.4528 149.468 96.2834C149.379 94.4711 150.385 92.5857 152.23 91.1056C152.285 91.0612 152.356 91.0407 152.427 91.0485C152.497 91.0564 152.562 91.092 152.606 91.1475C152.651 91.203 152.671 91.2739 152.663 91.3446C152.655 91.4152 152.62 91.4799 152.564 91.5243C150.856 92.8901 149.922 94.614 150.003 96.2557C150.055 97.2984 150.524 98.1581 151.325 98.6777C151.374 98.7092 151.411 98.7555 151.431 98.8098C151.712 99.5713 152.496 100.251 153.476 100.583C155.011 101.102 156.858 100.753 158.679 99.6008C158.708 99.5798 158.742 99.565 158.777 99.5574C158.813 99.5499 158.85 99.5496 158.885 99.5566C158.921 99.5636 158.955 99.5778 158.985 99.5983C159.015 99.6188 159.04 99.6452 159.06 99.6759C159.079 99.7065 159.092 99.7408 159.098 99.7767C159.104 99.8125 159.102 99.8492 159.093 99.8844C159.084 99.9196 159.068 99.9527 159.046 99.9816C159.024 100.01 158.997 100.035 158.965 100.052C157.606 100.907 156.227 101.353 154.944 101.353Z" fill="#807DFB"/>
<path d="M154.242 100.148C153.726 100.155 153.213 100.089 152.716 99.9523C151.935 99.7228 151.421 99.3193 151.222 98.7837C150.582 98.0106 150.424 97.0875 150.765 96.1216C151.528 93.9594 154.533 92.057 155.547 91.8668C155.582 91.8583 155.619 91.8571 155.655 91.8632C155.69 91.8693 155.725 91.8826 155.755 91.9024C155.786 91.9222 155.812 91.9479 155.832 91.9781C155.852 92.0083 155.866 92.0423 155.873 92.078C155.88 92.1138 155.879 92.1505 155.871 92.1859C155.863 92.2214 155.848 92.2549 155.826 92.2843C155.805 92.3137 155.778 92.3385 155.747 92.3572C155.716 92.3758 155.681 92.3879 155.645 92.3927C154.842 92.5435 151.965 94.3299 151.271 96.3001C150.982 97.1188 151.111 97.8294 151.663 98.4748C151.685 98.5011 151.703 98.5314 151.714 98.5641C151.838 98.9453 152.25 99.2551 152.867 99.4363C154.45 99.9014 157.241 99.4916 159.29 97.8169C159.317 97.7934 159.348 97.7755 159.383 97.7644C159.417 97.7533 159.453 97.7492 159.488 97.7522C159.524 97.7552 159.559 97.7654 159.59 97.7821C159.622 97.7988 159.65 97.8216 159.673 97.8494C159.695 97.8771 159.712 97.9091 159.723 97.9434C159.733 97.9778 159.736 98.0139 159.732 98.0495C159.728 98.085 159.716 98.1195 159.699 98.1507C159.681 98.1819 159.658 98.2092 159.629 98.2311C157.994 99.5666 155.909 100.148 154.242 100.148Z" fill="#807DFB"/>
<path d="M153.477 99.067C152.786 99.0747 152.095 99.023 151.412 98.9126C151.375 98.9057 151.34 98.8913 151.309 98.8703C151.279 98.8492 151.253 98.822 151.233 98.7903C151.213 98.7582 151.201 98.7222 151.196 98.6849C151.191 98.6475 151.194 98.6095 151.205 98.5733C151.728 96.8075 154.007 94.3257 155.085 93.8294C155.117 93.8132 155.152 93.8037 155.188 93.8013C155.224 93.799 155.26 93.804 155.294 93.8159C155.328 93.8278 155.359 93.8464 155.386 93.8706C155.413 93.8949 155.434 93.9242 155.449 93.9569C155.464 93.9896 155.472 94.0251 155.473 94.061C155.474 94.097 155.468 94.1328 155.455 94.1663C155.442 94.1998 155.422 94.2303 155.397 94.2561C155.372 94.2818 155.342 94.3021 155.308 94.3159C154.416 94.7266 152.442 96.8647 151.82 98.4341C153.721 98.6894 156.574 98.4055 157.288 98.0618C157.352 98.0309 157.425 98.0267 157.492 98.0502C157.56 98.0736 157.615 98.1228 157.646 98.1868C157.676 98.2508 157.681 98.3245 157.657 98.3917C157.634 98.4588 157.585 98.5139 157.521 98.5448C156.938 98.8233 155.174 99.067 153.477 99.067Z" fill="#807DFB"/>
<path d="M151.459 98.9168C151.388 98.9212 151.318 98.8972 151.264 98.8501C151.211 98.803 151.179 98.7366 151.174 98.6655C151.17 98.5945 151.194 98.5247 151.241 98.4713C151.288 98.418 151.355 98.3856 151.426 98.3812C153.229 98.1553 155.273 97.9 157.943 96.3601C157.973 96.3425 158.007 96.3311 158.042 96.3265C158.076 96.3219 158.112 96.3243 158.146 96.3334C158.18 96.3425 158.212 96.3582 158.24 96.3796C158.268 96.4011 158.291 96.4278 158.309 96.4583C158.326 96.4888 158.338 96.5224 158.342 96.5573C158.347 96.5922 158.344 96.6276 158.335 96.6616C158.326 96.6956 158.31 96.7275 158.289 96.7554C158.268 96.7833 158.241 96.8067 158.21 96.8243C155.452 98.4178 153.35 98.6812 151.497 98.9133L151.459 98.9168Z" fill="#807DFB"/>
<path d="M151.923 98.8555C151.873 98.8556 151.824 98.8417 151.781 98.8154C151.739 98.7891 151.704 98.7515 151.682 98.7067C151.66 98.6619 151.651 98.6119 151.656 98.5621C151.66 98.5124 151.679 98.465 151.709 98.4252C152.821 96.9639 156.724 94.6383 158.339 94.474C158.41 94.4668 158.481 94.4881 158.536 94.5332C158.591 94.5784 158.626 94.6436 158.634 94.7146C158.641 94.7857 158.62 94.8566 158.574 94.912C158.529 94.9673 158.464 95.0025 158.393 95.0097C156.942 95.157 153.141 97.4299 152.136 98.752C152.111 98.7845 152.078 98.8107 152.041 98.8287C152.004 98.8466 151.964 98.8558 151.923 98.8555Z" fill="#807DFB"/>
<path d="M139.363 108.724C139.312 108.724 139.261 108.708 139.218 108.68C139.175 108.652 139.141 108.612 139.121 108.565C139.1 108.517 139.093 108.465 139.101 108.414C139.109 108.364 139.132 108.316 139.166 108.278C141.89 105.306 149.505 99.4522 150.872 98.8255C150.904 98.8093 150.939 98.7998 150.975 98.7974C151.011 98.7951 151.047 98.8 151.081 98.8119C151.115 98.8239 151.146 98.8425 151.173 98.8667C151.2 98.891 151.221 98.9203 151.236 98.953C151.251 98.9857 151.259 99.0211 151.26 99.0571C151.261 99.0931 151.255 99.1289 151.242 99.1624C151.229 99.1959 151.209 99.2264 151.184 99.2521C151.159 99.2778 151.129 99.2982 151.095 99.312C149.756 99.9271 142.257 105.701 139.56 108.639C139.535 108.666 139.505 108.688 139.471 108.702C139.437 108.717 139.4 108.724 139.363 108.724Z" fill="#807DFB"/>
<path d="M93.209 19.4266C95.6729 21.2612 98.31 20.1158 100.048 16.9422C97.4932 15.7298 93.8883 16.1369 93.209 19.4266Z" fill="#6B67E9"/>
<path d="M94.3105 16.1964C92.0983 16.9043 90.4932 15.4376 90.0254 12.7415C92.1492 12.5014 94.6274 13.6771 94.3105 16.1964Z" fill="#6B67E9"/>
<path d="M91.0963 23.8571C91.048 23.8572 91.0005 23.8441 90.9589 23.8194C90.9173 23.7946 90.8832 23.7591 90.8603 23.7165C90.8373 23.6739 90.8263 23.6259 90.8284 23.5776C90.8305 23.5292 90.8457 23.4824 90.8723 23.442C97.0544 14.0683 93.2826 4.78398 93.1184 4.39118C93.0909 4.3256 93.0906 4.25179 93.1176 4.18599C93.1445 4.1202 93.1965 4.0678 93.2621 4.04034C93.3277 4.01287 93.4015 4.01259 93.4673 4.03954C93.5331 4.0665 93.5855 4.11848 93.6129 4.18407C95.1413 7.83711 96.3804 16.0654 91.3195 23.7348C91.2954 23.7721 91.2623 23.8028 91.2234 23.8241C91.1844 23.8455 91.1408 23.8568 91.0963 23.8571Z" fill="#6B67E9"/>
<path d="M93.4411 9.02582C95.9292 8.94806 97.8832 6.86799 97.8054 4.37984C97.7277 1.8917 95.6476 -0.0623022 93.1595 0.0154561C90.6713 0.0932145 88.7173 2.17329 88.7951 4.66143C88.8728 7.14957 90.9529 9.10357 93.4411 9.02582Z" fill="#423EAD"/>
<path d="M90.2506 3.33796C90.4564 2.80284 90.8042 2.33399 91.2567 1.98191C91.7174 1.61053 92.2253 1.46502 92.8092 1.37307C93.3751 1.2838 93.9018 1.25077 94.475 1.47127C95.0109 1.67305 95.4814 2.01758 95.8355 2.46755C96.2069 2.92731 96.5631 3.40313 96.6559 3.98519C96.7452 4.55118 96.5497 5.10378 96.3292 5.67691C96.1087 6.25004 95.9105 6.82674 95.4641 7.18651C95.0044 7.55788 94.3812 7.56413 93.7974 7.65608C93.2314 7.74535 92.7038 7.7766 92.1307 7.5561C91.5575 7.33559 91.079 7.04546 90.7193 6.59999C90.3479 6.13934 89.9274 5.6412 89.8355 5.05736C89.7453 4.49047 90.0301 3.91109 90.2506 3.33796Z" stroke="#807DFB" stroke-width="0.267818" stroke-miterlimit="10"/>
<path d="M91.3649 3.76547C91.4591 3.50715 91.6037 3.27017 91.7904 3.06831C91.9771 2.86646 92.202 2.70378 92.4522 2.58975C92.9621 2.35433 93.5445 2.33089 94.0716 2.52458C94.6135 2.73347 94.9501 3.19323 95.1688 3.68512C95.3875 4.17701 95.4759 4.72515 95.267 5.26703C95.0581 5.80892 94.6341 6.17583 94.1413 6.39455C93.6485 6.61327 93.1343 6.57309 92.5924 6.36598C92.0505 6.15887 91.6666 5.83034 91.4488 5.33667C91.231 4.84299 91.1533 4.31092 91.3649 3.76547Z" stroke="#807DFB" stroke-width="0.267818" stroke-miterlimit="10"/>
<path d="M92.444 4.18249C92.6225 3.7263 93.1492 3.55758 93.6045 3.73077C94.0598 3.90396 94.2919 4.37085 94.1161 4.82704C93.9402 5.28322 93.4581 5.47159 93.0019 5.29572C92.5458 5.11985 92.2681 4.63867 92.444 4.18249Z" fill="#FCBA06"/>
<path d="M102.842 35.4493C110.42 42.9821 120.062 40.3369 127.613 30.2714C119.414 24.8356 106.804 24.4589 102.842 35.4493Z" fill="#5652CC"/>
<path d="M103.982 33.0562C113.647 32.4528 117.654 24.3263 115.373 13.1484C106.76 15.4401 98.9187 23.7594 103.982 33.0562Z" fill="#6B67E7"/>
<path d="M103.981 33.3265C103.94 33.3265 103.899 33.3167 103.863 33.2979C103.8 33.2663 103.751 33.211 103.729 33.1441C103.706 33.0773 103.711 33.0042 103.742 32.9408C104.573 31.275 106.195 28.6156 107.913 25.799C109.987 22.4004 112.337 18.5483 113.855 15.538C113.871 15.5066 113.893 15.4786 113.919 15.4556C113.946 15.4326 113.977 15.4151 114.01 15.4041C114.044 15.3931 114.079 15.3888 114.114 15.3914C114.149 15.394 114.183 15.4034 114.215 15.4193C114.246 15.4351 114.274 15.457 114.297 15.4836C114.32 15.5102 114.338 15.5412 114.349 15.5746C114.36 15.608 114.364 15.6432 114.361 15.6783C114.359 15.7134 114.349 15.7476 114.333 15.779C112.805 18.8089 110.449 22.6709 108.37 26.0784C106.659 28.8834 105.042 31.533 104.221 33.1792C104.199 33.2236 104.165 33.2609 104.122 33.287C104.08 33.313 104.031 33.3267 103.981 33.3265Z" fill="#5652CA"/>
<path d="M21.1582 138.877V80.2105C24.2827 86.049 34.4652 92.3329 44.7735 92.3329C62.1397 92.3329 60.6016 76.5977 81.1343 76.5977C93.0915 76.5977 107.806 102.647 130.482 86.3337V138.877H21.1582Z" fill="#6B67E9"/>
<path d="M18.6972 75.1445H16.5547V76.2158H18.6972V75.1445Z" fill="#BBC0E6"/>
<path d="M18.6972 79.7852H16.5547V80.8564H18.6972V79.7852Z" fill="#BBC0E6"/>
<path d="M18.6972 84.4258H16.5547V85.4971H18.6972V84.4258Z" fill="#BBC0E6"/>
<path d="M18.6972 89.0703H16.5547V90.1416H18.6972V89.0703Z" fill="#BBC0E6"/>
<path d="M18.6972 93.7148H16.5547V94.7861H18.6972V93.7148Z" fill="#BBC0E6"/>
<path d="M18.6972 98.3555H16.5547V99.4267H18.6972V98.3555Z" fill="#BBC0E6"/>
<path d="M18.6972 102.996H16.5547V104.067H18.6972V102.996Z" fill="#BBC0E6"/>
<path opacity="0.7" d="M4.01758 143.754V111.055C8.65976 115.547 14.7303 115.726 17.9441 115.726C21.1579 115.726 38.6554 100.505 47.047 100.505C55.4387 100.505 71.5077 111.055 79.1852 111.055C86.8626 111.055 105.253 96.082 115.608 96.082V143.754H4.01758Z" fill="#FCBA06"/>
<path d="M2.14254 113.227H0V114.298H2.14254V113.227Z" fill="#BBC0E6"/>
<path d="M2.14254 117.867H0V118.938H2.14254V117.867Z" fill="#BBC0E6"/>
<path d="M2.14254 122.508H0V123.579H2.14254V122.508Z" fill="#BBC0E6"/>
<path d="M2.14254 127.152H0V128.224H2.14254V127.152Z" fill="#BBC0E6"/>
<path d="M2.14254 131.793H0V132.864H2.14254V131.793Z" fill="#BBC0E6"/>
<path d="M2.14254 136.438H0V137.509H2.14254V136.438Z" fill="#BBC0E6"/>
<path d="M2.14254 141.078H0V142.149H2.14254V141.078Z" fill="#BBC0E6"/>
<g style="mix-blend-mode:multiply">
<path d="M80.1228 113.895H78.248V143.663H80.1228V113.895Z" fill="#D1D7F3"/>
</g>
<path d="M79.1847 107.813C78.5434 107.812 77.9164 108.002 77.3831 108.358C76.8497 108.715 76.434 109.221 76.1885 109.813C75.9429 110.406 75.8786 111.058 76.0036 111.687C76.1286 112.316 76.4373 112.894 76.8908 113.347C77.3442 113.801 77.9219 114.11 78.5509 114.235C79.1799 114.36 79.8319 114.296 80.4244 114.051C81.0169 113.805 81.5234 113.39 81.8797 112.856C82.236 112.323 82.4262 111.696 82.4262 111.055C82.4262 110.195 82.0847 109.371 81.4768 108.762C80.8689 108.154 80.0445 107.813 79.1847 107.813ZM79.1847 112.789C78.8416 112.789 78.5062 112.687 78.2209 112.496C77.9357 112.306 77.7133 112.035 77.5821 111.718C77.4508 111.401 77.4165 111.052 77.4835 110.715C77.5505 110.379 77.7158 110.07 77.9585 109.827C78.2012 109.585 78.5103 109.419 78.8468 109.353C79.1834 109.286 79.5322 109.32 79.8491 109.452C80.166 109.583 80.4369 109.806 80.6274 110.091C80.8179 110.376 80.9194 110.712 80.9193 111.055C80.9193 111.283 80.8744 111.508 80.7872 111.719C80.7 111.929 80.5722 112.12 80.4112 112.281C80.2501 112.442 80.0588 112.57 79.8484 112.657C79.638 112.744 79.4124 112.789 79.1847 112.789Z" fill="white"/>
<path d="M78.4068 106.081C78.3009 106.081 78.1974 106.05 78.1094 105.991C78.0214 105.932 77.9528 105.848 77.9122 105.751L75.6384 100.278H64.8364C64.6944 100.278 64.5581 100.222 64.4577 100.121C64.3572 100.021 64.3008 99.8847 64.3008 99.7427C64.3008 99.6006 64.3572 99.4644 64.4577 99.3639C64.5581 99.2635 64.6944 99.207 64.8364 99.207H75.9955C76.1013 99.2071 76.2048 99.2385 76.2928 99.2972C76.3809 99.356 76.4495 99.4396 76.4901 99.5373L78.9004 105.34C78.9342 105.421 78.9474 105.51 78.9388 105.598C78.9302 105.685 78.9001 105.769 78.8512 105.843C78.8023 105.916 78.7361 105.976 78.6584 106.018C78.5807 106.059 78.494 106.081 78.4059 106.081H78.4068Z" fill="white"/>
<path d="M67.8047 96.0831C67.8047 95.5153 68.0591 95.0547 68.3734 95.0547C68.6876 95.0547 68.9411 95.5153 68.9411 96.0831C68.9411 96.6509 68.6867 97.1115 68.3734 97.1115C68.06 97.1115 67.8047 96.6509 67.8047 96.0831Z" fill="white"/>
<path d="M70.2754 96.0831C70.2754 95.5153 70.5298 95.0547 70.8441 95.0547C71.1583 95.0547 71.4118 95.5153 71.4118 96.0831C71.4118 96.6509 71.1574 97.1115 70.8441 97.1115C70.5307 97.1115 70.2754 96.6509 70.2754 96.0831Z" fill="white"/>
<path d="M72.7461 96.0831C72.7461 95.5153 73.0005 95.0547 73.3139 95.0547C73.6272 95.0547 73.8817 95.5153 73.8817 96.0831C73.8817 96.6509 73.6272 97.1115 73.3139 97.1115C73.0005 97.1115 72.7461 96.6509 72.7461 96.0831Z" fill="white"/>
<path d="M43.1157 88.1201C43.0099 88.1201 42.9064 88.0887 42.8184 88.0299C42.7304 87.9711 42.6617 87.8876 42.6212 87.7898L40.3474 82.3174H29.5454C29.4033 82.3174 29.2671 82.2609 29.1666 82.1605C29.0662 82.06 29.0098 81.9238 29.0098 81.7817C29.0098 81.6397 29.0662 81.5034 29.1666 81.403C29.2671 81.3025 29.4033 81.2461 29.5454 81.2461H40.7045C40.8103 81.2461 40.9138 81.2775 41.0018 81.3363C41.0899 81.3951 41.1585 81.4786 41.1991 81.5764L43.6094 87.3791C43.6638 87.5103 43.6639 87.6577 43.6097 87.789C43.5555 87.9202 43.4513 88.0245 43.3202 88.079C43.2555 88.1064 43.186 88.1203 43.1157 88.1201Z" fill="#362E94"/>
<path d="M32.5137 78.1183C32.5137 77.5505 32.7681 77.0898 33.0814 77.0898C33.3948 77.0898 33.6501 77.5505 33.6501 78.1183C33.6501 78.686 33.3957 79.1467 33.0814 79.1467C32.7672 79.1467 32.5137 78.6869 32.5137 78.1183Z" fill="#362E94"/>
<path d="M34.9844 78.1183C34.9844 77.5505 35.2388 77.0898 35.553 77.0898C35.8673 77.0898 36.1208 77.5505 36.1208 78.1183C36.1208 78.686 35.8664 79.1467 35.553 79.1467C35.2397 79.1467 34.9844 78.6869 34.9844 78.1183Z" fill="#362E94"/>
<path d="M37.4551 78.1183C37.4551 77.5505 37.7086 77.0898 38.0229 77.0898C38.3371 77.0898 38.5906 77.5505 38.5906 78.1183C38.5906 78.686 38.3362 79.1467 38.0229 79.1467C37.7095 79.1467 37.4551 78.6869 37.4551 78.1183Z" fill="#362E94"/>
<path d="M47.3761 92.791C47.6293 91.3537 46.6694 89.9833 45.2321 89.7302C43.7948 89.477 42.4245 90.4369 42.1713 91.8742C41.9181 93.3114 42.878 94.6818 44.3153 94.935C45.7526 95.1881 47.1229 94.2282 47.3761 92.791Z" fill="#362E94"/>
<path d="M44.7733 93.1443C45.222 93.1443 45.5857 92.7806 45.5857 92.3319C45.5857 91.8832 45.222 91.5195 44.7733 91.5195C44.3247 91.5195 43.9609 91.8832 43.9609 92.3319C43.9609 92.7806 44.3247 93.1443 44.7733 93.1443Z" fill="white"/>
<path d="M33.2143 142.504H27.4062V150.36H33.2143V142.504Z" fill="#807DFB"/>
<path d="M40.4448 135.016H34.6367V150.362H40.4448V135.016Z" fill="#CED3F8"/>
<path d="M47.6772 130.602H41.8691V150.361H47.6772V130.602Z" fill="#6B67E9"/>
<path d="M47.6772 128.297H41.8691V130.602H47.6772V128.297Z" fill="#5652CC"/>
<path d="M54.9077 138.309H49.0996V150.36H54.9077V138.309Z" fill="#6B67E9"/>
<path d="M62.1382 140.938H56.3301V150.364H62.1382V140.938Z" fill="#ED9F00"/>
<path d="M160.65 59.2305H158.611V61.2695H160.65V59.2305Z" fill="#BBC0E6"/>
<path d="M171.798 59.6758H162.4V61.0095H171.798V59.6758Z" fill="#807DFB"/>
<path d="M160.65 62.6875H158.611V64.7265H160.65V62.6875Z" fill="#362E94"/>
<path d="M171.798 63.1328H162.4V64.4665H171.798V63.1328Z" fill="#CED3F8"/>
<path d="M160.65 66.1484H158.611V68.1874H160.65V66.1484Z" fill="#807DFB"/>
<path d="M171.798 66.5938H162.4V67.9275H171.798V66.5938Z" fill="#807DFB"/>
<path d="M66.2524 31.3236L68.4333 29.1436L55.3817 16.0919L49.7262 21.7465L41.656 13.6762L43.5021 11.8292L34.041 8.24219L37.6289 17.7033L39.475 15.8563L49.7262 26.1083L51.9072 23.9274L55.3817 20.4529L66.2524 31.3236Z" fill="#FFD03E"/>
<path d="M145.328 42.2581V49.2883L140.242 53.5957H145.328V57.0952H167.021V32.5273L145.328 42.2581Z" fill="#FCBA06"/>
<path d="M132.411 69.3663C133.525 68.0584 131.34 65.1285 130.784 64.1099C130.032 62.744 127.892 55.3281 127.892 55.3281C125.169 58.6187 123.793 66.1239 127.062 68.9253C126.58 69.4008 126.245 70.0047 126.095 70.6653C125.946 71.3258 125.99 72.0153 126.221 72.6519C126.452 73.2885 126.861 73.8454 127.399 74.2565C127.937 74.6677 128.582 74.9158 129.257 74.9714C129.931 75.0271 130.608 74.8879 131.206 74.5704C131.805 74.253 132.299 73.7705 132.631 73.1804C132.963 72.5902 133.119 71.9172 133.08 71.2411C133.041 70.5651 132.809 69.9143 132.411 69.3663Z" fill="#20196F"/>
<path d="M132.163 67.0195C128.631 69.662 122.503 73.39 112.113 78.0242C113.258 79.8569 114.119 80.3569 114.119 80.3569C116.924 79.6766 128.903 75.6611 132.559 73.8676C132.77 71.6207 132.163 67.0195 132.163 67.0195Z" fill="url(#paint0_linear_144_1623)"/>
<path d="M127.537 144.847V143.715H129.911L130.03 146.947H127.985L127.537 144.847Z" fill="#EECABE"/>
<path d="M126.757 144.109C127.087 143.74 128.696 146.462 129.29 146.393C129.883 146.324 129.58 145.335 129.963 145.349C130.346 145.362 130.874 146.265 130.848 147.929C130.491 147.929 130.187 147.855 129.858 148.159C129.528 148.462 128.538 148.793 127.773 148.793C127.008 148.793 126.123 149.373 124.79 149.373C123.458 149.373 121.81 149.432 121.539 149.161C121.357 148.964 121.21 148.736 121.104 148.489C121.328 148.12 121.261 147.672 122.231 147.544C123.26 147.405 125.398 145.626 126.757 144.109Z" fill="#423EAD"/>
<path d="M130.849 147.927C130.775 147.927 130.703 147.927 130.634 147.922C130.541 147.922 130.422 147.928 130.277 147.941C130.118 147.97 129.972 148.046 129.855 148.158C129.525 148.461 128.536 148.791 127.771 148.791C127.006 148.791 126.121 149.372 124.788 149.372C123.455 149.372 121.807 149.431 121.537 149.16C121.355 148.962 121.207 148.735 121.101 148.488C121.035 148.481 120.858 148.474 120.883 148.804C120.909 149.133 121.185 149.767 121.783 150.075C122.324 150.354 122.559 150.427 123.007 150.427H126.741C126.874 150.427 127.23 150.15 127.813 150.137C128.396 150.123 128.389 150.427 128.89 150.427C129.392 150.427 131.151 150.506 131.39 149.767C131.629 149.028 131.14 148.025 130.849 147.927Z" fill="#B9BEE4"/>
<path d="M126.106 145.893C126.04 145.895 125.976 145.87 125.927 145.825L125.391 145.328C125.341 145.282 125.312 145.218 125.309 145.15C125.306 145.082 125.33 145.016 125.376 144.966C125.422 144.916 125.486 144.886 125.554 144.883C125.622 144.88 125.689 144.904 125.739 144.951L126.274 145.448C126.313 145.483 126.34 145.528 126.352 145.579C126.364 145.629 126.36 145.682 126.342 145.731C126.323 145.779 126.29 145.821 126.247 145.85C126.204 145.879 126.153 145.894 126.101 145.894L126.106 145.893Z" fill="white"/>
<path d="M125.297 146.553C125.262 146.553 125.226 146.546 125.193 146.531C125.161 146.517 125.131 146.496 125.107 146.469L124.619 145.928C124.596 145.903 124.579 145.874 124.568 145.842C124.556 145.811 124.551 145.777 124.553 145.743C124.555 145.71 124.563 145.677 124.577 145.646C124.592 145.616 124.612 145.589 124.637 145.566C124.662 145.544 124.691 145.526 124.723 145.515C124.755 145.504 124.788 145.499 124.822 145.5C124.856 145.502 124.889 145.51 124.919 145.525C124.949 145.539 124.977 145.559 124.999 145.584L125.488 146.12C125.521 146.157 125.543 146.203 125.551 146.252C125.558 146.301 125.552 146.351 125.532 146.396C125.511 146.441 125.479 146.48 125.437 146.507C125.395 146.534 125.347 146.548 125.297 146.549V146.553Z" fill="white"/>
<path d="M124.403 147.123C124.363 147.123 124.323 147.114 124.287 147.095C124.25 147.077 124.219 147.05 124.195 147.017L123.865 146.559C123.845 146.532 123.831 146.501 123.823 146.468C123.816 146.435 123.814 146.402 123.82 146.368C123.825 146.335 123.837 146.303 123.854 146.274C123.872 146.246 123.895 146.221 123.922 146.201C123.95 146.181 123.98 146.167 124.013 146.159C124.046 146.152 124.08 146.15 124.113 146.156C124.146 146.161 124.178 146.173 124.207 146.19C124.236 146.208 124.261 146.231 124.28 146.258L124.612 146.716C124.651 146.771 124.667 146.84 124.656 146.906C124.645 146.973 124.609 147.033 124.554 147.073C124.51 147.105 124.458 147.123 124.403 147.123Z" fill="white"/>
<path d="M137.615 90.2812H127.804C126.753 93.7254 124.217 105.957 124.217 119.372C124.148 125.771 126.171 137.214 127.409 143.726C128.486 143.759 128.92 143.759 129.998 143.759C130.97 128.092 131.582 125.02 131.561 120.12C134.278 110.604 140.375 98.7345 137.615 90.2812Z" fill="#362E94"/>
<path d="M142.608 143.828C142.504 143.421 142.33 142.73 142.33 142.73L144.632 142.148L145.539 145.252L143.557 145.754L142.608 143.828Z" fill="#EECABE"/>
<path d="M141.668 143.299C141.898 142.861 144.125 145.105 144.684 144.893C145.243 144.682 144.706 143.797 145.08 143.716C145.454 143.635 146.188 144.382 146.57 145.999C146.225 146.089 145.912 146.089 145.667 146.466C145.421 146.844 144.543 147.404 143.801 147.591C143.059 147.779 142.344 148.558 141.052 148.885C139.761 149.211 138.055 149.704 137.726 149.51C137.501 149.363 137.302 149.178 137.139 148.964C137.266 148.551 137.213 148.103 138.121 147.74C139.087 147.354 140.722 145.103 141.668 143.299Z" fill="#423EAD"/>
<path d="M146.571 146C146.499 146.019 146.429 146.033 146.36 146.048C146.271 146.074 146.158 146.109 146.023 146.153C145.875 146.22 145.751 146.33 145.666 146.467C145.42 146.842 144.542 147.404 143.8 147.592C143.058 147.779 142.343 148.559 141.051 148.885C139.759 149.212 138.053 149.705 137.725 149.51C137.499 149.363 137.301 149.179 137.137 148.965C137.072 148.975 136.898 149.012 137.004 149.322C137.111 149.632 137.532 150.182 138.188 150.333C138.781 150.471 139.148 150.454 139.582 150.343L143.202 149.428C143.331 149.396 143.608 149.04 144.168 148.885C144.727 148.731 144.798 149.025 145.283 148.902C145.769 148.779 147.495 148.425 147.544 147.652C147.593 146.88 146.877 146.025 146.571 146Z" fill="#B9BEE4"/>
<path d="M141.41 145.198C141.367 145.199 141.325 145.188 141.288 145.167L140.642 144.822C140.609 144.808 140.579 144.788 140.554 144.762C140.529 144.735 140.509 144.704 140.497 144.67C140.485 144.636 140.48 144.6 140.483 144.564C140.486 144.528 140.497 144.493 140.514 144.461C140.531 144.43 140.555 144.402 140.584 144.38C140.613 144.358 140.646 144.343 140.681 144.335C140.716 144.327 140.753 144.326 140.788 144.333C140.824 144.34 140.857 144.354 140.887 144.375L141.531 144.724C141.582 144.751 141.622 144.795 141.645 144.847C141.668 144.899 141.673 144.958 141.659 145.013C141.645 145.069 141.613 145.118 141.567 145.153C141.522 145.188 141.466 145.207 141.409 145.207L141.41 145.198Z" fill="white"/>
<path d="M140.79 146.035C140.739 146.035 140.69 146.02 140.648 145.991L140.042 145.587C140.014 145.568 139.99 145.544 139.971 145.516C139.952 145.488 139.939 145.457 139.933 145.424C139.926 145.391 139.926 145.357 139.933 145.324C139.939 145.291 139.952 145.259 139.971 145.231C139.99 145.203 140.014 145.179 140.042 145.16C140.07 145.142 140.101 145.129 140.134 145.122C140.167 145.116 140.201 145.116 140.234 145.122C140.267 145.129 140.299 145.142 140.327 145.16L140.933 145.565C140.978 145.595 141.013 145.64 141.032 145.692C141.05 145.744 141.051 145.8 141.035 145.853C141.019 145.905 140.987 145.952 140.943 145.984C140.899 146.017 140.845 146.035 140.79 146.035Z" fill="white"/>
<path d="M140.064 146.808C140.004 146.808 139.946 146.787 139.9 146.748L139.467 146.385C139.439 146.365 139.415 146.338 139.398 146.308C139.38 146.278 139.369 146.244 139.365 146.209C139.361 146.174 139.364 146.139 139.374 146.106C139.384 146.072 139.401 146.041 139.423 146.014C139.446 145.987 139.473 145.965 139.505 145.949C139.536 145.934 139.57 145.924 139.605 145.922C139.64 145.92 139.675 145.925 139.708 145.937C139.741 145.949 139.771 145.968 139.797 145.992L140.23 146.354C140.27 146.388 140.299 146.434 140.312 146.485C140.326 146.535 140.323 146.589 140.305 146.639C140.287 146.688 140.255 146.731 140.211 146.761C140.168 146.791 140.117 146.808 140.064 146.808Z" fill="white"/>
<path d="M139.918 90.2812H129.473C129.294 93.878 129.855 106.937 133.143 119.943C134.644 126.164 139.411 136.761 142.207 142.772C143.26 142.54 143.681 142.433 144.725 142.169C141.827 126.742 141.818 125.023 140.28 119.307C141.625 109.285 143.289 97.1061 139.918 90.2812Z" fill="#423EAD"/>
<path d="M130.504 69.1696C130.537 68.9232 130.696 68.742 130.861 68.7634C131.026 68.7849 131.129 69.0036 131.095 69.25C131.061 69.4964 130.902 69.6776 130.738 69.6562C130.574 69.6347 130.471 69.416 130.504 69.1696Z" fill="#BBC0E6"/>
<path d="M130.538 71.771C130.702 71.771 130.835 71.5695 130.835 71.321C130.835 71.0725 130.702 70.8711 130.538 70.8711C130.373 70.8711 130.24 71.0725 130.24 71.321C130.24 71.5695 130.373 71.771 130.538 71.771Z" fill="#BBC0E6"/>
<path d="M130.198 73.4422C130.189 73.1931 130.314 72.9869 130.478 72.9806C130.642 72.9744 130.782 73.1708 130.792 73.4189C130.802 73.6671 130.676 73.8742 130.512 73.8805C130.348 73.8867 130.209 73.6903 130.198 73.4422Z" fill="#BBC0E6"/>
<path d="M134.42 65.8242C137.874 65.8358 139.33 69.0247 139.448 70.8699C139.423 80.5542 139.918 90.2885 139.918 90.2885C137.295 90.2751 128.15 90.2832 128.15 90.2832C128.434 88.5147 128.864 85.3642 128.741 82.3495C128.588 78.4929 126.922 77.1387 125.766 74.5899C126.511 72.2135 130.32 65.8108 134.42 65.8242Z" fill="#FAB80A"/>
<path d="M130.203 68.4883C130.301 68.3615 130.457 68.3177 130.55 68.391C130.644 68.4642 130.64 68.6248 130.543 68.748C130.447 68.8712 130.29 68.9186 130.196 68.8454C130.102 68.7722 130.109 68.615 130.203 68.4883Z" fill="#6B67E9"/>
<path d="M129.199 70.0703C129.296 69.9435 129.453 69.8998 129.546 69.973C129.64 70.0462 129.636 70.2069 129.539 70.3301C129.443 70.4533 129.285 70.5006 129.191 70.4274C129.097 70.3542 129.101 70.1971 129.199 70.0703Z" fill="#6B67E9"/>
<path d="M128.219 71.6406C128.317 71.5138 128.472 71.4701 128.566 71.5433C128.66 71.6165 128.655 71.7772 128.559 71.9004C128.462 72.0236 128.304 72.0709 128.211 71.9977C128.117 71.9245 128.12 71.7674 128.219 71.6406Z" fill="#6B67E9"/>
<path d="M108.183 67.1402L104.949 63.9062L101.177 67.6786L104.411 70.9125L108.183 67.1402Z" fill="#20196F"/>
<path d="M133.972 89.4691L109.914 65.4102L106.299 69.0257L133.973 96.7002C134.448 96.2254 134.825 95.6617 135.082 95.0413C135.339 94.4209 135.471 93.756 135.471 93.0845C135.471 92.413 135.338 91.7481 135.081 91.1278C134.824 90.5075 134.447 89.9439 133.972 89.4691Z" fill="#362E94"/>
<path d="M102.682 72.639L126.74 96.698C127.215 97.1728 127.778 97.5495 128.399 97.8065C129.019 98.0635 129.684 98.1958 130.355 98.1958C131.027 98.1958 131.692 98.0635 132.312 97.8065C132.932 97.5495 133.496 97.1728 133.971 96.698L106.296 69.0234L102.682 72.639Z" fill="#20196F"/>
<path d="M84.782 23.1016C71.3018 23.1016 60.3731 34.0294 60.3731 47.5096C60.3689 50.7157 60.9983 53.891 62.2251 56.853C63.452 59.8151 65.2521 62.5055 67.522 64.7696L84.782 47.5096V23.1016Z" fill="#FCBA06"/>
<path d="M67.5234 64.7678C69.7877 67.0376 72.4781 68.8376 75.4401 70.0645C78.4021 71.2913 81.5774 71.9208 84.7834 71.9168C98.2636 71.9168 109.191 60.9889 109.191 47.5078H84.7834L67.5234 64.7678Z" fill="#5652CC"/>
<path d="M84.7832 23.1016V47.5096H109.191C109.191 34.0294 98.2634 23.1016 84.7832 23.1016Z" fill="#807DFB"/>
<path d="M84.5938 47.3203L67.3359 64.5781L67.7147 64.9569L84.9725 47.699L84.5938 47.3203Z" fill="white"/>
<path d="M109.191 47.7783H84.5156V23.1016H85.0513V47.2427H109.191V47.7783Z" fill="white"/>
<path d="M84.7825 20.6992C69.9757 20.6992 57.9766 32.7019 57.9766 47.5087C57.9766 62.3155 69.9802 74.3191 84.7869 74.3191C99.5937 74.3191 111.596 62.3155 111.596 47.5087C111.596 32.7019 99.5884 20.6992 84.7825 20.6992ZM84.7825 71.9176C71.3023 71.9176 60.3735 60.9898 60.3735 47.5087C60.3735 34.0276 71.3014 23.1007 84.7825 23.1007C98.2635 23.1007 109.191 34.0285 109.191 47.5087C109.191 60.9889 98.2627 71.9176 84.7825 71.9176Z" fill="#362E94"/>
<g style="mix-blend-mode:multiply">
<path d="M100.286 28.6562C103.886 33.0201 105.851 38.5031 105.843 44.1602C105.843 57.6404 94.9147 68.5692 81.4346 68.5692C75.7772 68.5776 70.294 66.6126 65.9297 63.0128C68.2173 65.7997 71.095 68.044 74.3552 69.5838C77.6154 71.1236 81.1768 71.9204 84.7823 71.9169C98.2625 71.9169 109.19 60.989 109.19 47.508C109.194 43.9026 108.397 40.3414 106.857 37.0813C105.317 33.8213 103.073 30.9437 100.286 28.6562Z" fill="#D1D7F3"/>
</g>
<path d="M80.9982 27.1625C81.9918 28.1561 77.289 30.8717 72.7137 35.447C68.1385 40.0222 65.4219 44.726 64.4283 43.7324C63.4347 42.7387 64.539 36.4245 69.1152 31.8493C73.6913 27.274 80.0046 26.1644 80.9982 27.1625Z" fill="white"/>
<path d="M92.5189 39.7092C92.8325 39.7092 93.0867 39.2487 93.0867 38.6808C93.0867 38.1128 92.8325 37.6523 92.5189 37.6523C92.2054 37.6523 91.9512 38.1128 91.9512 38.6808C91.9512 39.2487 92.2054 39.7092 92.5189 39.7092Z" fill="#362E94"/>
<path d="M94.4219 38.6769C94.4219 38.1091 94.6763 37.6484 94.9905 37.6484C95.3048 37.6484 95.561 38.1127 95.561 38.6769C95.561 39.2411 95.3066 39.7053 94.9932 39.7053C94.6799 39.7053 94.4219 39.2482 94.4219 38.6769Z" fill="#362E94"/>
<path d="M96.8926 38.6769C96.8926 38.1091 97.147 37.6484 97.4604 37.6484C97.7737 37.6484 98.029 38.1091 98.029 38.6769C98.029 39.2446 97.7746 39.7053 97.4604 39.7053C97.1461 39.7053 96.8926 39.2482 96.8926 38.6769Z" fill="#362E94"/>
<path d="M124.815 84.1171C123.985 84.0796 122.429 82.3602 122.112 82.5682C121.794 82.7762 122.9 83.4565 122.832 83.7127C122.764 83.9689 120.261 83.3797 119.628 83.5627C118.995 83.7457 118.875 84.2769 118.956 84.634C119.045 85.0527 119.886 86.0097 121.233 86.2195C122.58 86.4293 123.476 86.0356 124.551 86.0017C124.646 84.9839 124.815 84.1171 124.815 84.1171Z" fill="#F0CCC0"/>
<path d="M135.951 68.0374C133.765 68.6355 133.741 70.6405 134.433 73.7062C135.148 76.8682 135.951 81.9782 136.299 83.1762C133.128 83.3949 128.563 83.7047 124.811 84.1189C124.754 84.5707 124.543 86.0062 124.543 86.0062C127.027 86.4016 138.654 87.8318 140.209 87.4613C141.727 87.1015 141.213 66.5965 135.951 68.0374Z" fill="#F6F6FB"/>
<path d="M135.3 65.9355C134.525 64.3214 134.641 62.7065 134.903 61.6039C134.903 61.6039 135.754 58.8793 134.98 56.6377C133.992 53.781 129.203 54.5407 128.112 55.628C126.752 57.1653 126.979 58.7526 127.259 60.8558C127.259 60.8558 127.023 62.7573 127.047 62.8868C127.082 63.0752 127.672 63.085 127.73 63.1662C127.788 63.2475 127.958 64.4294 128.452 64.8017C128.945 65.174 130.024 64.699 130.427 64.8088C131.051 64.9802 131.855 65.2802 131.42 66.8693C132.058 67.6084 134.12 66.7478 135.3 65.9355Z" fill="#F5D1C7"/>
<path d="M145.394 69.8895C145.663 69.4548 145.825 68.9625 145.867 68.453C145.91 67.9434 145.831 67.4311 145.637 66.958C145.443 66.4849 145.14 66.0643 144.752 65.7308C144.365 65.3973 143.904 65.1604 143.407 65.0393L143.288 65.0081C141.492 64.6367 137.185 61.705 137.071 59.4169C136.886 55.7023 134.884 53.7856 131.62 53.7427C129.12 53.7097 127.489 55.1756 127.424 56.5504C127.937 60.1918 129.307 60.8051 130.77 60.5998C132.084 60.4159 132.912 61.2443 132.832 62.3183C132.764 63.2619 132.988 64.3332 133.472 65.3214C132.353 66.4391 131.476 69.6333 133.243 71.3919C134.438 72.5846 136.174 72.8649 137.633 72.1177C137.507 72.8643 137.572 73.6307 137.823 74.3452C138.073 75.0597 138.501 75.699 139.065 76.2034C139.63 76.7078 140.313 77.0608 141.052 77.2293C141.79 77.3979 142.558 77.3765 143.286 77.1672C144.014 76.958 144.676 76.5676 145.212 76.0326C145.748 75.4976 146.139 74.8355 146.35 74.1082C146.56 73.3809 146.583 72.6121 146.415 71.8737C146.248 71.1353 145.896 70.4514 145.393 69.8859L145.394 69.8895Z" fill="#362E92"/>
<path d="M105.602 75.9382C105.674 74.584 106.227 74.4376 107.076 75.0911C107.926 75.7445 107.791 76.6426 107.891 77.8505L108.401 78.3611C107.776 78.6057 106.926 78.2933 106.449 77.8505C105.972 77.4077 105.567 76.573 105.602 75.9382Z" fill="#F0CCC0"/>
<path d="M141.943 12.1907L143.398 9.33397C143.438 9.25482 143.493 9.18435 143.56 9.12663C143.628 9.06891 143.706 9.02509 143.79 8.9977C143.874 8.9703 143.963 8.95988 144.051 8.96703C144.14 8.97419 144.226 8.99877 144.304 9.03937L147.161 10.4945C147.32 10.5753 147.44 10.7157 147.495 10.885C147.55 11.0542 147.535 11.2384 147.455 11.3971L146.001 14.2538C145.961 14.3324 145.906 14.4024 145.839 14.4597C145.772 14.517 145.694 14.5606 145.61 14.5878C145.526 14.6151 145.438 14.6256 145.35 14.6187C145.262 14.6118 145.177 14.5876 145.098 14.5475L142.241 13.0923C142.162 13.0528 142.092 12.9981 142.034 12.9314C141.977 12.8647 141.933 12.7872 141.905 12.7034C141.877 12.6197 141.866 12.5312 141.873 12.4433C141.879 12.3553 141.903 12.2694 141.943 12.1907Z" fill="#6B67E9"/>
<path d="M13.6712 41.1624L14.347 45.8822C14.3636 45.9988 14.4107 46.109 14.4834 46.2016C14.5562 46.2942 14.652 46.3661 14.7613 46.4099C14.8707 46.4537 14.9896 46.4679 15.1062 46.4511C15.2227 46.4344 15.3328 46.3872 15.4254 46.3143L19.1748 43.3683C19.2674 43.2955 19.3392 43.1996 19.383 43.0902C19.4268 42.9809 19.441 42.8619 19.4243 42.7453C19.4076 42.6287 19.3604 42.5186 19.2877 42.4259C19.2149 42.3333 19.119 42.2615 19.0097 42.2176L14.5844 40.4429C14.475 40.3989 14.3559 40.3846 14.2392 40.4013C14.1225 40.4181 14.0122 40.4654 13.9196 40.5383C13.827 40.6113 13.7552 40.7075 13.7116 40.817C13.668 40.9266 13.654 41.0457 13.6712 41.1624Z" fill="#5652CC"/>
<path d="M99.8029 156.517L96.4311 159.889C96.3477 159.972 96.2878 160.076 96.2573 160.19C96.2268 160.303 96.2267 160.423 96.2572 160.537C96.2877 160.651 96.3477 160.754 96.431 160.838C96.5143 160.921 96.6181 160.981 96.7319 161.011L101.337 162.245C101.451 162.275 101.571 162.275 101.685 162.245C101.798 162.214 101.902 162.155 101.985 162.071C102.069 161.988 102.128 161.884 102.159 161.771C102.189 161.657 102.189 161.537 102.159 161.423L100.925 156.818C100.895 156.704 100.835 156.6 100.752 156.517C100.668 156.434 100.565 156.374 100.451 156.343C100.337 156.313 100.217 156.313 100.104 156.343C99.9898 156.374 99.8861 156.434 99.8029 156.517Z" fill="#FFD03E"/>
</g>
<defs>
<linearGradient id="paint0_linear_144_1623" x1="112.138" y1="76.4385" x2="133.624" y2="70.9009" gradientUnits="userSpaceOnUse">
<stop stop-color="#E9EDF7"/>
<stop offset="0.46" stop-color="#DFE4F7"/>
<stop offset="1" stop-color="#CED3F8"/>
</linearGradient>
<clipPath id="clip0_144_1623">
<rect width="184.116" height="178.779" fill="white"/>
</clipPath>
</defs>
</svg>
