<svg width="182" height="183" viewBox="0 0 182 183" fill="none" xmlns="http://www.w3.org/2000/svg">
<path d="M25.3729 109.113C13.2315 106.429 5.40296 115.036 4.26172 129.634C15.6965 129.866 28.3235 122.38 25.3729 109.113Z" fill="#807DFB"/>
<path d="M6.72218 127.312C6.64406 127.312 6.5688 127.283 6.51107 127.23C6.45086 127.174 6.41535 127.097 6.41232 127.014C6.40929 126.932 6.439 126.852 6.49492 126.792C9.45421 123.594 13.7336 119.663 17.5075 116.194C20.6121 113.338 23.5465 110.646 25.1435 108.906C25.1706 108.874 25.2038 108.848 25.2412 108.829C25.2785 108.811 25.3192 108.8 25.3609 108.797C25.4025 108.795 25.4442 108.801 25.4835 108.815C25.5229 108.829 25.559 108.85 25.5897 108.879C25.6204 108.907 25.6451 108.941 25.6624 108.979C25.6796 109.017 25.689 109.058 25.69 109.1C25.6911 109.142 25.6837 109.183 25.6683 109.222C25.6529 109.261 25.6299 109.296 25.6005 109.326C23.9861 111.084 21.043 113.789 17.9285 116.652C14.162 120.113 9.89258 124.035 6.95067 127.208C6.922 127.24 6.88686 127.266 6.8475 127.284C6.80814 127.302 6.76544 127.312 6.72218 127.312Z" fill="#5652CC"/>
<path d="M24.7365 108.275C23.1147 99.821 15.496 97.202 5.90039 100.473C8.88824 107.811 17.1092 113.788 24.7365 108.275Z" fill="#362E94"/>
<path d="M100.583 39.2131C94.8606 28.1744 101.159 18.3912 114.968 13.5195C118.141 24.5135 114.164 38.6443 100.583 39.2131Z" fill="#DDE2F8"/>
<path d="M100.583 39.5254C100.524 39.5251 100.466 39.5083 100.417 39.477C100.347 39.4326 100.298 39.3626 100.281 39.2823C100.263 39.202 100.278 39.1179 100.322 39.0485C101.59 37.0616 103.438 33.5298 105.394 29.7944C107.773 25.2518 110.469 20.1081 112.796 16.4186C112.818 16.3834 112.846 16.3527 112.88 16.3285C112.913 16.3043 112.951 16.287 112.991 16.2777C113.031 16.2683 113.073 16.267 113.114 16.2739C113.154 16.2808 113.193 16.2958 113.228 16.3179C113.263 16.34 113.293 16.3689 113.316 16.4028C113.34 16.4367 113.357 16.4749 113.365 16.5153C113.374 16.5556 113.374 16.5973 113.367 16.6379C113.359 16.6784 113.343 16.717 113.32 16.7514C111.007 20.4136 108.317 25.5498 105.945 30.0825C103.982 33.8291 102.129 37.3696 100.845 39.3814C100.817 39.4256 100.778 39.4621 100.733 39.4873C100.687 39.5125 100.635 39.5256 100.583 39.5254Z" fill="#CED3F8"/>
<path d="M100.625 34.5241C92.2477 32.5458 89.954 24.8229 93.6298 15.375C100.834 18.6708 106.457 27.1376 100.625 34.5241Z" fill="#CED3F8"/>
<path d="M146.925 107.908C143.422 106.199 140.565 100.37 141.818 96.7487C143.071 93.1275 146.704 93.356 146.838 91.2064C146.973 89.0567 143.926 85.6181 145.348 83.0488C147.868 78.48 154.538 83.9044 156.743 80.729C158.949 77.5536 155.036 74.7682 156.628 71.4749C158.22 68.1815 163.469 72.9812 166.811 70.0306C170.153 67.08 178.393 62.1127 180.69 67.2117C182.505 71.2414 176.904 71.3172 176.477 73.1725C175.992 75.2935 178.608 76.2336 177.56 78.454C176.079 81.5921 171.599 80.5725 170.807 83.3493C170.015 86.126 173.401 87.877 170.548 90.3967C167.013 93.5149 162.368 87.7019 160.107 93.469C157.847 99.2361 165.82 98.9008 164.927 102.659C163.952 106.757 156.782 104.212 156.792 107.082C156.803 110.99 152.36 110.558 146.925 107.908Z" fill="#6B67E9"/>
<path d="M146.036 107.687C145.987 107.687 145.939 107.675 145.895 107.653C145.851 107.631 145.814 107.599 145.785 107.559C145.756 107.52 145.737 107.474 145.729 107.426C145.721 107.377 145.724 107.328 145.739 107.281C145.825 107.016 145.845 106.568 145.863 106.048C145.921 104.799 145.999 103.086 147.116 102.1C147.698 101.613 148.315 101.17 148.963 100.775C149.98 100.121 151.033 99.4425 151.772 98.3906C153.298 96.215 153.362 94.0753 153.417 92.1815C153.46 90.731 153.499 89.3613 154.212 88.2349C154.879 87.1794 155.788 87.0775 156.667 86.9807C157.509 86.8863 158.38 86.7894 159.322 85.9574C160.225 85.1602 160.341 84.569 160.474 83.8848C160.629 83.0875 160.805 82.1822 162.203 80.9479C163.402 79.8911 164.331 79.7954 165.229 79.706C166.079 79.6191 166.883 79.5371 168.003 78.638C170.19 76.8846 170.7 74.8989 171.074 73.4497C171.322 72.4972 171.512 71.7459 172.067 71.3075C173.318 70.314 174.442 70.8816 174.488 70.9064C174.526 70.9239 174.561 70.949 174.589 70.9803C174.618 71.0116 174.639 71.0483 174.653 71.0883C174.667 71.1283 174.672 71.1706 174.669 71.2128C174.666 71.2549 174.654 71.2959 174.634 71.3333C174.615 71.3708 174.587 71.4038 174.555 71.4304C174.522 71.4569 174.484 71.4766 174.443 71.488C174.402 71.4994 174.36 71.5024 174.318 71.4968C174.276 71.4911 174.236 71.477 174.2 71.4553C174.169 71.4404 173.379 71.0579 172.454 71.7931C172.065 72.1023 171.893 72.7654 171.677 73.6036C171.283 75.1386 170.741 77.2397 168.394 79.1224C167.131 80.1357 166.159 80.24 165.289 80.3245C164.42 80.4089 163.663 80.4909 162.613 81.416C161.371 82.5113 161.231 83.2366 161.082 84.0065C160.941 84.7354 160.794 85.488 159.732 86.4256C158.642 87.3868 157.585 87.5047 156.736 87.5991C155.886 87.6935 155.245 87.7668 154.736 88.569C154.115 89.5513 154.078 90.7795 154.036 92.2026C153.978 94.1784 153.912 96.4174 152.279 98.7446C151.47 99.8957 150.366 100.607 149.298 101.295C148.676 101.673 148.083 102.097 147.525 102.563C146.606 103.375 146.538 104.872 146.483 106.074C146.457 106.638 146.435 107.124 146.325 107.468C146.306 107.531 146.268 107.585 146.216 107.624C146.164 107.663 146.101 107.685 146.036 107.687Z" fill="#807DFB"/>
<path d="M147.383 108.247C144.586 118.531 151.633 125.587 164.085 127.169C164.752 117.383 158.862 106.265 147.383 108.247Z" fill="#FCBA06"/>
<path d="M161.929 125.259C161.888 125.259 161.847 125.251 161.808 125.235C161.77 125.219 161.736 125.195 161.707 125.166C159.09 122.499 155.899 118.675 153.083 115.299C150.769 112.524 148.582 109.902 147.16 108.469C147.107 108.41 147.08 108.332 147.082 108.253C147.085 108.174 147.118 108.099 147.174 108.043C147.231 107.987 147.306 107.955 147.386 107.953C147.465 107.951 147.542 107.98 147.601 108.033C149.043 109.489 151.237 112.119 153.562 114.904C156.369 118.271 159.552 122.087 162.151 124.735C162.18 124.764 162.203 124.798 162.219 124.836C162.234 124.873 162.243 124.914 162.243 124.955C162.243 124.995 162.234 125.036 162.219 125.074C162.203 125.111 162.18 125.146 162.151 125.174C162.091 125.231 162.011 125.261 161.929 125.259Z" fill="#ED9F00"/>
<path d="M33.5485 20.8401C29.9782 21.7492 27.9988 18.8905 26.9668 17.0985C28.0832 16.9035 32.6345 16.377 33.5485 20.8401Z" fill="#DDE2F8"/>
<path d="M58.8697 41.6132C58.8208 41.6124 58.7729 41.6001 58.7297 41.5772C58.6865 41.5543 58.6494 41.5215 58.6213 41.4815C54.2848 35.322 45.2828 26.6888 33.0184 20.9279C32.9801 20.9115 32.9454 20.8876 32.9165 20.8575C32.8877 20.8274 32.8651 20.7918 32.8503 20.7528C32.8355 20.7138 32.8287 20.6722 32.8303 20.6305C32.8319 20.5888 32.8419 20.5479 32.8597 20.5101C32.8775 20.4724 32.9027 20.4386 32.9338 20.4109C32.9649 20.3831 33.0013 20.3619 33.0408 20.3485C33.0803 20.3351 33.1221 20.3298 33.1637 20.3329C33.2053 20.336 33.2459 20.3475 33.283 20.3666C45.6566 26.1784 54.7468 34.8961 59.1292 41.1239C59.1765 41.1914 59.1951 41.275 59.1809 41.3562C59.1667 41.4374 59.1209 41.5097 59.0535 41.5573C58.9995 41.5945 58.9353 41.614 58.8697 41.6132Z" fill="#DDE2F8"/>
<path d="M56.9978 36.3034C55.3834 29.0412 60.2948 26.6544 63.9731 24.6836C64.301 26.9437 66.0607 34.7288 56.9978 36.3034Z" fill="#DDE2F8"/>
<path d="M52.232 30.9978C49.5223 25.6753 52.869 22.8365 55.3366 20.5664C56.0407 22.2615 58.9652 27.9628 52.232 30.9978Z" fill="#DDE2F8"/>
<path d="M46.0002 26.3647C42.6646 22.4616 44.89 19.4179 46.4969 17.0273C47.4258 18.299 51.016 22.4778 46.0002 26.3647Z" fill="#DDE2F8"/>
<path d="M39.6338 22.3934C36.9663 20.6412 37.771 18.4382 38.3125 16.7344C39.0874 17.3317 41.9535 19.2031 39.6338 22.3934Z" fill="#DDE2F8"/>
<path d="M53.715 38.377C47.8721 35.3817 44.7427 39.0513 42.2441 41.7547C44.1019 42.5346 50.3583 45.7646 53.715 38.377Z" fill="#DDE2F8"/>
<path d="M48.4231 32.703C43.8469 29.3662 40.6877 32.0733 38.1953 34.0429C39.6719 34.9569 44.5709 38.5508 48.4231 32.703Z" fill="#DDE2F8"/>
<path d="M41.188 26.9683C37.5519 25.642 35.9897 28.0164 34.7305 29.7798C35.868 30.1014 39.7636 31.5358 41.188 26.9683Z" fill="#DDE2F8"/>
<path d="M36.0422 23.4492C34.1025 22.3018 32.9525 23.4952 32.041 24.3694C32.6607 24.6761 34.7383 25.9142 36.0422 23.4492Z" fill="#DDE2F8"/>
<path d="M93.9453 166.1C93.9453 163.749 112.865 161.844 136.202 161.844C159.54 161.844 178.458 163.749 178.458 166.1C178.458 168.45 159.54 170.353 136.202 170.353C112.865 170.353 93.9453 168.449 93.9453 166.1Z" fill="#E9EFFF"/>
<path d="M15.0312 156.11C15.0312 153.76 34.7081 151.855 58.9785 151.855C83.2489 151.855 102.925 153.76 102.925 156.11C102.925 158.46 83.2489 160.365 58.9785 160.365C34.7081 160.365 15.0312 158.462 15.0312 156.11Z" fill="#E9EFFF"/>
<path d="M73.2146 32.6501L2.82227 64.7148L44.9109 157.113L115.303 125.048L73.2146 32.6501Z" fill="#423EAF"/>
<path d="M68.7926 35.5445L7.91016 63.2773L47.4995 150.188L108.382 122.456L68.7926 35.5445Z" fill="white"/>
<path d="M39.0167 43.8414C39.0064 43.4122 38.9084 42.9896 38.7286 42.5996C38.3722 41.8483 37.7345 41.2675 36.9532 40.9828C36.172 40.698 35.31 40.7323 34.5538 41.0781C33.7976 41.4238 33.2079 42.0534 32.9123 42.8306C32.6166 43.6078 32.6388 44.4701 32.9739 45.2311C33.1505 45.6191 33.404 45.9672 33.719 46.2543L25.5502 49.9798C25.2456 50.1193 25.0084 50.3734 24.8902 50.687C24.7721 51.0005 24.7825 51.348 24.9194 51.6538L27.6998 57.75L51.6474 46.8392L48.8681 40.7381C48.7274 40.4326 48.4711 40.1954 48.1556 40.0788C47.8401 39.9621 47.4911 39.9755 47.1855 40.1159L39.0167 43.8414Z" fill="#E9EDF7"/>
<path d="M34.9271 44.3417C34.8438 44.1583 34.8168 43.9545 34.8494 43.7558C34.882 43.5571 34.9727 43.3726 35.1101 43.2255C35.2476 43.0784 35.4255 42.9753 35.6215 42.9293C35.8175 42.8833 36.0228 42.8964 36.2113 42.967C36.3999 43.0376 36.5632 43.1625 36.6808 43.3259C36.7984 43.4893 36.8649 43.6839 36.8719 43.8851C36.8789 44.0863 36.8262 44.2851 36.7203 44.4563C36.6144 44.6275 36.4601 44.7635 36.2769 44.8471C36.1551 44.9027 36.0236 44.9337 35.8898 44.9383C35.756 44.943 35.6226 44.9212 35.4972 44.8743C35.3718 44.8273 35.2569 44.7561 35.1591 44.6647C35.0612 44.5733 34.9824 44.4636 34.9271 44.3417Z" fill="#BBC0E6"/>
<path d="M51.2861 46.0678L27.3379 56.9766L27.6962 57.7631L51.6443 46.8544L51.2861 46.0678Z" fill="#CED3F8"/>
<g style="mix-blend-mode:multiply">
<path d="M27.7012 57.7556L29.3305 58.3641L53.2767 47.4546L51.1135 42.707L49.9958 43.2162L51.6487 46.8448L27.7012 57.7556Z" fill="#E9EDF7"/>
</g>
<path d="M59.8873 136.293C59.8313 136.292 59.7758 136.282 59.7234 136.263C59.6078 136.22 59.5142 136.132 59.463 136.02C59.4117 135.908 59.4071 135.78 59.4502 135.664L75.9516 91.542C76.1193 91.0939 76.197 90.6172 76.1804 90.1392C76.1637 89.6611 76.0531 89.1909 75.8547 88.7556C75.6564 88.3203 75.3742 87.9283 75.0244 87.602C74.6745 87.2757 74.2638 87.0216 73.8157 86.8541L29.6946 70.3513C29.6326 70.3338 29.5749 70.3037 29.5252 70.2627C29.4755 70.2218 29.4348 70.171 29.4057 70.1135C29.3766 70.0561 29.3597 69.9932 29.3562 69.9289C29.3526 69.8646 29.3624 69.8003 29.385 69.7399C29.4076 69.6796 29.4424 69.6246 29.4873 69.5785C29.5323 69.5323 29.5862 69.496 29.6459 69.4717C29.7056 69.4475 29.7696 69.4359 29.834 69.4377C29.8984 69.4395 29.9617 69.4546 30.02 69.4821L74.1423 85.9835C75.2787 86.4086 76.1998 87.2677 76.7028 88.3718C77.2058 89.4759 77.2497 90.7346 76.8247 91.8711L60.3232 135.985C60.291 136.075 60.2319 136.152 60.1539 136.208C60.0759 136.263 59.9828 136.292 59.8873 136.293Z" fill="#807DFB"/>
<path d="M32.5026 76.1864C32.4134 76.1866 32.3259 76.161 32.2508 76.1128C32.1757 76.0645 32.1161 75.9957 32.0791 75.9145L29.434 70.1089C29.4081 70.053 29.3934 69.9925 29.391 69.931C29.3886 69.8694 29.3984 69.8079 29.4198 69.7502C29.4413 69.6924 29.4741 69.6395 29.5162 69.5945C29.5582 69.5495 29.6088 69.5133 29.665 69.488L35.4756 66.8466C35.588 66.7954 35.7162 66.7909 35.832 66.8342C35.9477 66.8776 36.0415 66.9651 36.0927 67.0776C36.144 67.19 36.1484 67.3183 36.1051 67.434C36.0618 67.5497 35.9742 67.6435 35.8618 67.6948L30.4809 70.1461L32.9323 75.527C32.9583 75.5829 32.9729 75.6433 32.9753 75.7049C32.9778 75.7665 32.968 75.8279 32.9465 75.8857C32.925 75.9434 32.8923 75.9964 32.8502 76.0414C32.8081 76.0864 32.7575 76.1226 32.7013 76.1479C32.6387 76.1753 32.5709 76.1885 32.5026 76.1864Z" fill="#807DFB"/>
<path d="M58.512 101.697C58.4368 101.697 58.3628 101.678 58.2963 101.643C58.2298 101.608 58.1727 101.558 58.1299 101.496C58.0871 101.434 58.0599 101.363 58.0505 101.288C58.0411 101.214 58.0499 101.138 58.0761 101.068L62.2015 90.0352C62.2194 89.9735 62.2498 89.9162 62.2909 89.8669C62.3319 89.8176 62.3828 89.7773 62.4401 89.7486C62.4975 89.7198 62.5602 89.7032 62.6243 89.6999C62.6884 89.6965 62.7525 89.7064 62.8125 89.729C62.8726 89.7515 62.9274 89.7863 62.9734 89.831C63.0194 89.8758 63.0557 89.9295 63.0799 89.9889C63.1042 90.0484 63.1159 90.1121 63.1143 90.1763C63.1127 90.2405 63.0979 90.3036 63.0708 90.3618L58.9454 101.394C58.9126 101.483 58.8535 101.559 58.7761 101.613C58.6986 101.668 58.6065 101.697 58.512 101.697Z" fill="#E19100"/>
<path d="M66.0909 98.246C66.0353 98.2459 65.9802 98.2358 65.9282 98.2162L54.8958 94.0909C54.7895 94.0413 54.7058 93.9534 54.6615 93.8448C54.6172 93.7362 54.6154 93.6148 54.6567 93.505C54.698 93.3952 54.7791 93.305 54.884 93.2525C54.9889 93.1999 55.1097 93.1889 55.2224 93.2216L66.2536 97.3482C66.3556 97.3865 66.4409 97.4594 66.4947 97.5542C66.5485 97.6489 66.5673 97.7595 66.548 97.8668C66.5286 97.974 66.4723 98.071 66.3888 98.141C66.3053 98.211 66.1999 98.2495 66.0909 98.2498V98.246Z" fill="#E19100"/>
<path d="M58.2324 71.8085C58.179 71.8083 58.1261 71.7991 58.0759 71.7812C57.9604 71.738 57.8667 71.6507 57.8155 71.5384C57.7643 71.4262 57.7597 71.2983 57.8027 71.1826L61.9256 60.1477C61.9431 60.0857 61.9732 60.0281 62.0142 59.9783C62.0551 59.9286 62.1059 59.8879 62.1634 59.8588C62.2208 59.8297 62.2837 59.8129 62.348 59.8093C62.4123 59.8057 62.4766 59.8156 62.537 59.8381C62.5973 59.8607 62.6523 59.8956 62.6984 59.9405C62.7446 59.9854 62.7809 60.0394 62.8052 60.099C62.8294 60.1587 62.841 60.2228 62.8392 60.2871C62.8375 60.3515 62.8223 60.4148 62.7949 60.4731L58.6695 71.5055C58.6361 71.5945 58.5764 71.6712 58.4983 71.7253C58.4202 71.7795 58.3274 71.8085 58.2324 71.8085Z" fill="#BBC0E6"/>
<path d="M65.8136 68.3561C65.7576 68.3565 65.702 68.3463 65.6497 68.3263L54.6185 64.2071C54.5128 64.1573 54.4298 64.0695 54.3858 63.9612C54.3418 63.853 54.3402 63.7322 54.3811 63.6228C54.4221 63.5133 54.5027 63.4233 54.6069 63.3705C54.7111 63.3178 54.8314 63.3061 54.9438 63.3378L65.9763 67.4645C66.0782 67.5028 66.1636 67.5757 66.2173 67.6705C66.2711 67.7652 66.29 67.8758 66.2706 67.983C66.2513 68.0903 66.195 68.1873 66.1115 68.2573C66.0279 68.3273 65.9225 68.3657 65.8136 68.366V68.3561Z" fill="#BBC0E6"/>
<path d="M44.8728 102.87C44.5322 102.121 44.4216 101.287 44.5549 100.474C44.6882 99.6617 45.0594 98.9069 45.6216 98.3053C46.1837 97.7037 46.9116 97.2823 47.7133 97.0943C48.5149 96.9064 49.3543 96.9603 50.1253 97.2493C50.8963 97.5383 51.5644 98.0494 52.0449 98.718C52.5255 99.3866 52.7971 100.183 52.8253 101.006C52.8535 101.828 52.6371 102.641 52.2035 103.341C51.7698 104.041 51.1384 104.597 50.389 104.938C49.8911 105.164 49.3534 105.291 48.8066 105.309C48.2599 105.328 47.7148 105.239 47.2026 105.047C46.6904 104.855 46.221 104.564 45.8212 104.19C45.4214 103.817 45.0992 103.368 44.8728 102.87Z" stroke="#BBC0E6" stroke-width="0.931375" stroke-linecap="round" stroke-linejoin="round"/>
<path d="M77.6253 113.905C77.2835 113.155 77.1718 112.321 77.3041 111.508C77.4364 110.695 77.807 109.939 78.3688 109.336C78.9306 108.734 79.6585 108.311 80.4604 108.123C81.2624 107.934 82.1023 107.987 82.8739 108.276C83.6456 108.564 84.3143 109.075 84.7956 109.744C85.2769 110.412 85.5491 111.209 85.5777 112.032C85.6064 112.855 85.3902 113.669 84.9565 114.369C84.5229 115.07 83.8913 115.626 83.1415 115.967C82.1365 116.425 80.9907 116.465 79.9563 116.078C78.9219 115.691 78.0834 114.91 77.6253 113.905Z" stroke="#BBC0E6" stroke-width="0.931375" stroke-linecap="round" stroke-linejoin="round"/>
<path d="M135.977 66.4414C131.949 69.9781 128.924 73.9123 124.055 80.6107C120.173 81.7147 116.049 83.3763 114.447 83.8619C114.603 85.4055 113.112 87.8593 115.612 87.647C119.489 87.3424 123.33 86.687 127.089 85.6886C134.206 83.8122 137.045 66.8189 137.045 66.8189L135.977 66.4414Z" fill="#BBC0E6"/>
<path d="M145.625 96.2852C147.031 105.461 135.841 118.627 132.78 130.012C134.615 140.727 133.428 147.742 131.886 160.089H128.892C127.568 152.458 126.629 146.771 124.411 131.543C123.746 126.973 127.028 108.321 129.813 96.2852H145.625Z" fill="#20196F"/>
<path d="M132.339 161.189C132.113 160.86 131.96 160.487 131.889 160.094H128.895C129.316 160.939 129.116 161.662 129 162.081C129.775 162.381 130.914 161.609 132.339 161.189Z" fill="#F0CCC0"/>
<path d="M132.339 161.191C130.918 161.615 129.779 162.387 128.999 162.088C128.588 162.387 122.514 164.572 121.896 164.995C121.278 165.419 121.356 166.099 122.026 166.099C123.005 166.099 131.069 165.745 131.069 165.745C131.233 165.922 131.366 166.099 131.366 166.099H133.208C133.753 165.143 133.604 162.284 132.339 161.191Z" fill="#20196F"/>
<path d="M148.682 96.2852C150.089 105.461 147.689 118.627 144.623 130.012C147.434 137.149 147.802 146.361 149.466 160.089H146.47C143.863 153.737 140.075 144.666 134.615 131.543C132.84 127.28 132.649 108.29 133.405 96.2852H148.682Z" fill="#362E94"/>
<path d="M149.921 161.189C149.696 160.86 149.543 160.486 149.472 160.094H146.477C146.898 160.939 146.699 161.662 146.583 162.081C147.366 162.381 148.502 161.609 149.921 161.189Z" fill="#F0CCC0"/>
<path d="M149.921 161.191C148.502 161.615 147.362 162.387 146.583 162.088C146.171 162.387 140.097 164.572 139.48 164.995C138.863 165.419 138.94 166.099 139.604 166.099C140.583 166.099 148.647 165.745 148.647 165.745C148.811 165.922 148.944 166.099 148.944 166.099H150.787C151.34 165.143 151.193 162.284 149.921 161.191Z" fill="#20196F"/>
<path d="M142.015 66.4747C145.572 68.0431 147.183 69.7705 147.851 77.4339C148.517 85.0463 148.679 96.2861 148.679 96.2861H129.804C129.05 91.6914 128.26 82.9911 129.804 75.8543C131.347 68.7174 134.895 67.5017 136.04 66.3555C139.403 66.3555 142.015 66.4747 142.015 66.4747Z" fill="#DDE2F8"/>
<path d="M85.4339 40.8584C85.447 40.9995 85.4925 41.1358 85.5668 41.2565C85.6412 41.3772 85.7424 41.4791 85.8625 41.5543C85.9827 41.6295 86.1186 41.676 86.2596 41.6901C86.4007 41.7043 86.5431 41.6857 86.6758 41.6358C87.2135 41.4296 87.7822 41.2086 88.3721 40.9888L88.2107 39.1943C88.0704 38.4157 86.2064 38.9683 85.2129 38.4492L85.4339 40.8584Z" fill="#423EAF"/>
<path d="M102.924 37.8107C104.859 37.8107 106.299 37.2842 107.44 36.8558C107.869 36.6956 108.31 37.1041 108.354 37.5636C108.428 38.2988 108.515 39.1929 108.515 39.1929H103.396L102.924 37.8107Z" fill="#423EAF"/>
<path d="M108.353 37.5674C108.416 38.2132 108.492 38.9806 108.51 39.1582L109.297 39.1967C109.256 38.5627 109.173 37.9322 109.049 37.3091C108.871 36.5479 107.905 36.6658 107.445 36.8596C107.874 36.6994 108.31 37.1117 108.353 37.5674Z" fill="#5652CC"/>
<path d="M111.67 32.6427L112.191 38.4558C112.205 38.5981 112.186 38.7417 112.134 38.8751C112.083 39.0086 112.001 39.1283 111.896 39.2247C111.79 39.3212 111.664 39.3917 111.526 39.4306C111.389 39.4696 111.244 39.476 111.103 39.4492C109.275 39.1053 107.144 38.6582 104.847 38.5998C104.623 38.5931 104.409 38.5043 104.245 38.3502C104.082 38.1962 103.981 37.9876 103.962 37.7641L103.44 31.9535C103.428 31.8139 103.363 31.6841 103.259 31.5904C103.155 31.4968 103.019 31.4463 102.879 31.4493C101.349 31.4854 99.7468 31.5735 98.1001 31.7226C96.4534 31.8716 94.8602 32.0678 93.3476 32.305C93.2093 32.3271 93.0846 32.401 92.9988 32.5117C92.913 32.6224 92.8725 32.7616 92.8857 32.9011L93.4072 38.7116C93.4279 38.9351 93.3657 39.1585 93.2324 39.3391C93.0991 39.5198 92.9041 39.6451 92.6845 39.6914C90.4355 40.1583 88.4175 40.9779 86.6802 41.6423C86.5475 41.6922 86.4051 41.7108 86.2641 41.6967C86.123 41.6826 85.9871 41.6361 85.867 41.5609C85.7468 41.4857 85.6456 41.3837 85.5713 41.263C85.4969 41.1423 85.4515 41.0061 85.4384 40.8649L84.9168 35.0507C84.9087 34.9653 84.8809 34.883 84.8357 34.8101C84.7906 34.7373 84.7291 34.6758 84.6563 34.6306C84.5834 34.5854 84.5011 34.5577 84.4158 34.5496C84.3304 34.5414 84.2443 34.5531 84.1642 34.5837C81.3577 35.6641 79.7061 36.8973 79.8178 38.0758L81.585 57.8805C81.8172 60.4623 90.3821 61.8022 100.717 60.8746C111.051 59.9469 119.242 57.1019 119.01 54.5214L117.232 34.7092C117.126 33.5319 115.281 32.6129 112.327 32.0492C112.242 32.0331 112.155 32.0368 112.073 32.0599C111.99 32.0831 111.914 32.1251 111.85 32.1826C111.787 32.2401 111.737 32.3116 111.706 32.3914C111.675 32.4713 111.662 32.5573 111.67 32.6427Z" fill="#807DFB"/>
<path d="M117.232 34.7089C117.127 33.5316 115.281 32.6127 112.327 32.0489C112.243 32.0328 112.156 32.0365 112.073 32.0597C111.991 32.0828 111.914 32.1248 111.851 32.1823C111.787 32.2398 111.738 32.3113 111.706 32.3911C111.675 32.471 111.662 32.557 111.67 32.6425L112.192 38.4555C112.205 38.5977 112.186 38.7411 112.135 38.8745C112.084 39.0079 112.002 39.1275 111.897 39.2239C111.791 39.3203 111.665 39.3908 111.527 39.4299C111.39 39.4689 111.245 39.4755 111.105 39.449C109.587 39.1633 107.859 38.8107 106.001 38.6641C106.265 41.8022 106.633 46.1598 106.746 46.8466C106.898 47.8077 106.657 49.1042 105.9 49.7239C105.077 50.3982 103.75 50.7372 99.8353 50.9918C86.7836 51.8387 81.4114 55.8933 81.5902 57.8865C81.8225 60.4682 90.3874 61.8082 100.722 60.8805C110.766 59.979 118.782 57.2668 119.013 54.7459C119.02 54.6732 119.02 54.6 119.013 54.5273L117.232 34.7089Z" fill="#5652CC"/>
<path d="M86.8215 65.0264C86.8054 64.8451 86.7905 64.665 86.7743 64.4837C86.5992 62.5315 92.7935 60.3857 100.61 59.679C108.426 58.9724 114.904 59.9907 115.079 61.9429C115.096 62.1242 115.113 62.303 115.129 62.4844C116.012 61.9032 116.484 61.3009 116.432 60.7147L115.97 55.5773C115.777 53.4252 108.634 52.3075 100.017 53.0812C91.4001 53.8548 84.5701 56.2268 84.7638 58.3789L85.2245 63.5163C85.2729 64.1025 85.8491 64.6104 86.8215 65.0264Z" fill="#6B67E9"/>
<path d="M106.089 120.71C113.37 120.057 119.896 120.368 123.998 121.376C121.089 106.735 117.284 86.4979 115.08 61.9394C114.905 59.9873 108.426 58.9739 100.61 59.6756C92.7943 60.3772 86.6 62.5318 86.7751 64.4802C88.9794 89.0387 88.8403 109.63 88.5869 124.555C92.4416 122.832 98.8097 121.365 106.089 120.71Z" fill="#807DFB"/>
<path d="M106.088 120.715C94.0014 121.8 84.4231 125.127 84.6951 128.145L86.0177 142.838L129.786 138.909L128.467 124.215C128.193 121.198 118.181 119.63 106.088 120.715Z" fill="#6B67E9"/>
<path d="M108.116 143.302C120.203 142.217 129.904 140.25 129.783 138.907C129.663 137.565 119.767 137.356 107.68 138.442C95.5932 139.527 85.8926 141.494 86.0131 142.837C86.1336 144.179 96.0295 144.387 108.116 143.302Z" fill="#362E94"/>
<path d="M112.623 120.377C112.623 120.377 113.538 122.873 113.573 123.26C113.608 123.648 114.598 134.666 114.891 137.931C123.469 137.495 129.687 137.847 129.783 138.908L128.464 124.215C128.24 121.764 121.592 120.269 112.623 120.377Z" fill="#423EAF"/>
<path d="M115.077 61.9433C114.923 60.2283 109.906 59.2385 103.393 59.4981C103.841 64.2916 110.719 117.908 111.201 120.408C116.375 120.252 120.888 120.615 123.992 121.38C121.089 106.739 117.284 86.5018 115.077 61.9433Z" fill="#5652CC"/>
<path d="M103.886 52.8549C103.947 53.5417 104.259 56.984 104.28 57.2448C104.306 57.5354 103.855 58.9461 103.395 59.4975C109.908 59.2379 114.925 60.2277 115.079 61.9427C115.095 62.124 115.112 62.3028 115.129 62.4841C116.012 61.9029 116.483 61.3006 116.431 60.7145L115.969 55.577C115.807 53.7577 110.675 52.6773 103.886 52.8549Z" fill="#423EAF"/>
<path d="M145.808 69.2329C147.883 71.0473 144.162 86.9303 134.424 90.8272C126.84 93.8635 114.928 94.7067 114.928 94.7067C114.928 93.4897 114.855 91.7039 114.855 91.7039C117.039 91.6493 126.932 87.6295 130.627 85.5146C135.975 82.461 140.908 64.9511 145.808 69.2329Z" fill="#F6F6FB"/>
<path d="M114.861 91.7044C114.047 91.8012 114.065 91.0834 113.15 90.6997C112.281 90.3334 111.797 89.2741 111.561 89.4691C111.325 89.664 111.956 90.8438 112.182 91.0623C111.639 90.9717 108.88 90.2564 108.666 90.8922C108.492 91.4113 108.008 91.5615 108.169 92.18C108.331 92.7984 109.209 93.8689 110.503 94.1383C111.797 94.4078 112.64 94.5854 113.336 94.4004C113.86 94.282 114.4 94.2509 114.933 94.3085C114.928 93.8863 114.861 91.7044 114.861 91.7044Z" fill="#F8D8D0"/>
<path d="M84.9117 35.0443L85.4332 40.8586C85.4463 40.9997 85.4918 41.136 85.5662 41.2567C85.6405 41.3774 85.7417 41.4793 85.8618 41.5545C85.982 41.6297 86.1179 41.6762 86.2589 41.6904C86.4 41.7045 86.5424 41.6859 86.6751 41.636C86.6751 41.636 86.1535 36.121 86.0889 35.2803C86.0244 34.4396 85.1551 34.1825 84.2051 34.5612C84.2836 34.5393 84.366 34.5348 84.4465 34.5481C84.527 34.5613 84.6036 34.5921 84.671 34.6381C84.7383 34.6841 84.7947 34.7444 84.8363 34.8145C84.8779 34.8847 84.9036 34.9631 84.9117 35.0443Z" fill="#6B67E9"/>
<path d="M111.669 32.6449L112.19 38.4579C112.204 38.6002 112.185 38.7438 112.133 38.8773C112.082 39.0107 112 39.1304 111.895 39.2269C111.789 39.3233 111.663 39.3938 111.525 39.4327C111.388 39.4717 111.243 39.4781 111.102 39.4514C111.102 39.4514 110.633 33.9327 110.547 33.0932C110.462 32.2537 111.271 31.8513 112.272 32.05C112.192 32.0434 112.111 32.0542 112.036 32.0816C111.96 32.109 111.891 32.1525 111.834 32.209C111.777 32.2654 111.732 32.3336 111.704 32.4089C111.675 32.4841 111.663 32.5646 111.669 32.6449Z" fill="#807DFB"/>
<path d="M142.141 60.4508C141.904 61.4679 141.315 65.4678 142.193 66.5966C141.56 67.0772 138.219 67.754 135.721 66.7519C136.256 66.0912 137.235 65.1126 136.677 63.872C136.072 62.5209 134.634 64.0968 133.862 61.9062C132.959 59.3518 133.117 54.5198 134.411 53.3053C135.856 51.9467 138.619 50.3919 141.873 52.7986C144.529 54.7669 142.62 58.3831 142.141 60.4508Z" fill="#F8D8D0"/>
<path d="M139.779 57.8192C138.991 57.7472 139.612 55.723 139.086 55.1704C138.465 54.516 136.212 53.936 133.968 53.946C131.724 53.9559 130.648 50.9134 132.192 49.8616C133.735 48.8097 134.853 50.6067 135.948 50.3583C137.222 50.0789 137.165 48.5514 138.978 48.9041C140.654 49.2282 139.723 50.7209 140.765 51.1133C141.842 51.5194 143.622 50.223 144.794 52.1068C145.663 53.5014 144.072 54.0937 144.081 55.5442C144.081 56.4495 146.033 59.3281 143.512 60.1924C140.991 61.0567 141.805 58.6587 142.039 57.6578C142.274 56.6569 141.885 55.9391 141.38 55.8646C140.875 55.7901 140.908 57.9236 139.779 57.8192Z" fill="#ED9F00"/>
<path d="M20.3517 158.281L21.493 165.072L14.3065 163.948L13.9277 161.696L20.3517 158.281Z" fill="#E7EEFF"/>
<path d="M13.9268 161.695L14.3055 163.947L10.7402 163.389L13.9268 161.695Z" fill="#5652CC"/>
<path d="M84.4051 154.302L88.5727 153.601C88.6837 153.582 88.7899 153.542 88.8853 153.483C88.9807 153.423 89.0634 153.345 89.1286 153.254C89.1939 153.162 89.2403 153.058 89.2653 152.949C89.2903 152.839 89.2934 152.725 89.2744 152.615L88.4759 147.867C88.4574 147.756 88.4172 147.65 88.3576 147.555C88.298 147.459 88.2202 147.377 88.1286 147.311C88.037 147.246 87.9335 147.199 87.8239 147.174C87.7143 147.149 87.6008 147.146 87.4899 147.164L83.3223 147.866L84.4051 154.302Z" fill="#5652CC"/>
<path d="M82.9393 154.731L84.4297 154.48L83.2872 147.69L81.7969 147.941L82.9393 154.731Z" fill="#DDE2F8"/>
<path d="M81.4569 154.973L82.9473 154.723L81.8048 147.932L80.3145 148.183L81.4569 154.973Z" fill="#CED3F8"/>
<path d="M79.9589 155.231L81.4492 154.98L80.3068 148.19L78.8164 148.441L79.9589 155.231Z" fill="#DDE2F8"/>
<path d="M78.4647 155.485L79.9551 155.234L78.8126 148.444L77.3223 148.695L78.4647 155.485Z" fill="#CED3F8"/>
<path d="M76.9842 155.731L78.4746 155.48L77.3322 148.69L75.8418 148.941L76.9842 155.731Z" fill="#DDE2F8"/>
<path d="M20.9228 161.671L76.4091 152.337L75.8379 148.941L20.3515 158.276L19.132 159.527C19.0373 159.623 18.9668 159.741 18.9262 159.87C18.8856 159.998 18.8762 160.135 18.8986 160.268C18.921 160.402 18.9746 160.528 19.0552 160.636C19.1357 160.745 19.2407 160.833 19.3618 160.893L20.9228 161.671Z" fill="#FCBA06"/>
<path d="M21.4925 165.068L76.9789 155.731L76.4077 152.336L20.9213 161.673L19.7043 162.924C19.6096 163.02 19.5391 163.138 19.4985 163.267C19.4579 163.395 19.4484 163.532 19.4708 163.665C19.4932 163.799 19.5469 163.925 19.6274 164.033C19.7079 164.142 19.813 164.23 19.934 164.29L21.4925 165.068Z" fill="#E19100"/>
<path d="M5.22884 35.867L1.7517 36.5736C1.61802 36.601 1.49387 36.6631 1.39167 36.7535C1.28947 36.8439 1.21278 36.9596 1.16928 37.089L0.0404553 40.4568C-0.00298094 40.5862 -0.0116187 40.7248 0.0154087 40.8587C0.0424361 40.9925 0.104181 41.1169 0.194445 41.2193L2.54772 43.8818C2.63823 43.9841 2.75397 44.0608 2.8834 44.1044C3.01284 44.148 3.15143 44.1569 3.28537 44.1302L6.7625 43.4235C6.89618 43.3961 7.02033 43.3341 7.12253 43.2436C7.22474 43.1532 7.30142 43.0375 7.34492 42.9082L8.47499 39.5391C8.51828 39.4098 8.52673 39.2713 8.49948 39.1376C8.47223 39.004 8.41024 38.8799 8.31976 38.7778L5.96649 36.1154C5.87621 36.0128 5.76049 35.9358 5.63098 35.8922C5.50148 35.8486 5.36277 35.8399 5.22884 35.867Z" fill="#FFD03E"/>
<path d="M144.567 0.899976L143.783 6.36404C143.764 6.49887 143.709 6.62614 143.624 6.73305C143.54 6.83996 143.429 6.92275 143.302 6.9731C143.175 7.02344 143.038 7.03957 142.903 7.01985C142.768 7.00013 142.641 6.94527 142.534 6.86078L138.188 3.44698C138.08 3.36258 137.997 3.25149 137.947 3.12485C137.896 2.99821 137.879 2.86045 137.898 2.72538C137.918 2.59031 137.972 2.46266 138.056 2.35523C138.14 2.2478 138.251 2.16435 138.378 2.11325L143.508 0.0567702C143.635 0.0051026 143.774 -0.0117154 143.911 0.00803366C144.047 0.0277827 144.176 0.0833891 144.283 0.169167C144.391 0.254946 144.474 0.367813 144.524 0.496221C144.574 0.624629 144.589 0.763968 144.567 0.899976Z" fill="#6B67E9"/>
<path d="M95.5331 176.329L94.069 181.659C94.0327 181.791 94.0317 181.93 94.0661 182.062C94.1006 182.194 94.1692 182.315 94.2651 182.412C94.3611 182.509 94.4809 182.579 94.6126 182.615C94.7443 182.652 94.8831 182.652 95.0153 182.618L100.363 181.221C100.495 181.186 100.615 181.118 100.713 181.022C100.81 180.926 100.88 180.806 100.916 180.674C100.952 180.543 100.953 180.404 100.918 180.272C100.884 180.14 100.815 180.019 100.719 179.922L96.8358 175.989C96.7399 175.892 96.6202 175.822 96.4886 175.786C96.357 175.749 96.2182 175.749 96.0862 175.783C95.9542 175.818 95.8336 175.886 95.7365 175.982C95.6394 176.078 95.5693 176.198 95.5331 176.329Z" fill="#FCBA06"/>
</svg>
