<svg width="181" height="181" viewBox="0 0 181 181" fill="none" xmlns="http://www.w3.org/2000/svg">
<path d="M38.8488 100.868C42.5864 111.825 35.432 119.962 22.039 122.53C20.6409 111.971 26.2625 99.5104 38.8488 100.868Z" fill="#20196F"/>
<path d="M43.6591 97.4062C32.7098 112.269 15.5487 110.297 0 95.1019C12.5617 83.6631 33.9931 79.6913 43.6591 97.4062Z" fill="#423EAF"/>
<path d="M43.6592 97.73H43.6241C40.1335 97.3447 34.218 97.1972 27.9559 97.0426C20.3449 96.8529 11.7257 96.6398 5.29849 95.9572C5.21325 95.948 5.13513 95.9054 5.08133 95.8386C5.02753 95.7719 5.00246 95.6865 5.01162 95.6012C5.02078 95.516 5.06343 95.4379 5.13018 95.3841C5.19694 95.3303 5.28233 95.3052 5.36758 95.3144C11.7679 95.9935 20.3765 96.2078 27.9723 96.3963C34.2485 96.552 40.1769 96.6984 43.6943 97.0871C43.7758 97.097 43.8505 97.1374 43.9032 97.2003C43.9559 97.2631 43.9828 97.3437 43.9783 97.4256C43.9739 97.5075 43.9384 97.5847 43.8791 97.6414C43.8199 97.6982 43.7412 97.7302 43.6592 97.7311V97.73Z" fill="#362E94"/>
<path d="M38.0591 92.7419C42.6807 91.4668 47.4522 85.0641 46.7543 80.4039C46.0565 75.7436 41.6116 75.1979 41.9348 72.5692C42.258 69.9405 46.7169 66.4699 45.5834 63.0402C43.5624 56.9479 34.2676 61.9981 32.3215 57.6657C30.3754 53.3332 35.7324 50.8415 34.5463 46.5032C33.3601 42.1649 25.9388 46.7761 22.5619 42.4553C19.1849 38.1346 10.3456 30.266 6.41713 35.9134C3.31184 40.3769 10.0681 41.7329 10.1641 44.0771C10.273 46.7526 6.89604 47.2983 7.66183 50.2197C8.74493 54.3484 14.3935 54.1283 14.7225 57.6621C15.0515 61.196 10.5634 62.5531 13.4462 66.2427C17.0152 70.8093 23.9447 64.8376 25.3756 72.3139C26.8065 79.7903 17.2412 77.5925 17.4742 82.3359C17.7271 87.5137 26.9727 86.0536 26.3123 89.5207C25.4131 94.2395 30.8848 94.7208 38.0591 92.7419Z" fill="#807DFB"/>
<path d="M39.2518 92.6216C39.1732 92.6214 39.0973 92.5927 39.0383 92.5408C38.9793 92.4889 38.9412 92.4174 38.931 92.3394C38.8771 91.9062 38.9591 91.316 39.0551 90.631C39.2612 89.1545 39.5234 87.3173 38.575 86.1089C38.0329 85.4146 37.3912 84.8092 36.7109 84.1675C35.5798 83.0985 34.4088 81.9943 33.6969 80.4299C32.2543 77.2684 32.6782 74.5507 33.0529 72.1562C33.3246 70.4185 33.5587 68.9174 33.0236 67.5743C32.5799 66.462 31.7883 66.2208 30.7872 65.9163C29.7333 65.5955 28.5472 65.2337 27.4582 63.8391C26.4044 62.4832 26.3915 61.5488 26.3845 60.6448C26.3775 59.7151 26.3693 58.7526 25.1047 57.132C24.0333 55.7609 23.0872 55.4822 22.086 55.186C21.0228 54.8733 19.9233 54.549 18.6353 53.0514C16.2349 50.2599 16.0593 47.6077 15.9246 45.6745C15.852 44.5996 15.7946 43.7519 15.3813 43.2753C14.4024 42.1465 13.3275 42.4428 13.2818 42.4556C13.2008 42.4774 13.1145 42.4667 13.0412 42.426C12.9678 42.3852 12.9132 42.3175 12.8889 42.2372C12.8646 42.1569 12.8724 42.0703 12.9108 41.9957C12.9491 41.9211 13.015 41.8643 13.0945 41.8374C13.1554 41.8187 14.6061 41.3936 15.8707 42.8514C16.4258 43.4919 16.489 44.4357 16.5733 45.63C16.6951 47.4766 16.866 50.0023 19.1259 52.6287C20.2886 53.9811 21.25 54.2679 22.2687 54.5654C23.3225 54.8757 24.415 55.1977 25.614 56.7327C27.0191 58.5254 27.0191 59.6472 27.0308 60.6378C27.0379 61.5066 27.0437 62.256 27.9676 63.4386C28.9312 64.6728 29.971 64.9889 30.9757 65.2946C32.0506 65.6224 33.0658 65.9315 33.6243 67.332C34.225 68.8401 33.9662 70.4935 33.6911 72.2499C33.3316 74.5531 32.9229 77.1677 34.2847 80.1548C34.9451 81.6044 36.068 82.6641 37.1547 83.6898C37.8221 84.3198 38.5118 84.9708 39.0843 85.7038C40.1967 87.1288 39.904 89.2014 39.6956 90.7142C39.6066 91.3523 39.5293 91.9038 39.5726 92.2504C39.578 92.2926 39.5751 92.3354 39.564 92.3764C39.5528 92.4174 39.5337 92.4558 39.5077 92.4894C39.4817 92.523 39.4494 92.5511 39.4125 92.5722C39.3756 92.5933 39.3349 92.6069 39.2928 92.6123L39.2518 92.6216Z" fill="#6B67E9"/>
<path d="M135.758 42.0559C151.972 37.4893 155.816 22.2111 147.851 4.04297C134.04 11.0837 123.749 28.0985 135.758 42.0559Z" fill="#807DFB"/>
<path d="M135.756 42.4053C135.727 42.4054 135.698 42.4014 135.67 42.3936C135.581 42.3696 135.505 42.312 135.459 42.233C135.412 42.154 135.398 42.06 135.42 41.9709C136.222 38.8398 138.007 33.7287 139.897 28.3167C142.181 21.7759 144.77 14.3616 146.252 8.68147C146.286 8.60421 146.345 8.5414 146.421 8.50447C146.496 8.46753 146.583 8.45891 146.664 8.48016C146.745 8.50142 146.816 8.55115 146.864 8.62032C146.912 8.68948 146.933 8.7735 146.925 8.85711C145.436 14.5642 142.842 21.9925 140.554 28.5462C138.668 33.943 136.889 39.0412 136.094 42.143C136.074 42.2177 136.03 42.2839 135.969 42.3313C135.908 42.3787 135.834 42.4047 135.756 42.4053Z" fill="#6B67E9"/>
<path d="M131.492 47.7518C139.602 28.2817 159.18 25.804 180.561 38.4383C169.735 54.5467 147.034 64.7806 131.492 47.7518Z" fill="#5652CC"/>
<path d="M131.493 48.0976C131.411 48.0888 131.335 48.0512 131.277 47.9914C131.22 47.9316 131.186 47.8535 131.18 47.7709C131.175 47.6883 131.199 47.6065 131.248 47.5399C131.297 47.4732 131.368 47.4261 131.449 47.4068C135.43 46.8845 142.032 45.4385 149.025 43.9081C157.516 42.0486 167.141 39.9421 174.456 38.9515C174.504 38.9374 174.555 38.9339 174.605 38.9413C174.655 38.9486 174.703 38.9667 174.745 38.9942C174.788 39.0217 174.824 39.058 174.851 39.1007C174.878 39.1434 174.895 39.1914 174.902 39.2414C174.909 39.2915 174.905 39.3424 174.89 39.3908C174.876 39.4391 174.851 39.4837 174.817 39.5215C174.784 39.5594 174.743 39.5895 174.696 39.61C174.65 39.6304 174.6 39.6407 174.55 39.64C167.262 40.6271 157.652 42.7301 149.173 44.5872C142.165 46.1211 135.547 47.5695 131.539 48.1C131.524 48.1004 131.509 48.0996 131.493 48.0976Z" fill="#423EAF"/>
<path d="M157.985 51.6899C157.939 51.69 157.893 51.6807 157.85 51.6626C157.808 51.6445 157.769 51.6179 157.737 51.5846L150.469 44.1375C150.429 44.1068 150.396 44.0679 150.373 44.0234C150.349 43.979 150.336 43.93 150.333 43.8797C150.33 43.8295 150.338 43.7792 150.356 43.7323C150.374 43.6854 150.402 43.6429 150.438 43.6078C150.474 43.5726 150.517 43.5456 150.564 43.5286C150.612 43.5115 150.662 43.5049 150.712 43.509C150.762 43.5132 150.811 43.528 150.855 43.5526C150.899 43.5772 150.937 43.6109 150.967 43.6515L158.235 51.0939C158.298 51.1605 158.332 51.249 158.331 51.3407C158.33 51.4324 158.293 51.5199 158.228 51.5846C158.196 51.6174 158.159 51.6436 158.117 51.6617C158.075 51.6798 158.031 51.6894 157.985 51.6899Z" fill="#423EAF"/>
<path d="M156.705 42.8804C156.642 42.8811 156.58 42.864 156.526 42.8312C156.447 42.7828 156.391 42.7056 156.369 42.6163C156.348 42.527 156.362 42.4326 156.408 42.3535L160.975 34.8092C160.995 34.7627 161.024 34.7209 161.061 34.6867C161.098 34.6525 161.142 34.6267 161.19 34.611C161.238 34.5954 161.289 34.5903 161.339 34.596C161.389 34.6018 161.438 34.6183 161.481 34.6444C161.524 34.6705 161.561 34.7056 161.589 34.7473C161.618 34.789 161.637 34.8364 161.645 34.8861C161.654 34.9359 161.651 34.9869 161.638 35.0356C161.625 35.0844 161.602 35.1298 161.57 35.1687L157.003 42.713C156.972 42.764 156.928 42.8062 156.876 42.8355C156.824 42.8648 156.765 42.8803 156.705 42.8804Z" fill="#423EAF"/>
<path d="M170.496 43.1156C170.429 43.1158 170.363 43.0963 170.307 43.0594L167.095 40.9634C167.05 40.9416 167.011 40.9105 166.979 40.8723C166.948 40.8341 166.924 40.7896 166.911 40.7417C166.898 40.6939 166.895 40.6438 166.903 40.5947C166.91 40.5457 166.928 40.4988 166.955 40.4571C166.982 40.4155 167.017 40.38 167.059 40.3531C167.101 40.3262 167.148 40.3084 167.197 40.3009C167.246 40.2934 167.296 40.2964 167.344 40.3097C167.392 40.323 167.436 40.3463 167.474 40.378L170.685 42.4739C170.745 42.5164 170.79 42.5766 170.814 42.6462C170.839 42.7158 170.84 42.7911 170.819 42.8617C170.798 42.9322 170.755 42.9943 170.697 43.0393C170.639 43.0842 170.568 43.1097 170.494 43.1121L170.496 43.1156Z" fill="#423EAF"/>
<path d="M142.74 45.979C142.683 45.9781 142.627 45.9631 142.576 45.9354C142.526 45.9077 142.483 45.8681 142.452 45.82C142.42 45.7719 142.401 45.7169 142.396 45.6597C142.391 45.6024 142.4 45.5448 142.422 45.4919L146.973 35.1198C147.018 35.0477 147.087 34.9942 147.168 34.969C147.249 34.9438 147.336 34.9487 147.413 34.9828C147.491 35.0169 147.554 35.0778 147.59 35.1544C147.626 35.231 147.633 35.3181 147.61 35.3997L143.059 45.7706C143.031 45.8322 142.987 45.8847 142.93 45.9216C142.874 45.9586 142.808 45.9785 142.74 45.979Z" fill="#423EAF"/>
<path d="M160.924 104.531C160.004 109.176 163.81 111.518 166.18 112.714C166.355 111.272 166.714 105.394 160.924 104.531Z" fill="#FCBA06"/>
<path d="M161.342 105.518C161.274 105.518 161.206 105.5 161.147 105.466C161.087 105.432 161.037 105.383 161.003 105.324C152.195 90.2975 140.091 79.7837 131.7 74.9525C131.654 74.9278 131.612 74.894 131.579 74.853C131.545 74.812 131.52 74.7646 131.506 74.7138C131.491 74.663 131.487 74.6097 131.493 74.5572C131.499 74.5047 131.516 74.454 131.543 74.4081C131.569 74.3622 131.604 74.3222 131.647 74.2903C131.689 74.2584 131.737 74.2354 131.788 74.2226C131.84 74.2098 131.893 74.2075 131.945 74.2158C131.998 74.2241 132.048 74.2429 132.093 74.271C140.571 79.1514 152.797 89.767 161.682 104.926C161.717 104.986 161.736 105.054 161.736 105.123C161.736 105.192 161.718 105.26 161.684 105.321C161.649 105.381 161.6 105.431 161.54 105.465C161.48 105.5 161.412 105.518 161.342 105.518Z" fill="#FCBA06"/>
<path d="M138.518 76.423C148.002 77.649 150.484 71.0754 152.576 66.1364C149.648 65.976 139.474 64.6376 138.518 76.423Z" fill="#FCBA06"/>
<path d="M145.865 81.9012C152.995 84.7477 156.237 80.1319 158.85 76.7104C156.603 76.0079 148.962 72.9319 145.865 81.9012Z" fill="#FCBA06"/>
<path d="M152.52 89.3382C157.906 93.1519 161.543 89.9482 164.414 87.6134C162.678 86.5713 156.914 82.4648 152.52 89.3382Z" fill="#FCBA06"/>
<path d="M158.354 97.0254C160.907 100.234 163.634 98.9515 165.751 98.0546C164.895 97.1331 162.166 93.6836 158.354 97.0254Z" fill="#FCBA06"/>
<path d="M136.251 80.8672C140.768 87.9946 136.437 92.4312 133.267 95.9452C132.049 93.6584 127.183 86.0275 136.251 80.8672Z" fill="#FCBA06"/>
<path d="M144.127 86.9805C148.934 92.4475 145.839 96.8092 143.61 100.229C142.271 98.445 137.094 92.5951 144.127 86.9805Z" fill="#FCBA06"/>
<path d="M152.312 95.5703C154.435 100.069 151.578 102.348 149.468 104.171C148.922 102.745 146.632 97.9274 152.312 95.5703Z" fill="#FCBA06"/>
<path d="M157.421 101.742C159.116 104.092 157.724 105.702 156.71 106.973C156.245 106.214 154.419 103.7 157.421 101.742Z" fill="#FCBA06"/>
<path d="M89.842 142.319C89.3936 140.446 72.9397 132.952 71.2981 135.996C70.0206 138.374 72.5135 139.783 73.4596 140.223C74.949 140.918 78.6398 142.352 77.9524 143.373C76.7077 145.221 67.8345 140.4 65.6015 139.359C63.3686 138.318 58.7457 136.9 56.4449 138.365C54.144 139.83 53.3771 140.685 57.3816 142.289C61.3862 143.893 69.6845 146.067 66.872 147.503C64.0594 148.938 58.0163 145.746 53.8829 145.198C49.7495 144.651 41.6912 144.994 43.1104 147.78C44.3808 150.272 56.6931 150.152 55.788 152.105C55.0597 153.665 51.7167 152.423 46.2321 152.19C40.7474 151.957 35.5661 151.793 35.127 155.04C34.7757 157.647 38.3189 157.054 41.2744 157.218C44.2298 157.382 48.3386 157.764 47.266 159.06C46.1934 160.356 31.8156 158.158 30.3063 162.242C29.3099 164.944 32.5311 164.437 35.9549 164.819C39.3786 165.2 40.5613 165.593 40.2568 166.242C39.9524 166.892 35.2453 167.128 32.6552 167.187C30.0651 167.247 26.372 168.219 26.3439 170.635C26.3158 173.05 30.4574 172.523 31.9409 171.975C33.4245 171.427 35.0731 171.534 35.2336 171.975C35.394 172.417 30.6225 174.578 32.1212 176.859C33.62 179.14 37.9759 176.632 39.1292 174.166C40.2826 171.7 41.9242 168.395 42.8247 168.815C43.7251 169.235 42.3938 172.093 41.3434 174.352C40.2931 176.611 40.3903 177.748 40.9922 178.025C42.9968 178.962 46.0541 176.812 46.821 175.164C47.588 173.515 50.6851 163.718 52.0235 164.338C53.3618 164.959 51.8033 168.51 50.9544 170.332C50.1055 172.154 48.1301 176.405 50.3654 177.447C52.6007 178.489 56.4695 173.324 57.8711 169.754C59.2727 166.184 61.1063 160.23 62.1367 160.71C63.1672 161.19 62.5021 166.213 61.4717 168.423C60.4412 170.632 57.4847 174.062 60.234 175.343C62.9833 176.624 65.1156 173.507 67.1425 169.164C67.9879 167.349 70.0358 162.841 69.6459 159.69C69.2009 156.107 69.5663 154.249 70.3941 154.105C72.044 153.818 72.0147 157.025 71.4737 159.305C70.9327 161.584 68.8274 168.577 72.4854 168.803C76.1434 169.029 76.4045 162.974 76.7499 160.551C77.0953 158.127 77.5695 149.477 79.4629 149.567C81.3563 149.657 79.8903 154.148 79.58 155.589C79.2697 157.031 79.5941 160.214 80.8891 159.736C82.1842 159.257 90.6429 145.647 89.842 142.319Z" fill="#807DFB"/>
<path d="M144.115 41.9412L54.0234 22.1992L28.3862 139.194L118.478 158.936L144.115 41.9412Z" fill="#CED3F8"/>
<path d="M138.626 36.0646L46.9453 26.0078L33.8855 145.064L125.566 155.121L138.626 36.0646Z" fill="#DDE2F8"/>
<path d="M132.376 24.7188H40.1465V144.489H132.376V24.7188Z" fill="#E9EDF7"/>
<path d="M105.985 28.5938H44.0156V90.5626H105.985V28.5938Z" fill="white"/>
<path d="M129.538 36.5391H108.822V39.3575H129.538V36.5391Z" fill="#BBC0E6"/>
<path d="M123.596 41.5156H108.822V44.334H123.596V41.5156Z" fill="#BBC0E6"/>
<path d="M110.353 48.3984H108.822V49.9288H110.353V48.3984Z" fill="#6B67E9"/>
<path d="M113.093 48.3984H111.562V49.9288H113.093V48.3984Z" fill="#6B67E9"/>
<path d="M115.835 48.3984H114.305V49.9288H115.835V48.3984Z" fill="#6B67E9"/>
<path d="M118.573 48.3984H117.043V49.9288H118.573V48.3984Z" fill="#6B67E9"/>
<path d="M121.316 48.3984H119.785V49.9288H121.316V48.3984Z" fill="#6B67E9"/>
<path d="M124.056 48.3984H122.525V49.9288H124.056V48.3984Z" fill="#6B67E9"/>
<path d="M126.796 48.3984H125.266V49.9288H126.796V48.3984Z" fill="#6B67E9"/>
<path d="M129.538 48.3984H128.008V49.9288H129.538V48.3984Z" fill="#6B67E9"/>
<path d="M52.0261 99.9807C53.0592 98.7582 52.9056 96.9297 51.6832 95.8967C50.4607 94.8636 48.6322 95.0171 47.5991 96.2396C46.566 97.4621 46.7195 99.2906 47.942 100.324C49.1645 101.357 50.993 101.203 52.0261 99.9807Z" fill="#6B67E9"/>
<path d="M52.6451 111.455C52.9893 109.892 52.0012 108.346 50.4381 108.002C48.8751 107.658 47.3289 108.646 46.9846 110.209C46.6404 111.772 47.6285 113.318 49.1915 113.662C50.7546 114.007 52.3008 113.019 52.6451 111.455Z" fill="#6B67E9"/>
<path d="M51.6461 125.786C52.8839 124.772 53.0649 122.946 52.0503 121.708C51.0357 120.47 49.2097 120.289 47.9718 121.303C46.734 122.318 46.553 124.144 47.5676 125.382C48.5822 126.62 50.4082 126.801 51.6461 125.786Z" fill="#ED9F00"/>
<path d="M52.8122 135.83C53.1483 134.262 52.1492 132.718 50.5807 132.382C49.0122 132.045 47.4681 133.045 47.132 134.613C46.7959 136.182 47.795 137.726 49.3635 138.062C50.9321 138.398 52.4761 137.399 52.8122 135.83Z" fill="#6B67E9"/>
<path d="M85.15 97.1367H58.2188V99.0886H85.15V97.1367Z" fill="#CED3F8"/>
<path d="M80.8563 109.852H58.2188V111.804H80.8563V109.852Z" fill="#CED3F8"/>
<path d="M85.15 122.562H58.2188V124.514H85.15V122.562Z" fill="#CED3F8"/>
<path d="M76.244 135.281H58.2188V137.233H76.244V135.281Z" fill="#CED3F8"/>
<path d="M129.538 57.1094H108.822V58.0848H129.538V57.1094Z" fill="#CED3F8"/>
<path d="M129.538 59.5781H108.822V60.5535H129.538V59.5781Z" fill="#CED3F8"/>
<path d="M129.538 62.0469H108.822V63.0223H129.538V62.0469Z" fill="#CED3F8"/>
<path d="M129.538 64.5156H108.822V65.491H129.538V64.5156Z" fill="#CED3F8"/>
<path d="M129.538 66.9844H108.822V67.9598H129.538V66.9844Z" fill="#CED3F8"/>
<path d="M129.538 69.4531H108.822V70.4285H129.538V69.4531Z" fill="#CED3F8"/>
<path d="M129.538 71.9219H108.822V72.8973H129.538V71.9219Z" fill="#CED3F8"/>
<path d="M123.596 74.3867H108.822V75.3621H123.596V74.3867Z" fill="#CED3F8"/>
<path d="M133.894 139.928L133.895 137.336L130.87 137.335L130.869 139.927L133.894 139.928Z" fill="#1F196F"/>
<path d="M135.273 159.208V139.922H132.375V162.104C133.143 162.104 133.88 161.799 134.423 161.256C134.967 160.713 135.272 159.976 135.273 159.208Z" fill="#362E93"/>
<path d="M129.477 139.922V159.208C129.477 159.977 129.782 160.714 130.325 161.257C130.869 161.801 131.606 162.106 132.375 162.106V139.922H129.477Z" fill="#1F196F"/>
<path d="M144.949 107.52C142.462 105.034 139.294 103.34 135.845 102.654C132.396 101.968 128.821 102.32 125.572 103.666C122.323 105.012 119.546 107.291 117.592 110.215C115.639 113.139 114.596 116.576 114.596 120.093C114.596 123.61 115.639 127.047 117.592 129.971C119.546 132.895 122.323 135.174 125.572 136.52C128.821 137.866 132.396 138.218 135.845 137.532C139.294 136.846 142.462 135.152 144.949 132.666C148.283 129.331 150.156 124.809 150.156 120.093C150.156 115.377 148.283 110.855 144.949 107.52ZM132.467 136.28C129.265 136.298 126.13 135.367 123.458 133.603C120.785 131.839 118.696 129.322 117.455 126.371C116.213 123.42 115.874 120.167 116.481 117.023C117.089 113.879 118.614 110.986 120.866 108.71C123.117 106.433 125.993 104.875 129.13 104.233C132.267 103.591 135.524 103.894 138.488 105.103C141.453 106.312 143.993 108.373 145.786 111.026C147.58 113.678 148.546 116.803 148.563 120.005C148.587 124.297 146.904 128.424 143.886 131.476C140.867 134.528 136.76 136.256 132.467 136.28Z" fill="#362E93"/>
<g style="mix-blend-mode:multiply">
<path d="M142.588 107.531C145.159 110.623 146.488 114.561 146.315 118.578C146.142 122.596 144.48 126.405 141.653 129.265C138.826 132.125 135.036 133.83 131.021 134.048C127.005 134.267 123.053 132.983 119.932 130.447C121.376 132.184 123.168 133.599 125.191 134.602C127.215 135.605 129.427 136.173 131.683 136.27C133.94 136.367 136.192 135.991 138.294 135.165C140.397 134.34 142.303 133.084 143.891 131.478C145.48 129.872 146.714 127.951 147.515 125.839C148.316 123.727 148.667 121.471 148.544 119.216C148.421 116.96 147.828 114.756 146.802 112.743C145.776 110.731 144.341 108.956 142.588 107.531Z" fill="#E9EDF7"/>
</g>
<path d="M62.6127 40.5368C62.0572 40.5362 61.5245 40.3151 61.1318 39.9221C60.739 39.5292 60.5183 38.9964 60.5179 38.4408V27.317H61.3961V38.4408C61.3961 38.7635 61.5243 39.0729 61.7525 39.3011C61.9806 39.5292 62.2901 39.6574 62.6127 39.6574C62.9354 39.6574 63.2448 39.5292 63.473 39.3011C63.7012 39.0729 63.8293 38.7635 63.8293 38.4408V22.8769C63.8169 22.3679 63.6059 21.884 63.2415 21.5285C62.8772 21.1729 62.3882 20.9739 61.8791 20.9739C61.37 20.9739 60.8811 21.1729 60.5168 21.5285C60.1524 21.884 59.9414 22.3679 59.929 22.8769V24.7211H59.0508V22.8769C59.0658 22.1367 59.3704 21.4319 59.8992 20.9138C60.428 20.3957 61.1388 20.1055 61.8791 20.1055C62.6195 20.1055 63.3303 20.3957 63.8591 20.9138C64.3879 21.4319 64.6925 22.1367 64.7075 22.8769V38.4408C64.7072 38.9964 64.4864 39.5292 64.0937 39.9221C63.701 40.3151 63.1683 40.5362 62.6127 40.5368Z" fill="#5652CC"/>
<path d="M68.9655 69.8952V61.6016H81.0635V69.8952L83.4182 72.4291L75.0215 76.422L67.3203 72.4303L68.9655 69.8952Z" fill="#F8D8D0"/>
<path d="M68.9648 68.7364C70.7436 69.963 72.8532 70.6198 75.0138 70.6198C77.1745 70.6198 79.2841 69.963 81.0628 68.7364V61.5938H68.9648V68.7364Z" fill="#E8C2B8"/>
<path d="M86.0251 53.8287C86.0251 47.5326 81.0967 42.4309 75.0184 42.4297C68.9401 42.4285 64.0059 47.5338 64.0059 53.8275L64.0492 57.3473C64.4859 63.2288 69.2247 67.8587 75.0172 67.861C80.8098 67.8634 85.5474 63.2288 85.9841 57.3473H85.9912V57.2056C86.0064 56.9597 86.0263 54.0792 86.0251 53.8287Z" fill="#F8D8D0"/>
<path d="M64.0026 53.8292C65.1735 55.0002 64.5588 49.3106 67.4392 49.3106C70.3197 49.3106 70.774 50.3141 73.5948 50.3141C76.4156 50.3141 76.5947 48.4945 79.0501 48.4945C81.5056 48.4945 82.2983 52.2216 85.3731 49.9535C88.3297 47.7732 81.6929 39.4151 76.8359 41.2172C74.932 41.9197 73.2295 39.8987 71.3759 40.9186C69.109 42.1645 67.883 44.1047 65.7953 44.5918C62.046 45.4676 62.6736 52.5014 64.0026 53.8292Z" fill="#20196F"/>
<path d="M81.0634 69.8984C81.0634 73.3503 78.4347 74.7297 75.0156 74.7308C71.5965 74.732 68.9654 72.9745 68.9654 69.8996C65.3356 69.8996 51.3887 75.1688 51.3887 89.1028H99.0067C99.0067 74.7929 84.6933 69.8996 81.0634 69.8984Z" fill="#FCBA06"/>
<path d="M85.513 59.8733C85.0552 59.8733 84.4428 60.693 82.7766 62.3639C81.1104 64.0348 79.4711 58.7539 75.0145 58.7539C70.1681 58.7539 68.9187 64.0301 67.2525 62.3639C65.5862 60.6976 64.9738 59.8733 64.516 59.8733C64.0582 59.8733 65.4223 68.9585 75.0134 68.9585C84.6056 68.9585 85.9697 59.8733 85.513 59.8733Z" fill="#362E94"/>
<path d="M60.5175 89.0999C60.5175 89.0999 59.8805 83.2534 59.2458 83.9853C58.6112 84.7171 58.4648 89.0999 58.4648 89.0999H60.5175Z" fill="#ED9F00"/>
<path d="M89.5117 89.0999C89.5117 89.0999 90.1487 83.2534 90.7833 83.9853C91.418 84.7171 91.5632 89.0999 91.5632 89.0999H89.5117Z" fill="#ED9F00"/>
<path d="M42.4709 1.28425L39.3585 0.0524314C39.239 0.00455534 39.1089 -0.0109129 38.9814 0.00759081C38.8539 0.0260946 38.7336 0.0779141 38.6326 0.157814L36.005 2.23035C35.9039 2.31004 35.8256 2.41504 35.7781 2.53471C35.7306 2.65438 35.7156 2.78448 35.7345 2.91183L36.2193 6.22672C36.2379 6.35399 36.2897 6.47411 36.3695 6.57503C36.4492 6.67595 36.5541 6.7541 36.6736 6.80165L39.7871 8.03931C39.9066 8.08669 40.0365 8.10178 40.1638 8.08308C40.291 8.06438 40.411 8.01254 40.5119 7.93276L43.1406 5.85554C43.2413 5.77546 43.3192 5.67041 43.3667 5.55085C43.4142 5.43129 43.4295 5.30138 43.4111 5.17406L42.9263 1.85917C42.9073 1.7319 42.8552 1.61184 42.7753 1.51097C42.6953 1.4101 42.5904 1.33193 42.4709 1.28425Z" fill="#FCBA06"/>
<path d="M109.514 174.346L109.28 179.552C109.274 179.68 109.303 179.808 109.362 179.922C109.421 180.036 109.51 180.133 109.618 180.202C109.727 180.271 109.851 180.31 109.98 180.316C110.108 180.322 110.236 180.294 110.35 180.234L114.975 177.832C115.09 177.772 115.186 177.684 115.255 177.575C115.324 177.467 115.364 177.342 115.369 177.214C115.375 177.085 115.347 176.958 115.288 176.843C115.228 176.729 115.14 176.633 115.032 176.563L110.637 173.753C110.528 173.685 110.403 173.646 110.275 173.641C110.146 173.636 110.018 173.665 109.905 173.725C109.791 173.785 109.695 173.874 109.626 173.983C109.558 174.092 109.519 174.217 109.514 174.346Z" fill="#423EAF"/>
<path d="M172.64 71.2051L172.037 78.3711C172.022 78.5481 172.054 78.7259 172.13 78.8866C172.205 79.0473 172.322 79.1852 172.468 79.2866C172.613 79.3879 172.783 79.4491 172.96 79.464C173.137 79.4788 173.315 79.4468 173.476 79.3711L179.983 76.3103C180.144 76.2349 180.282 76.1183 180.383 75.9725C180.485 75.8266 180.546 75.6566 180.561 75.4794C180.576 75.3023 180.544 75.1244 180.469 74.9636C180.393 74.8027 180.276 74.6647 180.13 74.5633L174.225 70.4592C174.079 70.3575 173.91 70.296 173.732 70.281C173.555 70.2659 173.378 70.2978 173.217 70.3735C173.056 70.4491 172.918 70.5658 172.817 70.7118C172.715 70.8578 172.654 71.028 172.64 71.2051Z" fill="#DDE2F8"/>
</svg>
